<svg width="13" height="13" viewBox="0 0 13 13" fill="none" xmlns="http://www.w3.org/2000/svg">
<path d="M6.54883 0C4.77005 0.000196214 3.32638 1.42941 3.30078 3.20215C3.28388 3.20189 3.26696 3.20117 3.25 3.20117C1.45522 3.20117 0.000230789 4.65644 0 6.45117C0 8.2461 1.45507 9.70117 3.25 9.70117C3.26697 9.70117 3.28388 9.69948 3.30078 9.69922C3.30052 9.71612 3.29883 9.73304 3.29883 9.75C3.29883 11.5448 4.75407 12.9998 6.54883 13C8.34375 13 9.79883 11.5449 9.79883 9.75C9.79883 9.73304 9.79811 9.71612 9.79785 9.69922C11.5707 9.67362 13 8.23011 13 6.45117C12.9998 4.67242 11.5706 3.22773 9.79785 3.20215C9.77226 1.42929 8.32777 -7.77601e-08 6.54883 0ZM6.50195 6.49805L6.50293 6.50098C6.50163 6.50099 6.50033 6.50096 6.49902 6.50098C6.49904 6.49967 6.49901 6.49837 6.49902 6.49707L6.50195 6.49805Z" fill="#00C638"/>
<circle cx="1.74627" cy="1.74627" r="1.74627" transform="matrix(-1 0 0 1 8.24609 4.75342)" fill="white"/>
</svg>
