<svg width="21" height="14" viewBox="0 0 21 14" fill="none" xmlns="http://www.w3.org/2000/svg">
<path d="M16.5342 5C15.3023 5 14.3034 5.99 14.2861 7.21777C14.2741 7.21758 14.2621 7.2168 14.25 7.2168C13.0074 7.2168 12 8.22416 12 9.4668C12.0001 10.7093 13.0074 11.7168 14.25 11.7168C14.2621 11.7168 14.2741 11.715 14.2861 11.7148C14.286 11.7266 14.2842 11.7382 14.2842 11.75C14.2842 12.9926 15.2915 14 16.5342 14C17.7766 13.9998 18.7842 12.9925 18.7842 11.75C18.7842 11.7383 18.7834 11.7265 18.7832 11.7148C20.0104 11.6971 20.9999 10.6982 21 9.4668C21 8.23525 20.0105 7.23553 18.7832 7.21777C18.766 5.99012 17.7659 5.0002 16.5342 5ZM16.502 9.49805L16.5029 9.50098C16.5016 9.50099 16.5003 9.50096 16.499 9.50098C16.499 9.49967 16.499 9.49837 16.499 9.49707L16.502 9.49805Z" fill="#00C638"/>
<circle cx="1.20896" cy="1.20896" r="1.20896" transform="matrix(-1 0 0 1 17.709 8.29102)" fill="white"/>
<path d="M9.02246 0C8.20122 3.58977e-08 7.53592 0.660007 7.52441 1.47852C7.51629 1.47839 7.50816 1.47754 7.5 1.47754C6.67157 1.47754 6 2.14911 6 2.97754C6 3.80597 6.67157 4.47754 7.5 4.47754C7.50816 4.47754 7.51628 4.47572 7.52441 4.47559C7.52428 4.48372 7.52246 4.49184 7.52246 4.5C7.52246 5.32843 8.19403 6 9.02246 6C9.85074 5.99982 10.5225 5.32832 10.5225 4.5C10.5225 4.49184 10.5216 4.48371 10.5215 4.47559C11.34 4.46408 12 3.79878 12 2.97754C12 2.15629 11.34 1.49001 10.5215 1.47852C10.51 0.660104 9.84356 0.000174423 9.02246 0ZM9.00195 2.99805L9.00293 3.00098C9.00163 3.00099 9.00033 3.00096 8.99902 3.00098C8.99904 2.99967 8.99901 2.99837 8.99902 2.99707L9.00195 2.99805Z" fill="#00C638"/>
<circle cx="0.80597" cy="0.80597" r="0.80597" transform="matrix(-1 0 0 1 9.80664 2.19385)" fill="white"/>
<path d="M2.01465 3C1.46726 3 1.02347 3.43983 1.01562 3.98535C1.01043 3.98527 1.00522 3.98535 1 3.98535C0.447715 3.98535 0 4.43307 0 4.98535C0.000175953 5.53749 0.447824 5.98535 1 5.98535C1.00522 5.98535 1.01042 5.98445 1.01562 5.98438C1.01555 5.98958 1.01465 5.99478 1.01465 6C1.01465 6.55228 1.46236 7 2.01465 7C2.56678 6.99982 3.01465 6.55218 3.01465 6C3.01465 5.99478 3.01473 5.98957 3.01465 5.98438C3.56007 5.97654 3.99983 5.53259 4 4.98535C4 4.43796 3.56018 3.99319 3.01465 3.98535C3.00682 3.43993 2.5619 3.00017 2.01465 3ZM2.00195 5H2V4.99805L2.00195 5Z" fill="#00C638"/>
<circle cx="0.537313" cy="0.537313" r="0.537313" transform="matrix(-1 0 0 1 2.53711 4.4624)" fill="white"/>
</svg>
