<svg width="37" height="37" viewBox="0 0 37 37" fill="none" xmlns="http://www.w3.org/2000/svg">
<ellipse cx="19.4406" cy="19.0591" rx="13.0527" ry="13.7922" transform="rotate(20.3668 19.4406 19.0591)" fill="#EB5025"/>
<path d="M27.959 29.8115C27.4723 30.3046 26.3752 31.0737 25.7282 31.4192C25.7165 31.4258 25.7047 31.4324 25.693 31.439C25.5412 31.5234 25.3966 31.6024 25.2255 31.6915C24.816 31.8958 24.2647 32.2001 23.0265 32.5835C22.6678 32.6997 22.3044 32.8006 21.937 32.8856C19.4799 33.4609 16.8475 33.2928 14.4914 32.3905C13.0432 31.8418 11.7005 31.0287 10.547 30.0037C10.5083 29.9702 10.4692 29.9361 10.4297 29.9011C9.66001 29.2342 8.837 28.2685 8.40378 27.606C7.84588 26.7683 7.54951 26.1511 7.32026 25.642C5.96783 22.7353 5.66975 19.3876 6.39712 16.2928C6.54502 15.6574 6.73247 15.0373 6.96028 14.4259C7.08216 14.0991 7.21262 13.7822 7.35607 13.4648C7.7339 12.6289 8.18831 11.8269 8.71356 11.074C9.01317 10.6319 9.32159 10.2264 9.62524 9.86334C10.0509 9.35413 10.4664 8.92967 10.8268 8.59982C11.6924 7.79675 12.8173 7.05499 13.7034 6.60819C13.8478 6.53401 13.9849 6.46676 14.1131 6.40608C14.8193 6.05691 15.5566 5.76736 16.314 5.54466C16.3656 5.53326 16.4176 5.52218 16.4706 5.51128C17.1312 5.38117 17.9378 5.18249 19.2368 5.10539C19.8021 5.0756 20.4601 5.07546 21.2287 5.15813C21.7238 5.21336 21.9723 5.27674 22.1752 5.32656C22.2349 5.34158 22.2908 5.35606 22.3474 5.37033C22.5403 5.41912 22.7472 5.45237 22.9925 5.49998C23.3075 5.56158 23.6896 5.64602 24.1653 5.83495C24.2199 5.85671 24.2734 5.87835 24.3258 5.89984C25.7163 6.48842 26.3007 6.84778 26.7636 7.09466C26.9032 7.17331 27.0283 7.24698 27.1527 7.3275C27.5584 7.58657 28.0895 8.02456 28.4561 8.38921C28.7516 8.67303 29.3395 9.24412 29.7475 9.71539C29.9032 9.89207 30.1014 10.1418 30.3193 10.447C30.545 10.7628 30.7915 11.1385 31.0381 11.5507C31.6548 12.598 31.8851 13.2079 32.0761 13.6906C32.1289 13.829 32.176 13.9588 32.2214 14.0892C32.3653 14.5009 32.5184 15.0205 32.6384 15.5563C32.7839 16.196 32.8791 16.8572 32.9298 17.3619C33.0294 18.6732 32.9458 19.9976 32.6906 21.2821C32.5601 21.9444 32.355 22.5576 32.1531 22.9914C31.9522 23.4215 31.7806 23.6405 31.7044 23.6119C31.6264 23.5829 31.6482 23.3101 31.7284 22.857C31.81 22.3995 31.9356 21.796 32.0477 21.161C32.2749 19.8858 32.325 18.5788 32.1945 17.2923C32.0363 15.7258 31.6106 14.1892 30.9358 12.7709C30.4642 11.7789 29.8688 10.846 29.1627 10.0058C29.09 9.91927 29.0162 9.83373 28.9412 9.7492C28.3137 9.07239 27.6028 8.48617 27.0792 8.11007C26.6474 7.79804 26.3237 7.5829 26.042 7.40512C25.8468 7.28275 25.673 7.18063 25.4899 7.08624C25.3916 7.03562 25.2565 6.96838 25.0922 6.89207C24.8299 6.77014 24.4941 6.62606 24.1086 6.48482C23.5056 6.26217 22.7902 6.05795 22.1016 5.91995C21.6022 5.81775 21.0137 5.72936 20.4472 5.68885C19.6367 5.62684 18.8738 5.66803 18.4943 5.72053C17.8262 5.80801 17.066 5.95201 16.4076 6.13722C15.7789 6.3113 15.2443 6.51643 14.9513 6.6569C14.6019 6.82525 14.2997 6.95858 13.8615 7.18232C13.5585 7.33883 13.1897 7.53939 12.7148 7.85509C12.1684 8.22097 11.7982 8.50597 11.4895 8.75455C11.0574 9.10756 10.742 9.39005 10.3279 9.8593C9.86854 10.3815 9.43005 10.9621 9.10062 11.4277C8.94896 11.6408 8.78723 11.8884 8.62653 12.155C8.415 12.5051 8.20883 12.8847 8.02765 13.2355C7.8785 13.524 7.75448 13.7623 7.64808 13.9769C7.61517 14.0433 7.58405 14.1074 7.55463 14.1699C7.49886 14.3075 7.44501 14.4464 7.39315 14.5866C7.35443 14.6914 7.31704 14.7962 7.28098 14.9012C7.26968 14.9418 7.25813 14.9845 7.24628 15.0291C7.18737 15.2514 7.11805 15.5306 7.03564 15.87C6.90498 16.4112 6.79734 16.8856 6.70825 17.3921C6.63962 17.7869 6.5832 18.201 6.55591 18.6778C6.53724 19.0038 6.53317 19.3747 6.54498 19.742C6.56122 20.2878 6.61565 20.8242 6.6549 21.1952C6.66941 21.335 6.67576 21.4558 6.68333 21.5753C6.68335 21.5759 6.68337 21.5764 6.68338 21.5769C6.6839 21.585 6.68444 21.5932 6.68498 21.6013C6.82783 22.5025 7.06137 23.3885 7.38215 24.2405C7.41157 24.3135 7.44208 24.3876 7.47283 24.4603C7.62259 24.8161 7.78645 25.1534 7.90657 25.3657C8.03536 25.5967 8.3416 26.1858 8.72888 26.7657C8.98046 27.1464 9.26425 27.5238 9.51216 27.8174C9.65686 27.9892 9.786 28.1585 9.92369 28.3298C10.0522 28.4895 10.1881 28.6506 10.3514 28.8128C10.4333 28.894 10.5248 28.9785 10.6239 29.0667C10.7111 29.1444 10.8045 29.2252 10.9024 29.3097C10.9936 29.3882 11.1889 29.5696 11.4534 29.789C11.6161 29.924 11.8059 30.0738 12.0103 30.2226C12.5615 30.6024 13.1421 30.9351 13.7473 31.2184C13.8767 31.2703 13.9917 31.3096 14.0854 31.3346C14.1527 31.3526 14.2112 31.3638 14.2711 31.3748C14.3526 31.3898 14.437 31.4047 14.5497 31.4336C14.6378 31.4563 14.7389 31.49 14.8045 31.5195C14.8075 31.5208 14.8104 31.5222 14.8133 31.5235C14.8395 31.5357 14.8597 31.5472 14.8783 31.5576C14.9018 31.5709 14.9229 31.5826 14.9503 31.5923C14.97 31.5993 14.9916 31.6036 15.0181 31.6089C15.0604 31.6174 15.1154 31.6283 15.1953 31.6547C15.4912 31.7526 15.8351 31.8556 16.1736 31.9396C16.5506 32.0338 16.9244 32.1051 17.2233 32.1466C17.5592 32.1945 18.0383 32.2583 18.5219 32.2869C18.8601 32.3077 19.1988 32.3127 19.49 32.3032C19.7748 32.2942 20.0714 32.2643 20.3559 32.2252C20.6982 32.1784 21.0241 32.118 21.3029 32.0739C21.3593 32.065 21.4312 32.0633 21.5216 32.0601C21.5857 32.0578 21.6595 32.0545 21.743 32.0472C22.0948 31.9658 22.4432 31.8697 22.7875 31.7594C22.7991 31.7538 22.811 31.7481 22.823 31.7424C22.8232 31.7423 22.8233 31.7422 22.8235 31.7421C23.0933 31.6112 23.4547 31.4288 23.9874 31.2307C24.1227 31.18 24.2116 31.1555 24.2918 31.1331C24.3706 31.111 24.4411 31.0906 24.5371 31.0461C24.646 30.9956 24.7686 30.9238 24.9007 30.8431C25.0866 30.7296 25.2893 30.5989 25.5042 30.4843C25.5189 30.4765 25.5347 30.4681 25.5511 30.4593C25.7065 30.3757 25.9337 30.2481 26.1648 30.1235C26.8069 29.6936 27.4133 29.2088 27.9757 28.6761C28.9136 27.7882 29.7286 26.766 30.3893 25.6512C30.7123 25.1083 31.0057 24.5798 31.2383 24.1878C31.4692 23.8001 31.6279 23.5834 31.7044 23.6119C31.7794 23.6393 31.7668 23.9121 31.6423 24.3603C31.5162 24.8121 31.2791 25.3996 30.9566 25.9771C30.433 26.9177 29.8057 27.802 29.0851 28.6075C29.048 28.6504 29.0104 28.6933 28.9728 28.7356C28.693 29.05 28.428 29.34 28.152 29.6198C28.0884 29.6842 28.0241 29.7481 27.959 29.8115Z" fill="#C95700"/>
<ellipse cx="17.4503" cy="18.3203" rx="13.0527" ry="13.7922" transform="rotate(20.3668 17.4503 18.3203)" fill="#FF6940"/>
<path d="M25.9687 29.0727C25.4821 29.5658 24.385 30.3349 23.7379 30.6805C23.7262 30.6871 23.7145 30.6936 23.7028 30.7002C23.551 30.7846 23.4064 30.8637 23.2353 30.9527C22.8258 31.157 22.2745 31.4613 21.0362 31.8447C20.6776 31.9609 20.3142 32.0618 19.9468 32.1469C17.4896 32.7221 14.8573 32.5541 12.5012 31.6517C11.0529 31.103 9.7103 30.2899 8.55681 29.2649C8.51807 29.2315 8.47898 29.1973 8.43947 29.1623C7.66978 28.4954 6.84676 27.5298 6.41355 26.8673C5.85565 26.0295 5.55928 25.4124 5.33002 24.9032C3.9776 21.9966 3.67952 18.6488 4.40689 15.554C4.55478 14.9187 4.74223 14.2986 4.97005 13.6872C5.09192 13.3603 5.22238 13.0434 5.36583 12.726C5.74366 11.8901 6.19808 11.0881 6.72333 10.3352C7.02294 9.89316 7.33136 9.48759 7.63501 9.12457C8.06062 8.61536 8.47614 8.1909 8.8366 7.86105C9.70213 7.05798 10.8271 6.31622 11.7132 5.86942C11.8576 5.79525 11.9947 5.72799 12.1228 5.66731C12.829 5.31814 13.5663 5.02859 14.3238 4.80589C14.3754 4.79449 14.4274 4.78341 14.4803 4.77251C15.141 4.6424 15.9476 4.44372 17.2465 4.36662C17.8119 4.33683 18.4698 4.33669 19.2384 4.41936C19.7335 4.47459 19.9821 4.53797 20.185 4.5878C20.2447 4.60281 20.3006 4.61729 20.3572 4.63156C20.5501 4.68035 20.757 4.7136 21.0022 4.76121C21.3173 4.82281 21.6993 4.90726 22.175 5.09618C22.2297 5.11794 22.2831 5.13958 22.3355 5.16107C23.7261 5.74965 24.3105 6.10901 24.7733 6.3559C24.9129 6.43454 25.038 6.50821 25.1625 6.58873C25.5681 6.8478 26.0992 7.28579 26.4658 7.65044C26.7614 7.93426 27.3493 8.50535 27.7572 8.97662C27.913 9.1533 28.1111 9.40305 28.3291 9.70824C28.5548 10.024 28.8013 10.3997 29.0478 10.812C29.6646 11.8592 29.8948 12.4692 30.0859 12.9519C30.1387 13.0902 30.1858 13.22 30.2312 13.3505C30.3751 13.7621 30.5281 14.2818 30.6482 14.8175C30.7937 15.4573 30.8889 16.1184 30.9396 16.6231C31.0392 17.9344 30.9555 19.2588 30.7004 20.5433C30.5699 21.2056 30.3647 21.8189 30.1628 22.2526C29.962 22.6827 29.7903 22.9017 29.7142 22.8731C29.6361 22.8442 29.6579 22.5714 29.7381 22.1182C29.8198 21.6607 29.9453 21.0572 30.0574 20.4222C30.2847 19.147 30.3348 17.8401 30.2043 16.5536C30.046 14.987 29.6204 13.4504 28.9456 12.0321C28.4739 11.0401 27.8785 10.1072 27.1724 9.26699C27.0998 9.1805 27.0259 9.09496 26.9509 9.01043C26.3234 8.33362 25.6126 7.74741 25.089 7.3713C24.6572 7.05927 24.3335 6.84413 24.0517 6.66635C23.8566 6.54398 23.6827 6.44186 23.4997 6.34747C23.4014 6.29685 23.2662 6.22961 23.102 6.1533C22.8397 6.03137 22.5039 5.88729 22.1184 5.74605C21.5154 5.5234 20.7999 5.31918 20.1114 5.18118C19.6119 5.07898 19.0235 4.99059 18.4569 4.95008C17.6465 4.88807 16.8836 4.92926 16.504 4.98176C15.836 5.06924 15.0757 5.21324 14.4174 5.39845C13.7886 5.57253 13.254 5.77766 12.9611 5.91813C12.6117 6.08648 12.3095 6.21981 11.8713 6.44355C11.5683 6.60006 11.1995 6.80062 10.7246 7.11632C10.1782 7.4822 9.80797 7.7672 9.49926 8.01578C9.06718 8.36879 8.75181 8.65128 8.33762 9.12053C7.8783 9.64273 7.43982 10.2234 7.11039 10.6889C6.95873 10.902 6.797 11.1496 6.63629 11.4162C6.42477 11.7664 6.2186 12.1459 6.03741 12.4967C5.88826 12.7852 5.76424 13.0236 5.65785 13.2381C5.62494 13.3045 5.59381 13.3686 5.5644 13.4312C5.50862 13.5687 5.45478 13.7076 5.40292 13.8479C5.3642 13.9526 5.32681 14.0575 5.29074 14.1624C5.27944 14.203 5.26789 14.2457 5.25605 14.2903C5.19713 14.5126 5.12782 14.7918 5.04541 15.1312C4.91474 15.6725 4.80711 16.1468 4.71802 16.6534C4.64939 17.0481 4.59296 17.4623 4.56568 17.939C4.547 18.2651 4.54294 18.636 4.55475 19.0032C4.57098 19.5491 4.62542 20.0854 4.66466 20.4565C4.67918 20.5962 4.68553 20.717 4.6931 20.8366C4.69311 20.8371 4.69313 20.8376 4.69315 20.8381C4.69366 20.8463 4.69421 20.8544 4.69474 20.8625C4.83759 21.7637 5.07113 22.6498 5.39192 23.5017C5.42133 23.5747 5.45185 23.6488 5.4826 23.7215C5.63235 24.0773 5.79622 24.4146 5.91634 24.6269C6.04512 24.8579 6.35136 25.447 6.73865 26.027C6.99023 26.4077 7.27401 26.785 7.52192 27.0786C7.66663 27.2504 7.79577 27.4198 7.93346 27.591C8.06201 27.7508 8.19784 27.9119 8.36119 28.074C8.44302 28.1552 8.53461 28.2397 8.63365 28.3279C8.72088 28.4056 8.81423 28.4865 8.91217 28.5709C9.00336 28.6494 9.19864 28.8308 9.46321 29.0502C9.62587 29.1852 9.81565 29.335 10.0201 29.4838C10.5713 29.8636 11.1519 30.1963 11.7571 30.4797C11.8864 30.5315 12.0015 30.5709 12.0951 30.5958C12.1624 30.6138 12.221 30.625 12.2808 30.636C12.3624 30.651 12.4467 30.666 12.5595 30.6949C12.6476 30.7175 12.7487 30.7512 12.8143 30.7807C12.8173 30.7821 12.8202 30.7834 12.8231 30.7847C12.8493 30.797 12.8695 30.8084 12.888 30.8189C12.9116 30.8321 12.9327 30.8439 12.96 30.8535C12.9798 30.8605 13.0014 30.8648 13.0279 30.8701C13.0702 30.8786 13.1251 30.8895 13.205 30.9159C13.501 31.0139 13.8448 31.1169 14.1833 31.2008C14.5603 31.295 14.9342 31.3663 15.2331 31.4079C15.5689 31.4557 16.0481 31.5195 16.5317 31.5481C16.8699 31.569 17.2086 31.5739 17.4998 31.5644C17.7846 31.5554 18.0811 31.5256 18.3657 31.4864C18.708 31.4396 19.0339 31.3793 19.3127 31.3351C19.3691 31.3262 19.441 31.3246 19.5314 31.3213C19.5955 31.319 19.6693 31.3158 19.7528 31.3085C20.1046 31.227 20.453 31.131 20.7973 31.0206C20.8089 31.0151 20.8208 31.0094 20.8327 31.0036C20.8329 31.0035 20.8331 31.0034 20.8333 31.0033C21.1031 30.8725 21.4645 30.69 21.9972 30.4919C22.1325 30.4412 22.2214 30.4168 22.3016 30.3943C22.3803 30.3722 22.4509 30.3519 22.5469 30.3073C22.6557 30.2568 22.7784 30.1851 22.9105 30.1043C23.0964 29.9908 23.2991 29.8601 23.514 29.7456C23.5287 29.7378 23.5444 29.7293 23.5608 29.7205C23.7163 29.637 23.9435 29.5093 24.1745 29.3848C24.8167 28.9548 25.4231 28.47 25.9854 27.9373C26.9233 27.0494 27.7384 26.0272 28.3991 24.9125C28.7221 24.3695 29.0154 23.841 29.2481 23.449C29.4789 23.0614 29.6377 22.8446 29.7142 22.8731C29.7892 22.9006 29.7765 23.1733 29.6521 23.6215C29.5259 24.0734 29.2888 24.6608 28.9664 25.2383C28.4428 26.1789 27.8155 27.0632 27.0948 27.8687C27.0577 27.9117 27.0202 27.9545 26.9825 27.9969C26.7027 28.3112 26.4377 28.6013 26.1618 28.881C26.0982 28.9454 26.0339 29.0094 25.9687 29.0727Z" fill="#C95700"/>
<path d="M6.82793 12.8794C6.8507 12.7451 6.98151 12.5277 7.05615 12.4103C7.0575 12.4082 7.05884 12.406 7.06019 12.4039C7.07779 12.376 7.09328 12.349 7.11151 12.3174C7.15511 12.2425 7.21371 12.14 7.36104 11.9425C7.39702 11.881 7.43381 11.8201 7.47146 11.7598C7.87918 11.1072 8.37199 10.5085 8.91493 9.96746C8.92129 9.96015 8.92776 9.95273 8.93431 9.94523C9.06046 9.80028 9.22209 9.62508 9.33821 9.52922C9.48535 9.40741 9.59017 9.33096 9.67726 9.26891C10.1406 8.87727 10.6275 8.5185 11.1287 8.18345C11.2857 8.07849 11.4444 7.97561 11.6039 7.87511C11.7512 7.78225 11.8995 7.69163 12.0492 7.60327C12.1331 7.54556 12.2125 7.48999 12.2868 7.43921C12.3912 7.36786 12.4854 7.30588 12.5665 7.26051C12.7616 7.15095 12.9976 7.05621 13.174 6.99052C13.2028 6.97974 13.2301 6.96968 13.2553 6.96037C13.39 6.89643 13.5264 6.83439 13.6636 6.77494C13.6741 6.77432 13.6846 6.77383 13.6954 6.77336C13.8296 6.76786 13.9753 6.71207 14.2081 6.63292C14.3094 6.59863 14.4276 6.56005 14.5684 6.52104C14.6591 6.49596 14.7104 6.49917 14.752 6.50176C14.7643 6.50253 14.7758 6.50326 14.7872 6.50327C14.8263 6.50328 14.8615 6.48174 14.9034 6.45651C14.9577 6.42383 15.0235 6.38477 15.122 6.37991C15.4354 6.36548 15.5585 6.3007 15.6536 6.24962C15.6815 6.23482 15.7068 6.22152 15.7335 6.21178C15.8201 6.18008 15.9507 6.17188 16.0505 6.17626C16.1296 6.17945 16.2803 6.14072 16.3946 6.10566C16.4379 6.09232 16.4977 6.08456 16.5683 6.07625C16.6414 6.06764 16.726 6.05847 16.8158 6.04153C17.0431 5.99903 17.1656 5.9821 17.2635 5.96823C17.2914 5.96435 17.3175 5.96089 17.3436 5.95741C17.4259 5.94641 17.5285 5.9368 17.6327 5.92873C17.7575 5.91897 17.8838 5.9115 17.9806 5.90287C18.2311 5.91565 18.4797 5.93909 18.728 5.97079C18.8551 5.98707 18.9742 6.0357 19.057 6.10587C19.1399 6.17609 19.1798 6.26118 19.1699 6.34287C19.16 6.42466 19.1016 6.49742 19.0094 6.54876C18.9171 6.60005 18.7985 6.62575 18.678 6.62313C18.4341 6.61754 18.1915 6.62043 17.9488 6.62894C17.6537 6.63932 17.3592 6.65805 17.0653 6.68019C16.8597 6.69567 16.6543 6.71513 16.4493 6.73892C16.4282 6.74136 16.4071 6.74384 16.386 6.74638C16.2171 6.79027 16.05 6.83708 15.9318 6.86556C15.8342 6.88903 15.7605 6.89277 15.6972 6.89633C15.6536 6.8988 15.6151 6.90124 15.5774 6.91033C15.5573 6.91521 15.5298 6.92252 15.4968 6.9315C15.3616 6.96793 15.1344 7.03417 14.9208 7.07438C14.826 7.09201 14.7139 7.10717 14.6069 7.12344C14.4537 7.14655 14.3111 7.17206 14.245 7.20237C14.1292 7.25538 13.9893 7.2963 13.8662 7.33479C13.7488 7.37141 13.6464 7.40568 13.5953 7.44199C13.5343 7.48537 13.4748 7.50357 13.3861 7.53194C13.3246 7.55168 13.2492 7.57635 13.1505 7.61885C13.0369 7.66792 12.9532 7.69631 12.8821 7.72089C12.782 7.75558 12.7064 7.78282 12.6113 7.85479C12.5057 7.93484 12.3932 8.01287 12.2965 8.06072C12.2525 8.08245 12.2046 8.11122 12.1548 8.14159C12.089 8.18179 12.0201 8.22477 11.9531 8.25742C11.8978 8.28433 11.8465 8.29783 11.8012 8.30997C11.787 8.31376 11.7734 8.31745 11.7605 8.32137C11.7195 8.34795 11.6788 8.37487 11.6382 8.40219C11.6331 8.4087 11.6277 8.41567 11.6221 8.42292C11.5939 8.4593 11.5596 8.50405 11.5101 8.54879C11.4318 8.61961 11.3521 8.66474 11.2679 8.71364C11.2025 8.75168 11.1345 8.79198 11.0641 8.84831C11.0163 8.88662 10.9648 8.93417 10.9142 8.98176C10.839 9.05241 10.7658 9.12326 10.7074 9.16321C10.6856 9.17811 10.6617 9.18473 10.638 9.19133C10.6379 9.19135 10.6378 9.19137 10.6377 9.19138C10.6361 9.19183 10.6345 9.19229 10.6329 9.19274C10.5056 9.30788 10.3805 9.42702 10.2593 9.54816C10.25 9.56001 10.2406 9.57196 10.2313 9.58381C10.1857 9.64168 10.1421 9.6984 10.1201 9.74214C10.0963 9.78951 10.0128 9.88308 9.92737 9.98319C9.87132 10.0487 9.81415 10.1173 9.77084 10.1764C9.74552 10.2109 9.71014 10.2328 9.67396 10.2552C9.64018 10.2763 9.6055 10.2981 9.57773 10.3315C9.56383 10.3483 9.55099 10.3684 9.53737 10.3899C9.52538 10.4088 9.51277 10.4289 9.49826 10.4487C9.48478 10.4671 9.44663 10.5006 9.3981 10.5442C9.36804 10.5713 9.33431 10.6019 9.29985 10.6352C9.22186 10.7344 9.1451 10.8348 9.06949 10.9363C9.05976 10.9625 9.05463 10.9875 9.05506 11.011C9.05538 11.0279 9.05858 11.0445 9.06185 11.0616C9.06631 11.0848 9.07096 11.1088 9.06902 11.1351C9.0675 11.1556 9.05869 11.1741 9.04657 11.1817C9.04092 11.1852 9.03461 11.1864 9.0289 11.1875C9.02235 11.1887 9.01652 11.1898 9.01323 11.1941C9.01086 11.1973 9.01077 11.2024 9.01062 11.2087C9.01038 11.2188 9.01004 11.2318 9.00047 11.2445C8.96485 11.2918 8.92183 11.3438 8.88006 11.3951C8.83358 11.4522 8.78912 11.508 8.75735 11.5556C8.72179 11.6088 8.65927 11.6761 8.59738 11.7448C8.55411 11.7928 8.51147 11.841 8.47808 11.8846C8.44534 11.9274 8.41959 11.9776 8.39505 12.0264C8.36557 12.085 8.33778 12.1416 8.30066 12.1812C8.29314 12.1892 8.2754 12.1939 8.25317 12.1998C8.23741 12.204 8.21943 12.2088 8.20124 12.2159C8.16525 12.2735 8.12925 12.3312 8.0933 12.389C8.09352 12.392 8.09372 12.395 8.09396 12.398C8.09397 12.3981 8.09399 12.3981 8.094 12.3982C8.09925 12.4668 8.10731 12.5595 8.02571 12.6362C8.00494 12.6558 7.98332 12.663 7.96375 12.6696C7.94454 12.6762 7.92735 12.682 7.91539 12.6981C7.90181 12.7164 7.89599 12.7437 7.88977 12.7735C7.88101 12.8153 7.87154 12.862 7.83821 12.896C7.83594 12.8983 7.83347 12.9008 7.83094 12.9034C7.80694 12.9282 7.77154 12.965 7.724 12.9956C7.64953 13.1213 7.57664 13.2466 7.50455 13.3744C7.38446 13.5872 7.26896 13.8017 7.1591 14.021C7.10577 14.127 7.02883 14.2191 6.94178 14.2768C6.85467 14.3344 6.76473 14.3528 6.68895 14.3247C6.61325 14.2966 6.5569 14.2235 6.53156 14.1197C6.50627 14.0159 6.5149 13.8903 6.55416 13.7718C6.61838 13.5782 6.68788 13.3843 6.76197 13.1944C6.76495 13.1841 6.76806 13.1736 6.77126 13.1632C6.79507 13.0859 6.80677 13.0092 6.81914 12.9324C6.82198 12.9147 6.82486 12.8971 6.82793 12.8794ZM5.69265 21.276C5.64624 21.2419 5.64607 21.1583 5.64636 21.1124C5.64635 21.1116 5.64634 21.1108 5.64633 21.1099C5.64638 21.099 5.64505 21.089 5.64347 21.0772C5.63975 21.0492 5.63459 21.0113 5.64532 20.9287C5.64048 20.906 5.63612 20.8833 5.63231 20.8605C5.5911 20.6141 5.58904 20.3617 5.6009 20.1108C5.60036 20.1077 5.59982 20.1045 5.59927 20.1014C5.58867 20.0399 5.57622 19.9634 5.5859 19.9137C5.59818 19.8507 5.61135 19.8077 5.62292 19.7723C5.63804 19.5741 5.65455 19.3774 5.65933 19.1818C5.66083 19.1205 5.66115 19.0593 5.65995 18.9981C5.65885 18.9418 5.65689 18.8855 5.65422 18.8291C5.64559 18.7964 5.63551 18.7651 5.62627 18.7362C5.61327 18.6954 5.60194 18.659 5.59844 18.6289C5.59 18.5564 5.60592 18.4745 5.61822 18.414C5.62022 18.4041 5.62213 18.3947 5.6238 18.3861C5.6199 18.3377 5.6159 18.2891 5.61205 18.2405C5.61539 18.2374 5.61887 18.2343 5.62244 18.2312C5.66701 18.1917 5.6686 18.1412 5.67208 18.0618C5.6736 18.0272 5.67553 17.987 5.68164 17.94C5.68557 17.9097 5.70362 17.8953 5.71834 17.8835C5.72267 17.88 5.72672 17.8768 5.73004 17.8734C5.74142 17.862 5.73093 17.8484 5.71857 17.8323C5.70254 17.8114 5.68334 17.786 5.70471 17.7563C5.77287 17.6618 5.73611 17.6149 5.70819 17.5789C5.70002 17.5683 5.69265 17.5587 5.68895 17.5493C5.67695 17.5186 5.69567 17.4782 5.71896 17.4487C5.7374 17.4254 5.72691 17.374 5.71112 17.3338C5.70514 17.3187 5.70714 17.2993 5.70961 17.2764C5.71216 17.2527 5.71521 17.2255 5.7103 17.1952C5.69792 17.1187 5.69282 17.0779 5.6887 17.0453C5.68754 17.0359 5.68652 17.0272 5.68541 17.0185C5.6819 16.9911 5.68061 16.9573 5.67949 16.9232C5.67812 16.8823 5.67697 16.8408 5.6721 16.8085C5.69438 16.7301 5.71972 16.6526 5.74577 16.5753C5.7592 16.5357 5.80249 16.503 5.86756 16.4852C5.93267 16.4674 6.01375 16.4659 6.09473 16.4808C6.17572 16.4956 6.25095 16.5257 6.30596 16.564C6.36092 16.6024 6.39079 16.6459 6.39064 16.6857C6.39016 16.766 6.39052 16.8459 6.38899 16.9256C6.38715 17.0225 6.38256 17.1187 6.37043 17.2139C6.36194 17.2805 6.35207 17.3468 6.34117 17.4132C6.34005 17.42 6.3389 17.4269 6.33775 17.4337C6.35179 17.4919 6.36451 17.5497 6.36727 17.5896C6.36955 17.6226 6.35661 17.6453 6.34556 17.6647C6.33796 17.6782 6.33125 17.6901 6.33106 17.7027C6.33095 17.7094 6.33141 17.7188 6.33197 17.73C6.33422 17.7758 6.33853 17.8533 6.31402 17.9221C6.30313 17.9527 6.28352 17.9878 6.26494 18.0215C6.23837 18.0697 6.21395 18.115 6.21954 18.1388C6.22933 18.1806 6.21716 18.2273 6.20662 18.2687C6.19656 18.3082 6.18798 18.3429 6.20106 18.3632C6.2167 18.3874 6.20942 18.4073 6.19876 18.4371C6.19136 18.4577 6.18237 18.4832 6.17833 18.5179C6.17368 18.558 6.16182 18.5863 6.15178 18.6104C6.13765 18.6443 6.12712 18.67 6.14599 18.7083C6.16696 18.7509 6.18052 18.795 6.17408 18.83C6.17115 18.8459 6.17204 18.8641 6.17302 18.883C6.17432 18.908 6.17576 18.9343 6.16859 18.9585C6.16269 18.9784 6.14704 18.9951 6.1332 19.01C6.12889 19.0146 6.12477 19.019 6.12116 19.0233C6.12172 19.0392 6.12241 19.055 6.1233 19.0708C6.12594 19.0733 6.12886 19.0759 6.13187 19.0787C6.147 19.0924 6.16558 19.1092 6.17527 19.1303C6.1906 19.1638 6.18272 19.1937 6.17447 19.2255C6.16805 19.2502 6.16142 19.276 6.16551 19.305C6.1683 19.3248 6.17591 19.3471 6.18352 19.3692C6.19482 19.402 6.2061 19.4343 6.20144 19.4574C6.19968 19.4661 6.1901 19.474 6.18057 19.4819C6.18051 19.4819 6.18046 19.482 6.1804 19.482C6.17975 19.4825 6.17912 19.4831 6.17847 19.4836C6.18947 19.5388 6.20164 19.5938 6.21462 19.6486C6.21755 19.6532 6.22045 19.6578 6.22331 19.6625C6.23729 19.685 6.25095 19.7069 6.26897 19.7204C6.28851 19.735 6.30242 19.7745 6.31738 19.8159C6.32717 19.843 6.33739 19.871 6.34974 19.8934C6.35695 19.9065 6.34792 19.9204 6.33863 19.9348C6.32996 19.9483 6.32109 19.9621 6.32504 19.9759C6.32701 19.9827 6.33206 19.9899 6.33746 19.9975C6.34221 20.0041 6.34725 20.0112 6.35069 20.0188C6.35388 20.0258 6.35001 20.0427 6.34518 20.0643C6.3422 20.0777 6.33886 20.0929 6.33652 20.1088C6.34755 20.1487 6.35852 20.1886 6.36926 20.2285C6.37931 20.2358 6.39191 20.2417 6.40763 20.2456C6.41891 20.2484 6.43221 20.2503 6.44582 20.2522C6.46433 20.2549 6.48346 20.2576 6.49909 20.2627C6.51131 20.2667 6.51672 20.2726 6.51251 20.2775C6.51054 20.2798 6.50654 20.2819 6.50292 20.2838C6.49878 20.286 6.4951 20.2879 6.49544 20.2897C6.49569 20.2909 6.49895 20.2918 6.50289 20.293C6.50918 20.2948 6.51731 20.2971 6.51826 20.3022C6.52179 20.3211 6.52224 20.343 6.52272 20.3645C6.52326 20.3885 6.52389 20.4118 6.5288 20.4298C6.5343 20.45 6.52714 20.4809 6.52017 20.5119C6.5153 20.5336 6.51054 20.5553 6.51003 20.5734C6.50953 20.5911 6.51866 20.608 6.52759 20.6244C6.5383 20.6441 6.54868 20.6629 6.5415 20.6816C6.54004 20.6853 6.52841 20.6916 6.51386 20.6996C6.50355 20.7052 6.49177 20.7117 6.48108 20.7186C6.48472 20.7404 6.4879 20.7622 6.49073 20.7841C6.49254 20.7846 6.49437 20.7851 6.49625 20.7856C6.49629 20.7856 6.49633 20.7856 6.49638 20.7856C6.5387 20.7967 6.59653 20.8114 6.57068 20.8512C6.56412 20.8613 6.5501 20.8695 6.53749 20.8769C6.52511 20.8841 6.51403 20.8906 6.5127 20.8974C6.51119 20.9052 6.5209 20.9122 6.53146 20.9198C6.5463 20.9305 6.56289 20.9424 6.55272 20.9594C6.55203 20.9605 6.55126 20.9618 6.5505 20.9631C6.54331 20.9754 6.5327 20.9936 6.50837 21.0145C6.51 21.0621 6.51069 21.1101 6.51089 21.1583C6.51121 21.2386 6.51022 21.3196 6.51006 21.4006C6.50988 21.4401 6.48128 21.4846 6.42851 21.5252C6.37564 21.5658 6.30333 21.5992 6.22476 21.618C6.1462 21.6368 6.06659 21.6397 6.00092 21.6259C5.93532 21.6121 5.88957 21.5827 5.87195 21.5451C5.84338 21.4837 5.81523 21.4219 5.78867 21.3596C5.78632 21.3566 5.78401 21.3535 5.78181 21.3504C5.76544 21.3274 5.73832 21.3084 5.71121 21.2892C5.70498 21.2848 5.69874 21.2804 5.69265 21.276Z" fill="white"/>
<rect x="9.52539" y="12.9375" width="17.7915" height="4.57629" rx="0.811708" transform="rotate(20.3668 9.52539 12.9375)" fill="white"/>
</svg>
