<svg width="399" height="134" viewBox="0 0 399 134" fill="none" xmlns="http://www.w3.org/2000/svg">
<path d="M4.83594 76.0078C4.83594 62.753 15.5811 52.0078 28.8359 52.0078H370.162C383.417 52.0078 394.162 62.753 394.162 76.0078V123.525C394.162 125.734 392.371 127.525 390.162 127.525H8.83594C6.6268 127.525 4.83594 125.734 4.83594 123.525V76.0078Z" fill="#FFC31F"/>
<path d="M105.902 50.1074C113.065 49.9525 126.876 50.0158 134.473 50.0505C134.613 50.0511 134.752 50.0516 134.891 50.0522C136.694 50.0604 138.4 50.0626 140.398 50.0649C145.163 50.0705 151.601 50.078 165.038 50.1767C168.947 50.1731 172.858 50.1711 176.767 50.1711C218.987 50.1711 261.207 50.2999 303.427 50.4541C303.96 50.4533 304.503 50.4524 305.05 50.4516C315.64 50.4356 328.771 50.4159 337.021 50.4724C347.511 50.5442 354.635 50.6109 360.486 50.6684C363.712 50.6804 366.937 50.6922 370.162 50.7038C383.645 50.4274 395.705 62.5991 395.34 76.0078C395.293 91.8469 395.254 107.686 395.229 123.525C395.272 125.966 393.305 128.23 390.884 128.532C390.644 128.566 390.403 128.583 390.162 128.583C379.843 128.569 369.523 128.561 359.203 128.561C349.525 128.561 339.844 128.566 330.166 128.575C324.529 128.609 319.171 128.649 314.201 128.686C307.218 128.738 301.002 128.785 295.867 128.8C283.495 128.836 269.46 128.779 259.039 128.736C257.335 128.729 255.727 128.723 254.24 128.717C245.963 128.738 237.684 128.761 229.407 128.784C228.854 128.771 228.297 128.757 227.731 128.744C220.667 128.572 211.983 128.574 198.314 128.577C192.361 128.579 185.462 128.58 177.339 128.568C172.106 128.56 169.417 128.492 167.22 128.436C166.574 128.42 165.968 128.405 165.355 128.392C163.252 128.35 161.036 128.396 158.418 128.45C155.021 128.52 150.946 128.604 145.562 128.528C128.409 128.286 120.85 128.45 115.132 128.574C113.455 128.611 111.935 128.644 110.379 128.662C105.332 128.721 98.1416 128.662 92.7073 128.582C88.3983 128.518 79.7775 128.581 73.2395 128.662C70.7675 128.692 67.4242 128.693 63.4866 128.694C59.4118 128.695 54.6972 128.695 49.6536 128.73C36.908 128.816 30.1345 128.858 24.6892 128.891C23.1367 128.901 21.6908 128.91 20.2463 128.919C16.8991 128.94 12.9603 128.958 8.83594 128.976C6.78351 129.009 4.73822 127.733 3.86864 125.818C3.53465 125.103 3.36001 124.31 3.35873 123.525C3.33246 117.233 3.30517 110.98 3.26974 106.125C3.29965 96.086 3.33474 86.0465 3.37119 76.0078C3.37957 72.0844 4.30873 68.1653 6.07619 64.6655C9.41555 57.8771 15.8632 53.6223 20.858 52.3011C25.9156 50.9282 28.8597 51.6333 28.8359 51.8921C28.8495 52.2818 25.9574 52.2626 21.4261 53.9898C16.9319 55.6736 11.3647 59.7377 8.41759 65.8345C6.85604 68.9851 6.052 72.4924 6.06945 76.0078C6.1076 86.5244 6.14425 97.0419 6.17506 107.559C6.19066 112.881 6.20476 118.203 6.21682 123.525C6.18629 124.919 7.44977 126.171 8.83594 126.131C18.7361 126.112 28.6362 126.1 38.536 126.1C50.6495 126.1 62.7635 126.108 74.877 126.122C76.1241 126.124 77.3715 126.125 78.6186 126.127C88.7951 126.046 98.9522 125.972 106.108 125.946C112.017 125.924 116.325 125.967 120.014 126.004C122.553 126.03 124.799 126.052 127.072 126.049C128.293 126.047 129.96 126.042 131.971 126.036C140.181 126.011 154.126 125.969 166.847 126.049C172.492 126.084 179.049 126.153 185.31 126.219C194.261 126.313 202.609 126.402 206.823 126.375C214.223 126.327 222.709 126.367 230.208 126.403C237.361 126.437 243.617 126.466 247.175 126.412C251.426 126.346 255.051 126.373 260.441 126.412C264.18 126.44 268.768 126.473 275.003 126.487C282.202 126.502 287.295 126.548 291.624 126.587C297.717 126.642 302.301 126.684 309.133 126.608C316.723 126.523 324.655 126.469 330.902 126.496C333.747 126.508 337.002 126.505 340.389 126.502C344.872 126.498 349.588 126.494 353.893 126.524C357.442 126.549 360.374 126.613 362.969 126.67C363.779 126.687 364.556 126.704 365.308 126.719C368.134 126.718 370.96 126.717 373.786 126.715C374.244 126.705 374.725 126.693 375.227 126.682C377.746 126.623 380.844 126.55 384.679 126.514C386.568 126.496 388.386 126.488 390.162 126.485C391.769 126.515 393.162 125.085 393.136 123.525C393.144 121.783 393.156 120.044 393.168 118.276C393.198 113.902 393.228 109.35 393.217 104.132C393.21 100.574 393.184 96.523 393.158 92.5071C393.119 86.5425 393.081 80.6523 393.105 76.5597C393.107 76.3727 393.108 76.1888 393.11 76.0078C393.123 74.7584 393.065 73.6513 392.938 72.5598C392.938 72.5543 392.937 72.5488 392.937 72.5433C392.927 72.4593 392.916 72.3737 392.905 72.2893C391.448 62.7674 383.374 54.7594 373.888 53.3672C373.071 53.2444 372.242 53.1649 371.414 53.1305C370.996 53.1131 370.58 53.1071 370.162 53.1122C366.409 53.156 362.862 53.2005 360.462 53.261C357.56 53.3342 350.265 53.3768 342.577 53.4216C337.542 53.451 332.336 53.4814 328.087 53.522C325.603 53.5457 323.246 53.5043 320.822 53.4617C318.56 53.4219 316.237 53.381 313.698 53.3911C312.426 53.3962 311.053 53.4133 309.587 53.4317C308.296 53.4478 306.932 53.4649 305.503 53.4754C304.176 53.4851 301.22 53.4625 297.429 53.4339C295.087 53.4161 292.425 53.3961 289.632 53.3797C282.248 53.4054 274.863 53.4302 267.48 53.4531C265.939 53.4894 264.603 53.5365 263.545 53.5969C262.785 53.6403 262.139 53.6921 261.475 53.7451C260.572 53.8173 259.637 53.8918 258.349 53.9512C257.342 53.9976 256.154 54.0161 255.357 53.9969C254.985 53.9879 254.7 53.9709 254.441 53.9556C254.145 53.938 253.88 53.9224 253.557 53.9229C253.324 53.9232 253.081 53.9357 252.783 53.9507C252.307 53.9747 251.687 54.0058 250.745 54.0069C247.237 54.011 243.25 54.001 239.344 53.9912C235 53.9803 230.755 53.9698 227.373 53.979C223.584 53.9894 218.185 53.9433 212.776 53.8972C209.003 53.8651 205.225 53.8332 201.984 53.8201C198.807 53.8072 195.499 53.8328 192.296 53.8577C188.451 53.8876 184.753 53.9165 181.611 53.876C180.975 53.8678 180.186 53.8177 179.196 53.7551C178.494 53.7108 177.686 53.6601 176.767 53.6133C172.767 53.6133 168.765 53.6112 164.765 53.6074C164.624 53.6142 164.479 53.6211 164.333 53.6282C164.331 53.6284 164.329 53.6285 164.326 53.6287C161.04 53.7879 156.544 54.0057 150.227 53.8758C148.621 53.8427 147.611 53.7817 146.7 53.7268C145.805 53.6729 145.006 53.6247 143.836 53.6145C142.507 53.603 140.938 53.6361 139.227 53.6721C136.825 53.7227 134.142 53.7792 131.45 53.7266C131.267 53.723 131.069 53.7191 130.863 53.7151C128.912 53.6777 126.023 53.6224 123.148 53.511C114.62 53.4813 106.091 53.4465 97.5622 53.4085C83.3463 53.3451 69.1274 53.2729 54.9128 53.2007C47.9972 53.1652 41.3647 53.0135 36.4745 52.7708C31.584 52.5277 28.8359 52.2152 28.8359 51.8921C28.8363 51.569 31.5843 51.2567 36.4745 51.0136C41.3648 50.7709 47.9969 50.6192 54.9128 50.5837C66.1899 50.5264 77.4706 50.4691 88.749 50.4162C89.3402 50.4095 89.9338 50.403 90.5248 50.3969C94.9214 50.3517 99.0008 50.2607 103.083 50.1696C104.021 50.1487 104.96 50.1278 105.902 50.1074Z" fill="#C95700"/>
<path d="M35.377 127.525H8.83594C6.6268 127.525 4.83594 125.734 4.83594 123.524V85.5859L35.377 127.525ZM118.613 127.525H72.8516L19.2939 53.9805C22.2185 52.7118 25.4449 52.0078 28.8359 52.0078H63.6191L118.613 127.525ZM201.85 127.525H156.088L101.094 52.0078H146.855L201.85 127.525ZM285.086 127.525H239.324L184.33 52.0078H230.092L285.086 127.525ZM368.322 127.525H322.561L267.566 52.0078H313.328L368.322 127.525ZM370.162 52.0078C383.417 52.0078 394.162 62.753 394.162 76.0078V111.548L350.803 52.0078H370.162Z" fill="#FF6940"/>
<rect x="4.83594" y="81.8281" width="389.326" height="27.0581" fill="white"/>
<path d="M105.902 50.1074C113.065 49.9525 126.876 50.0158 134.473 50.0505C134.613 50.0511 134.752 50.0516 134.891 50.0522C136.694 50.0604 138.4 50.0626 140.398 50.0649C145.163 50.0705 151.601 50.078 165.038 50.1767C168.947 50.1731 172.858 50.1711 176.767 50.1711C218.987 50.1711 261.207 50.2999 303.427 50.4541C303.96 50.4533 304.503 50.4524 305.05 50.4516C315.64 50.4356 328.771 50.4159 337.021 50.4724C347.511 50.5442 354.635 50.6109 360.486 50.6684C363.712 50.6804 366.937 50.6922 370.162 50.7038C383.645 50.4274 395.705 62.5991 395.34 76.0078C395.293 91.8469 395.254 107.686 395.229 123.525C395.272 125.966 393.305 128.23 390.884 128.532C390.644 128.566 390.403 128.583 390.162 128.583C379.843 128.569 369.523 128.561 359.203 128.561C349.525 128.561 339.844 128.566 330.166 128.575C324.529 128.609 319.171 128.649 314.201 128.686C307.218 128.738 301.002 128.785 295.867 128.8C283.495 128.836 269.46 128.779 259.039 128.736C257.335 128.729 255.727 128.723 254.24 128.717C245.963 128.738 237.684 128.761 229.407 128.784C228.854 128.771 228.297 128.757 227.731 128.744C220.667 128.572 211.983 128.574 198.314 128.577C192.361 128.579 185.462 128.58 177.339 128.568C172.106 128.56 169.417 128.492 167.22 128.436C166.574 128.42 165.968 128.405 165.355 128.392C163.252 128.35 161.036 128.396 158.418 128.45C155.021 128.52 150.946 128.604 145.562 128.528C128.409 128.286 120.85 128.45 115.132 128.574C113.455 128.611 111.935 128.644 110.379 128.662C105.332 128.721 98.1416 128.662 92.7073 128.582C88.3983 128.518 79.7775 128.581 73.2395 128.662C70.7675 128.692 67.4242 128.693 63.4866 128.694C59.4118 128.695 54.6972 128.695 49.6536 128.73C36.908 128.816 30.1345 128.858 24.6892 128.891C23.1367 128.901 21.6908 128.91 20.2463 128.919C16.8991 128.94 12.9603 128.958 8.83594 128.976C6.78351 129.009 4.73822 127.733 3.86864 125.818C3.53465 125.103 3.36001 124.31 3.35873 123.525C3.33246 117.233 3.30517 110.98 3.26974 106.125C3.29965 96.086 3.33474 86.0465 3.37119 76.0078C3.37957 72.0844 4.30873 68.1653 6.07619 64.6655C9.41555 57.8771 15.8632 53.6223 20.858 52.3011C25.9156 50.9282 28.8597 51.6333 28.8359 51.8921C28.8495 52.2818 25.9574 52.2626 21.4261 53.9898C16.9319 55.6736 11.3647 59.7377 8.41759 65.8345C6.85604 68.9851 6.052 72.4924 6.06945 76.0078C6.1076 86.5244 6.14425 97.0419 6.17506 107.559C6.19066 112.881 6.20476 118.203 6.21682 123.525C6.18629 124.919 7.44977 126.171 8.83594 126.131C18.7361 126.112 28.6362 126.1 38.536 126.1C50.6495 126.1 62.7635 126.108 74.877 126.122C76.1241 126.124 77.3715 126.125 78.6186 126.127C88.7951 126.046 98.9522 125.972 106.108 125.946C112.017 125.924 116.325 125.967 120.014 126.004C122.553 126.03 124.799 126.052 127.072 126.049C128.293 126.047 129.96 126.042 131.971 126.036C140.181 126.011 154.126 125.969 166.847 126.049C172.492 126.084 179.049 126.153 185.31 126.219C194.261 126.313 202.609 126.402 206.823 126.375C214.223 126.327 222.709 126.367 230.208 126.403C237.361 126.437 243.617 126.466 247.175 126.412C251.426 126.346 255.051 126.373 260.441 126.412C264.18 126.44 268.768 126.473 275.003 126.487C282.202 126.502 287.295 126.548 291.624 126.587C297.717 126.642 302.301 126.684 309.133 126.608C316.723 126.523 324.655 126.469 330.902 126.496C333.747 126.508 337.002 126.505 340.389 126.502C344.872 126.498 349.588 126.494 353.893 126.524C357.442 126.549 360.374 126.613 362.969 126.67C363.779 126.687 364.556 126.704 365.308 126.719C368.134 126.718 370.96 126.717 373.786 126.715C374.244 126.705 374.725 126.693 375.227 126.682C377.746 126.623 380.844 126.55 384.679 126.514C386.568 126.496 388.386 126.488 390.162 126.485C391.769 126.515 393.162 125.085 393.136 123.525C393.144 121.783 393.156 120.044 393.168 118.276C393.198 113.902 393.228 109.35 393.217 104.132C393.21 100.574 393.184 96.523 393.158 92.5071C393.119 86.5425 393.081 80.6523 393.105 76.5597C393.107 76.3727 393.108 76.1888 393.11 76.0078C393.123 74.7584 393.065 73.6513 392.938 72.5598C392.938 72.5543 392.937 72.5488 392.937 72.5433C392.927 72.4593 392.916 72.3737 392.905 72.2893C391.448 62.7674 383.374 54.7594 373.888 53.3672C373.071 53.2444 372.242 53.1649 371.414 53.1305C370.996 53.1131 370.58 53.1071 370.162 53.1122C366.409 53.156 362.862 53.2005 360.462 53.261C357.56 53.3342 350.265 53.3768 342.577 53.4216C337.542 53.451 332.336 53.4814 328.087 53.522C325.603 53.5457 323.246 53.5043 320.822 53.4617C318.56 53.4219 316.237 53.381 313.698 53.3911C312.426 53.3962 311.053 53.4133 309.587 53.4317C308.296 53.4478 306.932 53.4649 305.503 53.4754C304.176 53.4851 301.22 53.4625 297.429 53.4339C295.087 53.4161 292.425 53.3961 289.632 53.3797C282.248 53.4054 274.863 53.4302 267.48 53.4531C265.939 53.4894 264.603 53.5365 263.545 53.5969C262.785 53.6403 262.139 53.6921 261.475 53.7451C260.572 53.8173 259.637 53.8918 258.349 53.9512C257.342 53.9976 256.154 54.0161 255.357 53.9969C254.985 53.9879 254.7 53.9709 254.441 53.9556C254.145 53.938 253.88 53.9224 253.557 53.9229C253.324 53.9232 253.081 53.9357 252.783 53.9507C252.307 53.9747 251.687 54.0058 250.745 54.0069C247.237 54.011 243.25 54.001 239.344 53.9912C235 53.9803 230.755 53.9698 227.373 53.979C223.584 53.9894 218.185 53.9433 212.776 53.8972C209.003 53.8651 205.225 53.8332 201.984 53.8201C198.807 53.8072 195.499 53.8328 192.296 53.8577C188.451 53.8876 184.753 53.9165 181.611 53.876C180.975 53.8678 180.186 53.8177 179.196 53.7551C178.494 53.7108 177.686 53.6601 176.767 53.6133C172.767 53.6133 168.765 53.6112 164.765 53.6074C164.624 53.6142 164.479 53.6211 164.333 53.6282C164.331 53.6284 164.329 53.6285 164.326 53.6287C161.04 53.7879 156.544 54.0057 150.227 53.8758C148.621 53.8427 147.611 53.7817 146.7 53.7268C145.805 53.6729 145.006 53.6247 143.836 53.6145C142.507 53.603 140.938 53.6361 139.227 53.6721C136.825 53.7227 134.142 53.7792 131.45 53.7266C131.267 53.723 131.069 53.7191 130.863 53.7151C128.912 53.6777 126.023 53.6224 123.148 53.511C114.62 53.4813 106.091 53.4465 97.5622 53.4085C83.3463 53.3451 69.1274 53.2729 54.9128 53.2007C47.9972 53.1652 41.3647 53.0135 36.4745 52.7708C31.584 52.5277 28.8359 52.2152 28.8359 51.8921C28.8363 51.569 31.5843 51.2567 36.4745 51.0136C41.3648 50.7709 47.9969 50.6192 54.9128 50.5837C66.1899 50.5264 77.4706 50.4691 88.749 50.4162C89.3402 50.4095 89.9338 50.403 90.5248 50.3969C94.9214 50.3517 99.0008 50.2607 103.083 50.1696C104.021 50.1487 104.96 50.1278 105.902 50.1074Z" fill="#C95700"/>
<path d="M67.2041 11.7255C67.3439 10.3612 68.1761 9.16495 69.4659 8.69882C71.9725 7.79294 76.6206 6.47461 82.4421 6.47461C88.2594 6.47461 92.9048 7.79097 95.4128 8.69678C96.7058 9.16378 97.5388 10.3641 97.6757 11.732L101.266 47.6089C101.502 49.9637 99.653 52.0072 97.2864 52.0072H67.5088C65.1384 52.0072 63.2881 49.9576 63.5296 47.5997L67.2041 11.7255Z" fill="#FF6940"/>
<path d="M100.835 24.2184C101.107 25.3811 101.272 27.659 101.362 28.912C101.364 28.935 101.366 28.958 101.367 28.981C101.389 29.2784 101.415 29.5591 101.445 29.888C101.518 30.6723 101.617 31.7319 101.74 33.9518C101.808 34.5945 101.874 35.2374 101.939 35.8804C102.324 39.7289 102.67 43.5814 102.993 47.436C103.37 50.6857 100.478 53.7579 97.2864 53.6181C96.4028 53.5996 95.5192 53.5805 94.6356 53.561C94.5475 53.5618 94.4578 53.5626 94.3672 53.5634C92.6168 53.5794 90.4463 53.5992 89.0825 53.5427C87.3486 53.4708 86.1709 53.4042 85.2037 53.3466C79.6605 53.2226 74.1172 53.1117 68.574 53.0659C68.2189 53.0629 67.8639 53.0603 67.5088 53.0579C65.7591 53.0666 64.0498 52.0773 63.174 50.5726C62.6264 49.6562 62.3847 48.5529 62.4945 47.4936C62.5688 46.7457 62.642 45.9976 62.7142 45.2496C62.7756 44.3193 62.8261 43.434 62.8729 42.6131C62.9386 41.4595 62.9973 40.4325 63.0687 39.5866C63.2409 37.5484 63.5345 35.2465 63.7524 33.5371C63.7881 33.2577 63.8217 32.9939 63.8525 32.7499C63.9708 31.3867 64.0878 30.023 64.2042 28.6596C64.2263 28.57 64.249 28.4798 64.2722 28.3881C64.562 27.244 64.7061 25.8158 64.9331 23.5677C65.032 22.5887 65.1467 21.454 65.2959 20.1197C65.392 19.2599 65.505 18.8247 65.5972 18.4691C65.6243 18.3645 65.6497 18.2664 65.6723 18.1668C65.7498 17.8254 65.7417 17.4563 65.7321 17.0202C65.7197 16.4546 65.7047 15.7759 65.8709 14.8984C66.1435 13.4594 66.2663 12.4274 66.3175 11.6347C66.3894 10.7207 66.6086 10.0729 66.8661 9.53749C67.0253 9.21471 67.2083 8.93282 67.4374 8.67621C67.8117 8.25183 68.4058 7.83654 69.0755 7.61866C69.5703 7.45838 70.0882 7.3223 70.5318 7.22513C71.2487 7.06225 72.6413 6.60982 73.7108 6.29625C74.1157 6.17532 74.6716 6.05812 75.332 5.93926C76.0144 5.81632 76.8053 5.69274 77.6558 5.55659C79.8031 5.22142 80.9646 5.16474 81.8961 5.11185C82.0839 5.10249 82.2638 5.09495 82.4421 5.08857C82.5144 5.08598 82.5861 5.08359 82.6575 5.08135C83.4403 5.05627 84.4092 5.06399 85.3941 5.113C86.5685 5.169 87.7627 5.28692 88.666 5.38882C90.9942 5.79164 93.2789 6.39525 95.5012 7.21738C95.6312 7.26572 95.7664 7.31853 95.8918 7.3705C97.2729 7.90523 98.0867 9.15255 98.2546 10.0723C98.4576 11.1418 98.1023 11.6976 97.7908 11.7205C97.4571 11.7531 97.1301 11.3115 96.6371 10.8197C96.2013 10.3798 95.6471 9.97751 95.0123 9.80559C94.8927 9.76904 94.765 9.7288 94.643 9.68968C92.4839 8.99797 90.2472 8.51901 87.9965 8.22584C86.1527 7.98657 84.2967 7.87485 82.4421 7.88883C81.5357 7.89572 80.635 7.93239 79.7307 7.99798C77.8056 8.13791 75.8919 8.41636 74.005 8.83343C73.8132 8.87583 73.6164 8.92086 73.4246 8.96639C72.1769 9.33849 70.9563 9.77881 69.9956 10.1645C69.8631 10.2216 69.749 10.2887 69.6497 10.3593C69.2406 10.6563 69.001 10.9959 68.8406 11.3268C68.7552 11.508 68.698 11.6899 68.6737 11.876C68.6644 11.9542 68.656 12.0322 68.6487 12.1105C68.6301 12.3114 68.607 12.5861 68.5791 12.9174C68.4652 14.27 68.2718 16.5673 67.9788 18.6511C67.8488 19.5757 67.6695 20.647 67.4983 21.6697C67.2535 23.132 67.0253 24.4957 66.9813 25.1914C66.9039 26.4131 66.7209 27.8045 66.5592 29.034C66.4049 30.2068 66.27 31.2324 66.2647 31.8231C66.2583 32.5288 66.1707 33.1222 66.0405 34.0045C65.9502 34.6164 65.8396 35.3675 65.7211 36.3915C65.5844 37.5737 65.4529 38.4065 65.3411 39.1144C65.1838 40.1106 65.0655 40.8602 65.0261 41.9915C64.9823 43.2481 64.9022 44.5579 64.7704 45.5824C64.7104 46.0491 64.6585 46.5846 64.6045 47.1418C64.5866 47.3274 64.5684 47.5154 64.5495 47.7041C64.5069 48.1261 64.5525 48.5504 64.6552 48.9357C64.7682 49.3594 64.9117 49.7107 65.0826 50.0082C65.1362 50.1007 65.1927 50.1875 65.2527 50.2683C65.5176 50.532 65.8288 50.7484 66.1669 50.9031C66.2259 50.9192 66.2881 50.9336 66.3534 50.9466C66.6694 51.009 67.0532 51.0369 67.5088 51.0003C67.53 50.999 67.5514 50.9977 67.5729 50.9965C68.5762 50.9394 69.4567 50.9751 70.3855 51.0131C71.1086 51.0426 71.8609 51.0735 72.7234 51.0624C73.3116 51.0549 73.9813 51.0287 74.6451 51.0028C75.631 50.9644 76.6047 50.9265 77.2812 50.9506C77.5347 50.9596 77.7526 50.9998 77.9682 51.0397C77.9691 51.0399 77.9701 51.0402 77.9711 51.0404C77.9857 51.0431 78.0004 51.0458 78.015 51.0485C79.6625 51.0179 81.3102 50.9842 82.9577 50.9486C83.1005 50.9383 83.2447 50.9281 83.3877 50.9181C84.0863 50.8692 84.7651 50.8216 85.2077 50.754C85.6874 50.6808 86.8933 50.6383 88.1642 50.5934C88.9964 50.564 89.8569 50.5337 90.5593 50.4931C90.9699 50.4693 91.3595 50.5107 91.7603 50.5534C92.1342 50.5932 92.5181 50.634 92.9378 50.6239C93.148 50.6189 93.3751 50.6017 93.6174 50.5834C93.8307 50.5673 94.0563 50.5502 94.2924 50.5397C94.5118 50.53 95.0004 50.5525 95.627 50.5812C96.0142 50.5989 96.4542 50.6189 96.9159 50.6354C97.0394 50.6328 97.1629 50.6302 97.2864 50.6276C98.0137 50.6076 98.6943 50.2786 99.1589 49.745C99.2435 49.6005 99.2888 49.4596 99.297 49.3382C99.3028 49.251 99.2904 49.1701 99.2739 49.0902C99.251 48.9814 99.2207 48.8741 99.2052 48.7511C99.1932 48.655 99.2033 48.5587 99.2377 48.4999C99.2538 48.4725 99.2755 48.4531 99.295 48.435C99.3173 48.4144 99.337 48.395 99.3413 48.3676C99.3444 48.3479 99.3354 48.3255 99.324 48.2985C99.3057 48.255 99.2814 48.2015 99.2847 48.1238C99.2888 48.0238 99.2873 47.9185 99.2775 47.8079C99.2394 47.4015 99.2032 46.9745 99.1675 46.5533C99.1068 45.8379 99.0475 45.1385 98.9826 44.5832C98.9099 43.961 98.8669 43.0683 98.8237 42.1742C98.7935 41.5505 98.7631 40.9258 98.7228 40.3914C98.6832 39.8676 98.6034 39.3261 98.5259 38.8018C98.4328 38.1724 98.3432 37.567 98.3318 37.046C98.3295 36.9407 98.3663 36.8059 98.4122 36.6368C98.4448 36.517 98.482 36.3791 98.5134 36.2232C98.4476 35.5652 98.3837 34.9069 98.3217 34.2486C98.3126 34.2261 98.3033 34.2029 98.2939 34.1796C98.2937 34.1792 98.2935 34.1789 98.2933 34.1785C98.0808 33.6539 97.7901 32.9361 97.8154 31.8842C97.8218 31.6167 97.8658 31.4444 97.9055 31.2892C97.9444 31.1367 97.9793 31.0004 97.9701 30.8069C97.9596 30.5872 97.9009 30.3324 97.8369 30.0546C97.747 29.6646 97.6467 29.229 97.6547 28.7809C97.6552 28.7503 97.6559 28.7174 97.6564 28.6832C97.6615 28.3585 97.669 27.8779 97.7325 27.394C97.6217 25.9883 97.5159 24.5819 97.4134 23.1754C97.2424 20.8309 97.0802 18.485 96.918 16.1398C96.8395 14.9988 96.8812 13.8928 97.0423 13.0643C97.2037 12.2357 97.4693 11.7526 97.7908 11.7205C98.1124 11.6883 98.4683 12.1092 98.7907 12.8894C99.1127 13.6695 99.3728 14.7452 99.522 15.8792C99.7646 17.7283 100.007 19.5781 100.246 21.4278C100.262 21.5244 100.278 21.6214 100.294 21.718C100.412 22.4366 100.569 23.0985 100.727 23.7609C100.763 23.913 100.8 24.0655 100.835 24.2184Z" fill="#C95700"/>
<path d="M300.911 11.7255C301.051 10.3612 301.883 9.16495 303.173 8.69882C305.68 7.79294 310.328 6.47461 316.149 6.47461C321.966 6.47461 326.612 7.79097 329.12 8.69678C330.413 9.16378 331.246 10.3641 331.383 11.732L334.974 47.6089C335.209 49.9637 333.36 52.0072 330.993 52.0072H301.216C298.845 52.0072 296.995 49.9576 297.237 47.5997L300.911 11.7255Z" fill="#FF6940"/>
<path d="M334.542 24.2184C334.814 25.3811 334.979 27.659 335.069 28.912C335.071 28.935 335.073 28.958 335.074 28.981C335.096 29.2784 335.122 29.5591 335.153 29.888C335.225 30.6723 335.324 31.7319 335.447 33.9518C335.515 34.5945 335.581 35.2374 335.646 35.8804C336.031 39.7289 336.377 43.5814 336.701 47.436C337.077 50.6857 334.185 53.7579 330.993 53.6181C330.11 53.5996 329.226 53.5805 328.343 53.561C328.254 53.5618 328.165 53.5626 328.074 53.5634C326.324 53.5794 324.153 53.5992 322.79 53.5427C321.056 53.4708 319.878 53.4042 318.911 53.3466C313.368 53.2226 307.824 53.1117 302.281 53.0659C301.926 53.0629 301.571 53.0603 301.216 53.0579C299.466 53.0666 297.757 52.0773 296.881 50.5726C296.333 49.6562 296.092 48.5529 296.202 47.4936C296.276 46.7457 296.349 45.9976 296.421 45.2496C296.483 44.3193 296.533 43.434 296.58 42.6131C296.646 41.4595 296.704 40.4325 296.776 39.5866C296.948 37.5484 297.241 35.2465 297.459 33.5371C297.495 33.2577 297.529 32.9939 297.559 32.7499C297.678 31.3867 297.795 30.023 297.911 28.6596C297.933 28.57 297.956 28.4798 297.979 28.3881C298.269 27.244 298.413 25.8158 298.64 23.5677C298.739 22.5887 298.854 21.454 299.003 20.1197C299.099 19.2599 299.212 18.8247 299.304 18.4691C299.331 18.3645 299.357 18.2664 299.379 18.1668C299.457 17.8254 299.449 17.4563 299.439 17.0202C299.427 16.4546 299.412 15.7759 299.578 14.8984C299.851 13.4594 299.973 12.4274 300.025 11.6347C300.096 10.7207 300.316 10.0729 300.573 9.53749C300.732 9.21471 300.915 8.93282 301.144 8.67621C301.519 8.25183 302.113 7.83654 302.783 7.61866C303.277 7.45838 303.795 7.3223 304.239 7.22513C304.956 7.06225 306.348 6.60982 307.418 6.29625C307.823 6.17532 308.379 6.05812 309.039 5.93926C309.721 5.81632 310.512 5.69274 311.363 5.55659C313.51 5.22142 314.672 5.16474 315.603 5.11185C315.791 5.10249 315.971 5.09495 316.149 5.08857C316.221 5.08598 316.293 5.08359 316.365 5.08135C317.147 5.05627 318.116 5.06399 319.101 5.113C320.275 5.169 321.47 5.28692 322.373 5.38882C324.701 5.79164 326.986 6.39525 329.208 7.21738C329.338 7.26572 329.473 7.31853 329.599 7.3705C330.98 7.90523 331.794 9.15255 331.962 10.0723C332.165 11.1418 331.809 11.6976 331.498 11.7205C331.164 11.7531 330.837 11.3115 330.344 10.8197C329.908 10.3798 329.354 9.97751 328.719 9.80559C328.6 9.76904 328.472 9.7288 328.35 9.68968C326.191 8.99797 323.954 8.51901 321.704 8.22584C319.86 7.98657 318.004 7.87485 316.149 7.88883C315.243 7.89572 314.342 7.93239 313.438 7.99798C311.513 8.13791 309.599 8.41636 307.712 8.83343C307.52 8.87583 307.323 8.92086 307.132 8.96639C305.884 9.33849 304.663 9.77881 303.703 10.1645C303.57 10.2216 303.456 10.2887 303.357 10.3593C302.948 10.6563 302.708 10.9959 302.548 11.3268C302.462 11.508 302.405 11.6899 302.381 11.876C302.371 11.9542 302.363 12.0322 302.356 12.1105C302.337 12.3114 302.314 12.5861 302.286 12.9174C302.172 14.27 301.979 16.5673 301.686 18.6511C301.556 19.5757 301.377 20.647 301.205 21.6697C300.961 23.132 300.732 24.4957 300.688 25.1914C300.611 26.4131 300.428 27.8045 300.266 29.034C300.112 30.2068 299.977 31.2324 299.972 31.8231C299.965 32.5288 299.878 33.1222 299.748 34.0045C299.657 34.6164 299.547 35.3675 299.428 36.3915C299.291 37.5737 299.16 38.4065 299.048 39.1144C298.891 40.1106 298.773 40.8602 298.733 41.9915C298.689 43.2481 298.609 44.5579 298.477 45.5824C298.417 46.0491 298.366 46.5846 298.312 47.1418C298.294 47.3274 298.275 47.5154 298.257 47.7041C298.214 48.1261 298.26 48.5504 298.362 48.9357C298.475 49.3594 298.619 49.7107 298.79 50.0082C298.843 50.1007 298.9 50.1875 298.96 50.2683C299.225 50.532 299.536 50.7484 299.874 50.9031C299.933 50.9192 299.995 50.9336 300.06 50.9466C300.376 51.009 300.76 51.0369 301.216 51.0003C301.237 50.999 301.258 50.9977 301.28 50.9965C302.283 50.9394 303.164 50.9751 304.092 51.0131C304.816 51.0426 305.568 51.0735 306.43 51.0624C307.019 51.0549 307.688 51.0287 308.352 51.0028C309.338 50.9644 310.312 50.9265 310.988 50.9506C311.242 50.9596 311.46 50.9998 311.675 51.0397C311.676 51.0399 311.677 51.0402 311.678 51.0404C311.693 51.0431 311.707 51.0458 311.722 51.0485C313.37 51.0179 315.017 50.9842 316.665 50.9486C316.807 50.9383 316.952 50.9281 317.095 50.9181C317.793 50.8692 318.472 50.8216 318.915 50.754C319.394 50.6808 320.6 50.6383 321.871 50.5934C322.703 50.564 323.564 50.5337 324.266 50.4931C324.677 50.4693 325.067 50.5107 325.467 50.5534C325.841 50.5932 326.225 50.634 326.645 50.6239C326.855 50.6189 327.082 50.6017 327.324 50.5834C327.538 50.5673 327.763 50.5502 327.999 50.5397C328.219 50.53 328.707 50.5525 329.334 50.5812C329.721 50.5989 330.161 50.6189 330.623 50.6354C330.746 50.6328 330.87 50.6302 330.993 50.6276C331.721 50.6076 332.401 50.2786 332.866 49.745C332.951 49.6005 332.996 49.4596 333.004 49.3382C333.01 49.251 332.997 49.1701 332.981 49.0902C332.958 48.9814 332.928 48.8741 332.912 48.7511C332.9 48.655 332.91 48.5587 332.945 48.4999C332.961 48.4725 332.983 48.4531 333.002 48.435C333.024 48.4144 333.044 48.395 333.048 48.3676C333.051 48.3479 333.042 48.3255 333.031 48.2985C333.013 48.255 332.988 48.2015 332.992 48.1238C332.996 48.0238 332.994 47.9185 332.985 47.8079C332.946 47.4015 332.91 46.9745 332.875 46.5533C332.814 45.8379 332.754 45.1385 332.69 44.5832C332.617 43.961 332.574 43.0683 332.531 42.1742C332.501 41.5505 332.47 40.9258 332.43 40.3914C332.39 39.8676 332.31 39.3261 332.233 38.8018C332.14 38.1724 332.05 37.567 332.039 37.046C332.036 36.9407 332.073 36.8059 332.119 36.6368C332.152 36.517 332.189 36.3791 332.22 36.2232C332.155 35.5652 332.091 34.9069 332.029 34.2486C332.02 34.2261 332.01 34.2029 332.001 34.1796C332.001 34.1792 332.001 34.1789 332 34.1785C331.788 33.6539 331.497 32.9361 331.522 31.8842C331.529 31.6167 331.573 31.4444 331.613 31.2892C331.651 31.1367 331.686 31.0004 331.677 30.8069C331.667 30.5872 331.608 30.3324 331.544 30.0546C331.454 29.6646 331.354 29.229 331.362 28.7809C331.362 28.7503 331.363 28.7174 331.363 28.6832C331.369 28.3585 331.376 27.8779 331.44 27.394C331.329 25.9883 331.223 24.5819 331.12 23.1754C330.949 20.8309 330.787 18.485 330.625 16.1398C330.547 14.9988 330.588 13.8928 330.749 13.0643C330.911 12.2357 331.176 11.7526 331.498 11.7205C331.819 11.6883 332.175 12.1092 332.498 12.8894C332.82 13.6695 333.08 14.7452 333.229 15.8792C333.472 17.7283 333.714 19.5781 333.953 21.4278C333.969 21.5244 333.985 21.6214 334.001 21.718C334.119 22.4366 334.276 23.0985 334.434 23.7609C334.47 23.913 334.507 24.0655 334.542 24.2184Z" fill="#C95700"/>
<path d="M83.8125 6.49512C89.4226 6.55944 93.8968 7.82822 96.3408 8.71094C97.6336 9.178 98.4666 10.3783 98.6035 11.7461L102.194 47.623C102.43 49.9779 100.58 52.0215 98.2139 52.0215H84.457C86.5787 50.9739 88.7022 49.5019 89.4287 47.71C90.9654 43.9195 90.672 21.2533 90.876 14.1846C91.0389 8.53013 86.9659 7.80279 83.5273 7.80273L83.8125 6.49512Z" fill="#EB5025"/>
<path d="M317.52 6.49512C323.13 6.55944 327.604 7.82822 330.048 8.71094C331.341 9.178 332.174 10.3783 332.311 11.7461L335.901 47.623C336.137 49.9779 334.288 52.0215 331.921 52.0215H318.164C320.286 50.9739 322.409 49.5019 323.136 47.71C324.672 43.9195 324.379 21.2533 324.583 14.1846C324.746 8.53013 320.673 7.80279 317.234 7.80273L317.52 6.49512Z" fill="#EB5025"/>
<path d="M100.835 24.2184C101.107 25.3811 101.272 27.659 101.362 28.912C101.364 28.935 101.366 28.958 101.367 28.981C101.389 29.2784 101.415 29.5591 101.445 29.888C101.518 30.6723 101.617 31.7319 101.74 33.9518C101.808 34.5945 101.874 35.2374 101.939 35.8804C102.324 39.7289 102.67 43.5814 102.993 47.436C103.37 50.6857 100.478 53.7579 97.2864 53.6181C96.4028 53.5996 95.5192 53.5805 94.6356 53.561C94.5475 53.5618 94.4578 53.5626 94.3672 53.5634C92.6168 53.5794 90.4463 53.5992 89.0825 53.5427C87.3486 53.4708 86.1709 53.4042 85.2037 53.3466C79.6605 53.2226 74.1172 53.1117 68.574 53.0659C68.2189 53.0629 67.8639 53.0603 67.5088 53.0579C65.7591 53.0666 64.0498 52.0773 63.174 50.5726C62.6264 49.6562 62.3847 48.5529 62.4945 47.4936C62.5688 46.7457 62.642 45.9976 62.7142 45.2496C62.7756 44.3193 62.8261 43.434 62.8729 42.6131C62.9386 41.4595 62.9973 40.4325 63.0687 39.5866C63.2409 37.5484 63.5345 35.2465 63.7524 33.5371C63.7881 33.2577 63.8217 32.9939 63.8525 32.7499C63.9708 31.3867 64.0878 30.023 64.2042 28.6596C64.2263 28.57 64.249 28.4798 64.2722 28.3881C64.562 27.244 64.7061 25.8158 64.9331 23.5677C65.032 22.5887 65.1467 21.454 65.2959 20.1197C65.392 19.2599 65.505 18.8247 65.5972 18.4691C65.6243 18.3645 65.6497 18.2664 65.6723 18.1668C65.7498 17.8254 65.7417 17.4563 65.7321 17.0202C65.7197 16.4546 65.7047 15.7759 65.8709 14.8984C66.1435 13.4594 66.2663 12.4274 66.3175 11.6347C66.3894 10.7207 66.6086 10.0729 66.8661 9.53749C67.0253 9.21471 67.2083 8.93282 67.4374 8.67621C67.8117 8.25183 68.4058 7.83654 69.0755 7.61866C69.5703 7.45838 70.0882 7.3223 70.5318 7.22513C71.2487 7.06225 72.6413 6.60982 73.7108 6.29625C74.1157 6.17532 74.6716 6.05812 75.332 5.93926C76.0144 5.81632 76.8053 5.69274 77.6558 5.55659C79.8031 5.22142 80.9646 5.16474 81.8961 5.11185C82.0839 5.10249 82.2638 5.09495 82.4421 5.08857C82.5144 5.08598 82.5861 5.08359 82.6575 5.08135C83.4403 5.05627 84.4092 5.06399 85.3941 5.113C86.5685 5.169 87.7627 5.28692 88.666 5.38882C90.9942 5.79164 93.2789 6.39525 95.5012 7.21738C95.6312 7.26572 95.7664 7.31853 95.8918 7.3705C97.2729 7.90523 98.0867 9.15255 98.2546 10.0723C98.4576 11.1418 98.1023 11.6976 97.7908 11.7205C97.4571 11.7531 97.1301 11.3115 96.6371 10.8197C96.2013 10.3798 95.6471 9.97751 95.0123 9.80559C94.8927 9.76904 94.765 9.7288 94.643 9.68968C92.4839 8.99797 90.2472 8.51901 87.9965 8.22584C86.1527 7.98657 84.2967 7.87485 82.4421 7.88883C81.5357 7.89572 80.635 7.93239 79.7307 7.99798C77.8056 8.13791 75.8919 8.41636 74.005 8.83343C73.8132 8.87583 73.6164 8.92086 73.4246 8.96639C72.1769 9.33849 70.9563 9.77881 69.9956 10.1645C69.8631 10.2216 69.749 10.2887 69.6497 10.3593C69.2406 10.6563 69.001 10.9959 68.8406 11.3268C68.7552 11.508 68.698 11.6899 68.6737 11.876C68.6644 11.9542 68.656 12.0322 68.6487 12.1105C68.6301 12.3114 68.607 12.5861 68.5791 12.9174C68.4652 14.27 68.2718 16.5673 67.9788 18.6511C67.8488 19.5757 67.6695 20.647 67.4983 21.6697C67.2535 23.132 67.0253 24.4957 66.9813 25.1914C66.9039 26.4131 66.7209 27.8045 66.5592 29.034C66.4049 30.2068 66.27 31.2324 66.2647 31.8231C66.2583 32.5288 66.1707 33.1222 66.0405 34.0045C65.9502 34.6164 65.8396 35.3675 65.7211 36.3915C65.5844 37.5737 65.4529 38.4065 65.3411 39.1144C65.1838 40.1106 65.0655 40.8602 65.0261 41.9915C64.9823 43.2481 64.9022 44.5579 64.7704 45.5824C64.7104 46.0491 64.6585 46.5846 64.6045 47.1418C64.5866 47.3274 64.5684 47.5154 64.5495 47.7041C64.5069 48.1261 64.5525 48.5504 64.6552 48.9357C64.7682 49.3594 64.9117 49.7107 65.0826 50.0082C65.1362 50.1007 65.1927 50.1875 65.2527 50.2683C65.5176 50.532 65.8288 50.7484 66.1669 50.9031C66.2259 50.9192 66.2881 50.9336 66.3534 50.9466C66.6694 51.009 67.0532 51.0369 67.5088 51.0003C67.53 50.999 67.5514 50.9977 67.5729 50.9965C68.5762 50.9394 69.4567 50.9751 70.3855 51.0131C71.1086 51.0426 71.8609 51.0735 72.7234 51.0624C73.3116 51.0549 73.9813 51.0287 74.6451 51.0028C75.631 50.9644 76.6047 50.9265 77.2812 50.9506C77.5347 50.9596 77.7526 50.9998 77.9682 51.0397C77.9691 51.0399 77.9701 51.0402 77.9711 51.0404C77.9857 51.0431 78.0004 51.0458 78.015 51.0485C79.6625 51.0179 81.3102 50.9842 82.9577 50.9486C83.1005 50.9383 83.2447 50.9281 83.3877 50.9181C84.0863 50.8692 84.7651 50.8216 85.2077 50.754C85.6874 50.6808 86.8933 50.6383 88.1642 50.5934C88.9964 50.564 89.8569 50.5337 90.5593 50.4931C90.9699 50.4693 91.3595 50.5107 91.7603 50.5534C92.1342 50.5932 92.5181 50.634 92.9378 50.6239C93.148 50.6189 93.3751 50.6017 93.6174 50.5834C93.8307 50.5673 94.0563 50.5502 94.2924 50.5397C94.5118 50.53 95.0004 50.5525 95.627 50.5812C96.0142 50.5989 96.4542 50.6189 96.9159 50.6354C97.0394 50.6328 97.1629 50.6302 97.2864 50.6276C98.0137 50.6076 98.6943 50.2786 99.1589 49.745C99.2435 49.6005 99.2888 49.4596 99.297 49.3382C99.3028 49.251 99.2904 49.1701 99.2739 49.0902C99.251 48.9814 99.2207 48.8741 99.2052 48.7511C99.1932 48.655 99.2033 48.5587 99.2377 48.4999C99.2538 48.4725 99.2755 48.4531 99.295 48.435C99.3173 48.4144 99.337 48.395 99.3413 48.3676C99.3444 48.3479 99.3354 48.3255 99.324 48.2985C99.3057 48.255 99.2814 48.2015 99.2847 48.1238C99.2888 48.0238 99.2873 47.9185 99.2775 47.8079C99.2394 47.4015 99.2032 46.9745 99.1675 46.5533C99.1068 45.8379 99.0475 45.1385 98.9826 44.5832C98.9099 43.961 98.8669 43.0683 98.8237 42.1742C98.7935 41.5505 98.7631 40.9258 98.7228 40.3914C98.6832 39.8676 98.6034 39.3261 98.5259 38.8018C98.4328 38.1724 98.3432 37.567 98.3318 37.046C98.3295 36.9407 98.3663 36.8059 98.4122 36.6368C98.4448 36.517 98.482 36.3791 98.5134 36.2232C98.4476 35.5652 98.3837 34.9069 98.3217 34.2486C98.3126 34.2261 98.3033 34.2029 98.2939 34.1796C98.2937 34.1792 98.2935 34.1789 98.2933 34.1785C98.0808 33.6539 97.7901 32.9361 97.8154 31.8842C97.8218 31.6167 97.8658 31.4444 97.9055 31.2892C97.9444 31.1367 97.9793 31.0004 97.9701 30.8069C97.9596 30.5872 97.9009 30.3324 97.8369 30.0546C97.747 29.6646 97.6467 29.229 97.6547 28.7809C97.6552 28.7503 97.6559 28.7174 97.6564 28.6832C97.6615 28.3585 97.669 27.8779 97.7325 27.394C97.6217 25.9883 97.5159 24.5819 97.4134 23.1754C97.2424 20.8309 97.0802 18.485 96.918 16.1398C96.8395 14.9988 96.8812 13.8928 97.0423 13.0643C97.2037 12.2357 97.4693 11.7526 97.7908 11.7205C98.1124 11.6883 98.4683 12.1092 98.7907 12.8894C99.1127 13.6695 99.3728 14.7452 99.522 15.8792C99.7646 17.7283 100.007 19.5781 100.246 21.4278C100.262 21.5244 100.278 21.6214 100.294 21.718C100.412 22.4366 100.569 23.0985 100.727 23.7609C100.763 23.913 100.8 24.0655 100.835 24.2184Z" fill="#C95700"/>
<path d="M334.542 24.2184C334.814 25.3811 334.979 27.659 335.069 28.912C335.071 28.935 335.073 28.958 335.074 28.981C335.096 29.2784 335.122 29.5591 335.153 29.888C335.225 30.6723 335.324 31.7319 335.447 33.9518C335.515 34.5945 335.581 35.2374 335.646 35.8804C336.031 39.7289 336.377 43.5814 336.701 47.436C337.077 50.6857 334.185 53.7579 330.993 53.6181C330.11 53.5996 329.226 53.5805 328.343 53.561C328.254 53.5618 328.165 53.5626 328.074 53.5634C326.324 53.5794 324.153 53.5992 322.79 53.5427C321.056 53.4708 319.878 53.4042 318.911 53.3466C313.368 53.2226 307.824 53.1117 302.281 53.0659C301.926 53.0629 301.571 53.0603 301.216 53.0579C299.466 53.0666 297.757 52.0773 296.881 50.5726C296.333 49.6562 296.092 48.5529 296.202 47.4936C296.276 46.7457 296.349 45.9976 296.421 45.2496C296.483 44.3193 296.533 43.434 296.58 42.6131C296.646 41.4595 296.704 40.4325 296.776 39.5866C296.948 37.5484 297.241 35.2465 297.459 33.5371C297.495 33.2577 297.529 32.9939 297.559 32.7499C297.678 31.3867 297.795 30.023 297.911 28.6596C297.933 28.57 297.956 28.4798 297.979 28.3881C298.269 27.244 298.413 25.8158 298.64 23.5677C298.739 22.5887 298.854 21.454 299.003 20.1197C299.099 19.2599 299.212 18.8247 299.304 18.4691C299.331 18.3645 299.357 18.2664 299.379 18.1668C299.457 17.8254 299.449 17.4563 299.439 17.0202C299.427 16.4546 299.412 15.7759 299.578 14.8984C299.851 13.4594 299.973 12.4274 300.025 11.6347C300.096 10.7207 300.316 10.0729 300.573 9.53749C300.732 9.21471 300.915 8.93282 301.144 8.67621C301.519 8.25183 302.113 7.83654 302.783 7.61866C303.277 7.45838 303.795 7.3223 304.239 7.22513C304.956 7.06225 306.348 6.60982 307.418 6.29625C307.823 6.17532 308.379 6.05812 309.039 5.93926C309.721 5.81632 310.512 5.69274 311.363 5.55659C313.51 5.22142 314.672 5.16474 315.603 5.11185C315.791 5.10249 315.971 5.09495 316.149 5.08857C316.221 5.08598 316.293 5.08359 316.365 5.08135C317.147 5.05627 318.116 5.06399 319.101 5.113C320.275 5.169 321.47 5.28692 322.373 5.38882C324.701 5.79164 326.986 6.39525 329.208 7.21738C329.338 7.26572 329.473 7.31853 329.599 7.3705C330.98 7.90523 331.794 9.15255 331.962 10.0723C332.165 11.1418 331.809 11.6976 331.498 11.7205C331.164 11.7531 330.837 11.3115 330.344 10.8197C329.908 10.3798 329.354 9.97751 328.719 9.80559C328.6 9.76904 328.472 9.7288 328.35 9.68968C326.191 8.99797 323.954 8.51901 321.704 8.22584C319.86 7.98657 318.004 7.87485 316.149 7.88883C315.243 7.89572 314.342 7.93239 313.438 7.99798C311.513 8.13791 309.599 8.41636 307.712 8.83343C307.52 8.87583 307.323 8.92086 307.132 8.96639C305.884 9.33849 304.663 9.77881 303.703 10.1645C303.57 10.2216 303.456 10.2887 303.357 10.3593C302.948 10.6563 302.708 10.9959 302.548 11.3268C302.462 11.508 302.405 11.6899 302.381 11.876C302.371 11.9542 302.363 12.0322 302.356 12.1105C302.337 12.3114 302.314 12.5861 302.286 12.9174C302.172 14.27 301.979 16.5673 301.686 18.6511C301.556 19.5757 301.377 20.647 301.205 21.6697C300.961 23.132 300.732 24.4957 300.688 25.1914C300.611 26.4131 300.428 27.8045 300.266 29.034C300.112 30.2068 299.977 31.2324 299.972 31.8231C299.965 32.5288 299.878 33.1222 299.748 34.0045C299.657 34.6164 299.547 35.3675 299.428 36.3915C299.291 37.5737 299.16 38.4065 299.048 39.1144C298.891 40.1106 298.773 40.8602 298.733 41.9915C298.689 43.2481 298.609 44.5579 298.477 45.5824C298.417 46.0491 298.366 46.5846 298.312 47.1418C298.294 47.3274 298.275 47.5154 298.257 47.7041C298.214 48.1261 298.26 48.5504 298.362 48.9357C298.475 49.3594 298.619 49.7107 298.79 50.0082C298.843 50.1007 298.9 50.1875 298.96 50.2683C299.225 50.532 299.536 50.7484 299.874 50.9031C299.933 50.9192 299.995 50.9336 300.06 50.9466C300.376 51.009 300.76 51.0369 301.216 51.0003C301.237 50.999 301.258 50.9977 301.28 50.9965C302.283 50.9394 303.164 50.9751 304.092 51.0131C304.816 51.0426 305.568 51.0735 306.43 51.0624C307.019 51.0549 307.688 51.0287 308.352 51.0028C309.338 50.9644 310.312 50.9265 310.988 50.9506C311.242 50.9596 311.46 50.9998 311.675 51.0397C311.676 51.0399 311.677 51.0402 311.678 51.0404C311.693 51.0431 311.707 51.0458 311.722 51.0485C313.37 51.0179 315.017 50.9842 316.665 50.9486C316.807 50.9383 316.952 50.9281 317.095 50.9181C317.793 50.8692 318.472 50.8216 318.915 50.754C319.394 50.6808 320.6 50.6383 321.871 50.5934C322.703 50.564 323.564 50.5337 324.266 50.4931C324.677 50.4693 325.067 50.5107 325.467 50.5534C325.841 50.5932 326.225 50.634 326.645 50.6239C326.855 50.6189 327.082 50.6017 327.324 50.5834C327.538 50.5673 327.763 50.5502 327.999 50.5397C328.219 50.53 328.707 50.5525 329.334 50.5812C329.721 50.5989 330.161 50.6189 330.623 50.6354C330.746 50.6328 330.87 50.6302 330.993 50.6276C331.721 50.6076 332.401 50.2786 332.866 49.745C332.951 49.6005 332.996 49.4596 333.004 49.3382C333.01 49.251 332.997 49.1701 332.981 49.0902C332.958 48.9814 332.928 48.8741 332.912 48.7511C332.9 48.655 332.91 48.5587 332.945 48.4999C332.961 48.4725 332.983 48.4531 333.002 48.435C333.024 48.4144 333.044 48.395 333.048 48.3676C333.051 48.3479 333.042 48.3255 333.031 48.2985C333.013 48.255 332.988 48.2015 332.992 48.1238C332.996 48.0238 332.994 47.9185 332.985 47.8079C332.946 47.4015 332.91 46.9745 332.875 46.5533C332.814 45.8379 332.754 45.1385 332.69 44.5832C332.617 43.961 332.574 43.0683 332.531 42.1742C332.501 41.5505 332.47 40.9258 332.43 40.3914C332.39 39.8676 332.31 39.3261 332.233 38.8018C332.14 38.1724 332.05 37.567 332.039 37.046C332.036 36.9407 332.073 36.8059 332.119 36.6368C332.152 36.517 332.189 36.3791 332.22 36.2232C332.155 35.5652 332.091 34.9069 332.029 34.2486C332.02 34.2261 332.01 34.2029 332.001 34.1796C332.001 34.1792 332.001 34.1789 332 34.1785C331.788 33.6539 331.497 32.9361 331.522 31.8842C331.529 31.6167 331.573 31.4444 331.613 31.2892C331.651 31.1367 331.686 31.0004 331.677 30.8069C331.667 30.5872 331.608 30.3324 331.544 30.0546C331.454 29.6646 331.354 29.229 331.362 28.7809C331.362 28.7503 331.363 28.7174 331.363 28.6832C331.369 28.3585 331.376 27.8779 331.44 27.394C331.329 25.9883 331.223 24.5819 331.12 23.1754C330.949 20.8309 330.787 18.485 330.625 16.1398C330.547 14.9988 330.588 13.8928 330.749 13.0643C330.911 12.2357 331.176 11.7526 331.498 11.7205C331.819 11.6883 332.175 12.1092 332.498 12.8894C332.82 13.6695 333.08 14.7452 333.229 15.8792C333.472 17.7283 333.714 19.5781 333.953 21.4278C333.969 21.5244 333.985 21.6214 334.001 21.718C334.119 22.4366 334.276 23.0985 334.434 23.7609C334.47 23.913 334.507 24.0655 334.542 24.2184Z" fill="#C95700"/>
<path d="M78.7203 14.9347C78.6474 15.1017 78.4619 15.0653 78.3632 15.0453C78.3614 15.045 78.3596 15.0447 78.3578 15.0444C78.3338 15.0397 78.3107 15.0411 78.2847 15.0427C78.2226 15.0467 78.138 15.052 77.9585 14.9812C77.9119 14.9925 77.8606 15.003 77.8124 15.0111C77.2921 15.0993 76.7827 15.0699 76.3238 15.0536C76.3187 15.056 76.3136 15.0585 76.3085 15.061C76.2081 15.1098 76.1011 15.1704 76.0107 15.1467C75.8975 15.1154 75.8101 15.0832 75.7393 15.0541C75.4215 15.0738 75.1424 15.1442 74.9229 15.3452C74.8555 15.4066 74.7931 15.4829 74.7424 15.567C74.694 15.6472 74.655 15.7309 74.6199 15.826C74.625 15.8939 74.6407 15.9574 74.6547 16.0196C74.6745 16.107 74.6946 16.1838 74.6906 16.2384C74.6797 16.3727 74.5797 16.4978 74.5051 16.6029C74.4929 16.62 74.4814 16.6364 74.4712 16.6518C74.4665 16.7472 74.4645 16.8448 74.4635 16.9476C74.4494 16.951 74.4348 16.9545 74.4198 16.958C74.2332 17.0007 74.2123 17.0993 74.1805 17.27C74.1667 17.3446 74.1528 17.4232 74.1218 17.5221C74.102 17.5854 74.029 17.6077 73.9693 17.6263C73.9518 17.6317 73.9354 17.6369 73.9218 17.6427C73.8753 17.6635 73.9158 17.6974 73.9636 17.7386C74.0255 17.792 74.1002 17.8553 74.0144 17.911C73.7402 18.0936 73.8895 18.2144 74.0021 18.3032C74.0352 18.3294 74.0651 18.3532 74.0805 18.3755C74.1302 18.4477 74.0595 18.5323 73.9702 18.594C73.8995 18.6407 73.9487 18.7563 74.0184 18.8504C74.0448 18.8859 74.0403 18.9291 74.0349 18.9807C74.0294 19.0333 74.0224 19.099 74.0492 19.1658C74.1168 19.3359 74.149 19.429 74.1748 19.5036C74.1821 19.525 74.1888 19.5449 74.1958 19.5649C74.218 19.6276 74.2335 19.7078 74.25 19.781C74.2696 19.8709 74.2896 19.9638 74.3213 20.0368C74.263 20.2143 74.196 20.3888 74.1297 20.5623C74.0953 20.6522 73.9403 20.7294 73.6918 20.7757C73.4431 20.822 73.1232 20.8335 72.795 20.8054C72.4669 20.7773 72.1536 20.7114 71.9167 20.6218C71.68 20.5322 71.5407 20.4265 71.5231 20.329C71.488 20.1347 71.4539 19.9364 71.4315 19.7365C71.4036 19.4992 71.3936 19.2543 71.4198 19.0176C71.4376 18.857 71.4657 18.6832 71.5003 18.5184C71.5038 18.5014 71.5075 18.4845 71.5112 18.4676C71.4478 18.3206 71.3939 18.1658 71.3818 18.0605C71.3718 17.9739 71.4232 17.9198 71.4673 17.8741C71.4975 17.8426 71.5244 17.8151 71.5254 17.7835C71.5259 17.7671 71.5246 17.7419 71.5231 17.7118C71.517 17.5876 71.5067 17.3862 71.6168 17.2176C71.666 17.1405 71.7515 17.058 71.8333 16.9821C71.9498 16.876 72.0616 16.7709 72.0482 16.7048C72.0249 16.5863 72.0899 16.4812 72.152 16.3764C72.2107 16.2786 72.2628 16.1971 72.2234 16.1321C72.1763 16.0549 72.2168 16.0083 72.2783 15.9383C72.3209 15.8902 72.3731 15.8324 72.4145 15.7471C72.4615 15.6511 72.5334 15.5836 72.5922 15.5352C72.6765 15.4635 72.7366 15.4207 72.708 15.2881C72.6757 15.1426 72.677 15.007 72.7473 14.9219C72.779 14.8839 72.8004 14.8338 72.8236 14.7822C72.8543 14.7138 72.8878 14.6434 72.952 14.5928C73.0043 14.5522 73.085 14.5425 73.1557 14.536C73.1778 14.534 73.1989 14.5321 73.218 14.5297C73.2419 14.4905 73.2667 14.4507 73.2924 14.4099C73.2882 14.3977 73.2835 14.3845 73.2787 14.3708C73.2546 14.302 73.227 14.2158 73.2391 14.1399C73.2574 14.0209 73.35 13.9643 73.4443 13.9147C73.5184 13.8754 73.5954 13.838 73.6536 13.7644C73.6933 13.7143 73.7278 13.6456 73.7648 13.578C73.8194 13.4777 73.8804 13.3798 73.9544 13.3534C73.9821 13.3436 74.0256 13.3612 74.0677 13.3797C74.068 13.3799 74.0682 13.38 74.0684 13.3801C74.0713 13.3814 74.0741 13.3826 74.077 13.3838C74.1994 13.2557 74.331 13.1317 74.4641 13.0165C74.4722 13.0001 74.4806 12.9838 74.4892 12.9677C74.5312 12.8888 74.5731 12.8139 74.5848 12.7327C74.597 12.6447 74.6984 12.5484 74.8046 12.4544C74.873 12.3931 74.9457 12.3313 75.001 12.2668C75.0333 12.2291 75.0873 12.2532 75.1389 12.28C75.1877 12.3047 75.2371 12.3306 75.2733 12.3075C75.2914 12.296 75.3074 12.2725 75.3247 12.2474C75.3399 12.2254 75.3562 12.202 75.3757 12.1848C75.3935 12.1688 75.4491 12.1747 75.5137 12.185C75.5543 12.1911 75.6003 12.1983 75.6473 12.2018C75.7526 12.1445 75.8596 12.0902 75.962 12.0407C75.976 11.9997 75.9846 11.9491 75.9861 11.8865C75.9872 11.8415 75.9847 11.7888 75.9824 11.7348C75.9792 11.6614 75.9761 11.5854 75.9824 11.5228C75.9874 11.4739 76.0019 11.4514 76.0188 11.4672C76.0268 11.4746 76.0351 11.4901 76.0427 11.504C76.0513 11.52 76.059 11.5343 76.064 11.5326C76.0676 11.5315 76.0685 11.5185 76.0698 11.5027C76.072 11.4775 76.0744 11.4451 76.0882 11.4408C76.1397 11.4248 76.2017 11.4211 76.2626 11.418C76.3304 11.4145 76.3968 11.4114 76.4465 11.3918C76.5025 11.3697 76.5872 11.3999 76.675 11.4299C76.7359 11.4509 76.7968 11.472 76.8467 11.4761C76.896 11.4801 76.9389 11.4464 76.9789 11.414C77.0275 11.375 77.075 11.3375 77.1264 11.3697C77.1369 11.3763 77.1565 11.4237 77.181 11.483C77.1984 11.525 77.2184 11.5731 77.2391 11.617C77.2951 11.6076 77.3552 11.5997 77.4093 11.5947C77.4101 11.5877 77.411 11.5806 77.4118 11.5733C77.4118 11.5731 77.4118 11.5729 77.4119 11.5728C77.4307 11.4084 77.4584 11.1833 77.5667 11.2978C77.5941 11.3269 77.6177 11.3849 77.6388 11.4372C77.6596 11.4885 77.6782 11.5345 77.696 11.5419C77.7163 11.5504 77.7332 11.5143 77.7517 11.475C77.7781 11.4198 77.8066 11.3584 77.8502 11.4049C77.8532 11.4081 77.8565 11.4116 77.8598 11.4151C77.8916 11.4481 77.9387 11.497 77.994 11.6013C78.1125 11.6137 78.2393 11.6303 78.3569 11.6517C78.5512 11.6877 78.7642 11.7306 78.956 11.7766C79.0521 11.799 79.1619 11.9368 79.2615 12.168C79.3611 12.3996 79.4419 12.7038 79.4866 13.0238C79.5313 13.3438 79.5367 13.6583 79.5044 13.9083C79.472 14.1579 79.4045 14.3204 79.3191 14.3683C79.1833 14.4452 79.0356 14.5239 78.8976 14.597C78.8909 14.6048 78.8841 14.6123 78.8774 14.6194C78.8266 14.6724 78.7889 14.7698 78.7487 14.8676C78.7393 14.8901 78.7298 14.9127 78.7203 14.9347ZM74.0261 27.0447C74.1651 27.2161 74.073 27.5117 74.0223 27.6743C74.0215 27.6773 74.0206 27.6803 74.0198 27.6833C74.0078 27.7219 74.002 27.759 73.9955 27.8024C73.9799 27.9059 73.9588 28.0459 73.8321 28.3299C73.8274 28.4156 73.8212 28.5012 73.8129 28.5866C73.7236 29.509 73.5062 30.4189 73.2635 31.3264C73.2631 31.3381 73.2628 31.35 73.2625 31.3621C73.256 31.5949 73.2479 31.8837 73.1742 32.0585C73.0805 32.2807 72.9991 32.4299 72.9295 32.5522C72.7351 33.2728 72.5538 33.9948 72.4373 34.7229C72.4008 34.9511 72.3708 35.18 72.3486 35.4096C72.3281 35.6211 72.3125 35.833 72.3013 36.0453C72.3229 36.1717 72.3514 36.2926 72.3778 36.4048C72.415 36.5623 72.4479 36.7026 72.4521 36.8162C72.4621 37.09 72.3753 37.3911 72.3108 37.6146C72.3002 37.6512 72.2903 37.6857 72.2814 37.7176C72.285 37.9005 72.29 38.0835 72.2955 38.2665C72.2816 38.2774 72.267 38.2882 72.2521 38.2993C72.0663 38.4371 72.0502 38.627 72.0245 38.9259C72.0133 39.0561 72.0002 39.207 71.9706 39.3832C71.9516 39.4968 71.8782 39.5489 71.8183 39.5916C71.8006 39.6041 71.7842 39.6159 71.7706 39.6281C71.7241 39.67 71.7648 39.7228 71.813 39.7852C71.8755 39.8661 71.9506 39.9632 71.8636 40.0735C71.5864 40.425 71.7339 40.6059 71.8454 40.7428C71.8782 40.7829 71.9077 40.8193 71.9226 40.8551C71.971 40.971 71.8973 41.1224 71.8056 41.2334C71.7328 41.3213 71.7777 41.5158 71.8441 41.6664C71.8692 41.7233 71.8629 41.7964 71.8553 41.8825C71.8475 41.9716 71.8382 42.0747 71.8616 42.1881C71.9207 42.4749 71.948 42.6269 71.9699 42.7491C71.9761 42.7839 71.9817 42.8164 71.9877 42.8488C72.0066 42.9513 72.0182 43.0773 72.0298 43.2049C72.0437 43.3576 72.0578 43.5125 72.0851 43.632C72.0153 43.9282 71.9359 44.2235 71.8565 44.5187C71.8155 44.6703 71.6542 44.8039 71.4012 44.8895C71.1481 44.975 70.8258 45.0056 70.498 44.9738C70.1702 44.9421 69.8598 44.8503 69.6277 44.7178C69.3959 44.5854 69.2629 44.4232 69.2517 44.2666C69.2297 43.951 69.2077 43.6354 69.1963 43.3209C69.1824 42.9377 69.1842 42.556 69.2208 42.1777C69.2465 41.9131 69.2799 41.6492 69.3195 41.386C69.3236 41.3589 69.3279 41.3318 69.3321 41.3047C69.2729 41.0745 69.2209 40.8456 69.2099 40.6867C69.2008 40.5555 69.253 40.4656 69.2976 40.3886C69.3283 40.3355 69.3555 40.2886 69.3567 40.2386C69.3574 40.2118 69.356 40.1749 69.3542 40.1304C69.3472 39.9487 69.3352 39.64 69.4408 39.3697C69.4877 39.2498 69.5705 39.1132 69.6495 38.9828C69.7625 38.7964 69.8678 38.6225 69.8498 38.5278C69.8181 38.3616 69.8761 38.1801 69.9274 38.0197C69.9763 37.8667 70.0191 37.7329 69.972 37.6499C69.9157 37.5507 69.95 37.4741 70.0008 37.3601C70.036 37.2811 70.0791 37.1841 70.1057 37.0492C70.1364 36.8934 70.1929 36.7866 70.2409 36.6958C70.3086 36.568 70.3594 36.4718 70.2981 36.3153C70.2301 36.1413 70.1933 35.9629 70.2331 35.829C70.2512 35.768 70.2552 35.6966 70.2592 35.6223C70.2646 35.524 70.2704 35.4205 70.3097 35.3294C70.342 35.2543 70.4119 35.1964 70.4737 35.1451C70.493 35.1292 70.5114 35.1138 70.5277 35.0988C70.5329 35.037 70.5377 34.9751 70.5417 34.9132C70.5325 34.9022 70.5221 34.8906 70.5115 34.8785C70.4581 34.8178 70.3926 34.7431 70.3648 34.6559C70.3208 34.5178 70.3676 34.4049 70.4173 34.2858C70.4559 34.1931 70.4962 34.0966 70.4963 33.9816C70.4963 33.9031 70.4788 33.8121 70.4615 33.7219C70.4359 33.5879 70.4107 33.4555 70.4433 33.3684C70.4555 33.3358 70.4982 33.3109 70.5407 33.2862C70.541 33.2861 70.5412 33.286 70.5415 33.2859C70.5444 33.2843 70.5472 33.2826 70.5501 33.2809C70.5407 33.0602 70.5282 32.8392 70.5139 32.6181C70.5055 32.5982 70.4972 32.5782 70.489 32.5583C70.4492 32.4612 70.4106 32.367 70.349 32.302C70.2823 32.2315 70.2553 32.068 70.2269 31.8958C70.2083 31.7829 70.1891 31.6663 70.1577 31.5696C70.1393 31.513 70.1855 31.4655 70.2331 31.4167C70.2775 31.3711 70.323 31.3243 70.3183 31.2678C70.316 31.2396 70.3018 31.2079 70.2867 31.1741C70.2734 31.1444 70.2592 31.1129 70.2518 31.0807C70.245 31.0508 70.2737 30.9884 70.3102 30.9083C70.3328 30.8588 70.3583 30.8026 70.3806 30.7432C70.3706 30.5794 70.3616 30.4157 70.3543 30.2522C70.3215 30.215 70.2774 30.1813 70.2195 30.1524C70.178 30.1316 70.1277 30.1125 70.0764 30.0929C70.0065 30.0662 69.9343 30.0386 69.8779 30.0047C69.8338 29.9783 69.8179 29.9505 69.8388 29.935C69.8485 29.9277 69.866 29.9231 69.8818 29.919C69.8999 29.9142 69.916 29.9099 69.9162 29.9028C69.9164 29.8977 69.9045 29.8912 69.8901 29.8832C69.8672 29.8705 69.8377 29.854 69.8386 29.8333C69.8419 29.7562 69.8602 29.6701 69.8782 29.5857C69.8982 29.4919 69.9177 29.4002 69.9157 29.3254C69.9134 29.2416 69.9707 29.1281 70.0279 29.0144C70.0679 28.9351 70.1077 28.8556 70.1276 28.786C70.147 28.7179 70.1286 28.6432 70.1106 28.5708C70.089 28.4839 70.068 28.4003 70.115 28.3356C70.1245 28.3225 70.176 28.3101 70.2404 28.2945C70.286 28.2834 70.3382 28.2707 70.3867 28.2551C70.3951 28.1677 70.4057 28.0805 70.4179 27.9935C70.4114 27.9897 70.4049 27.9859 70.3982 27.982C70.398 27.982 70.3978 27.9819 70.3977 27.9818C70.2462 27.8947 70.0389 27.7755 70.1816 27.65C70.2178 27.6181 70.2807 27.6019 70.3373 27.5873C70.3928 27.573 70.4425 27.5601 70.4551 27.5356C70.4693 27.5076 70.4397 27.4702 70.4075 27.4293C70.3623 27.372 70.3117 27.3079 70.3697 27.2542C70.3737 27.2505 70.378 27.2466 70.3824 27.2425C70.4238 27.2035 70.4849 27.1457 70.6019 27.0936C70.6495 26.9102 70.7022 26.7272 70.758 26.5445C70.8511 26.2401 70.9531 25.9364 71.055 25.6328C71.105 25.4852 71.2699 25.3549 71.5219 25.2715C71.7742 25.188 72.091 25.1581 72.4127 25.1892C72.7343 25.2204 73.0392 25.3105 73.2709 25.4407C73.5022 25.5709 73.6391 25.7304 73.6598 25.8849C73.693 26.1368 73.7262 26.3888 73.755 26.6402C73.7604 26.6538 73.7656 26.6674 73.7704 26.6809C73.8062 26.7813 73.8881 26.8792 73.9701 26.9771C73.989 26.9996 74.0078 27.0222 74.0261 27.0447Z" fill="white"/>
<path d="M312.427 14.9347C312.354 15.1017 312.169 15.0653 312.07 15.0453C312.068 15.045 312.067 15.0447 312.065 15.0444C312.041 15.0397 312.018 15.0411 311.992 15.0427C311.93 15.0467 311.845 15.052 311.665 14.9812C311.619 14.9925 311.568 15.003 311.519 15.0111C310.999 15.0993 310.49 15.0699 310.031 15.0536C310.026 15.056 310.021 15.0585 310.015 15.061C309.915 15.1098 309.808 15.1704 309.718 15.1467C309.605 15.1154 309.517 15.0832 309.446 15.0541C309.128 15.0738 308.849 15.1442 308.63 15.3452C308.563 15.4066 308.5 15.4829 308.449 15.567C308.401 15.6472 308.362 15.7309 308.327 15.826C308.332 15.8939 308.348 15.9574 308.362 16.0196C308.382 16.107 308.402 16.1838 308.398 16.2384C308.387 16.3727 308.287 16.4978 308.212 16.6029C308.2 16.62 308.188 16.6364 308.178 16.6518C308.174 16.7472 308.172 16.8448 308.17 16.9476C308.156 16.951 308.142 16.9545 308.127 16.958C307.94 17.0007 307.919 17.0993 307.888 17.27C307.874 17.3446 307.86 17.4232 307.829 17.5221C307.809 17.5854 307.736 17.6077 307.676 17.6263C307.659 17.6317 307.642 17.6369 307.629 17.6427C307.582 17.6635 307.623 17.6974 307.671 17.7386C307.733 17.792 307.807 17.8553 307.721 17.911C307.447 18.0936 307.596 18.2144 307.709 18.3032C307.742 18.3294 307.772 18.3532 307.788 18.3755C307.837 18.4477 307.767 18.5323 307.677 18.594C307.607 18.6407 307.656 18.7563 307.725 18.8504C307.752 18.8859 307.747 18.9291 307.742 18.9807C307.736 19.0333 307.729 19.099 307.756 19.1658C307.824 19.3359 307.856 19.429 307.882 19.5036C307.889 19.525 307.896 19.5449 307.903 19.5649C307.925 19.6276 307.94 19.7078 307.957 19.781C307.977 19.8709 307.997 19.9638 308.028 20.0368C307.97 20.2143 307.903 20.3888 307.837 20.5623C307.802 20.6522 307.647 20.7294 307.399 20.7757C307.15 20.822 306.83 20.8335 306.502 20.8054C306.174 20.7773 305.861 20.7114 305.624 20.6218C305.387 20.5322 305.248 20.4265 305.23 20.329C305.195 20.1347 305.161 19.9364 305.139 19.7365C305.111 19.4992 305.101 19.2543 305.127 19.0176C305.145 18.857 305.173 18.6832 305.207 18.5184C305.211 18.5014 305.215 18.4845 305.218 18.4676C305.155 18.3206 305.101 18.1658 305.089 18.0605C305.079 17.9739 305.13 17.9198 305.174 17.8741C305.205 17.8426 305.231 17.8151 305.232 17.7835C305.233 17.7671 305.232 17.7419 305.23 17.7118C305.224 17.5876 305.214 17.3862 305.324 17.2176C305.373 17.1405 305.459 17.058 305.54 16.9821C305.657 16.876 305.769 16.7709 305.755 16.7048C305.732 16.5863 305.797 16.4812 305.859 16.3764C305.918 16.2786 305.97 16.1971 305.93 16.1321C305.883 16.0549 305.924 16.0083 305.985 15.9383C306.028 15.8902 306.08 15.8324 306.121 15.7471C306.168 15.6511 306.24 15.5836 306.299 15.5352C306.384 15.4635 306.444 15.4207 306.415 15.2881C306.383 15.1426 306.384 15.007 306.454 14.9219C306.486 14.8839 306.507 14.8338 306.531 14.7822C306.561 14.7138 306.595 14.6434 306.659 14.5928C306.711 14.5522 306.792 14.5425 306.863 14.536C306.885 14.534 306.906 14.5321 306.925 14.5297C306.949 14.4905 306.974 14.4507 306.999 14.4099C306.995 14.3977 306.991 14.3845 306.986 14.3708C306.962 14.302 306.934 14.2158 306.946 14.1399C306.964 14.0209 307.057 13.9643 307.151 13.9147C307.225 13.8754 307.302 13.838 307.361 13.7644C307.4 13.7143 307.435 13.6456 307.472 13.578C307.526 13.4777 307.587 13.3798 307.661 13.3534C307.689 13.3436 307.733 13.3612 307.775 13.3797C307.775 13.3799 307.775 13.38 307.775 13.3801C307.778 13.3814 307.781 13.3826 307.784 13.3838C307.906 13.2557 308.038 13.1317 308.171 13.0165C308.179 13.0001 308.188 12.9838 308.196 12.9677C308.238 12.8888 308.28 12.8139 308.292 12.7327C308.304 12.6447 308.405 12.5484 308.512 12.4544C308.58 12.3931 308.653 12.3313 308.708 12.2668C308.74 12.2291 308.794 12.2532 308.846 12.28C308.895 12.3047 308.944 12.3306 308.98 12.3075C308.998 12.296 309.014 12.2725 309.032 12.2474C309.047 12.2254 309.063 12.202 309.083 12.1848C309.101 12.1688 309.156 12.1747 309.221 12.185C309.261 12.1911 309.307 12.1983 309.354 12.2018C309.46 12.1445 309.567 12.0902 309.669 12.0407C309.683 11.9997 309.692 11.9491 309.693 11.8865C309.694 11.8415 309.692 11.7888 309.689 11.7348C309.686 11.6614 309.683 11.5854 309.689 11.5228C309.694 11.4739 309.709 11.4514 309.726 11.4672C309.734 11.4746 309.742 11.4901 309.75 11.504C309.758 11.52 309.766 11.5343 309.771 11.5326C309.775 11.5315 309.776 11.5185 309.777 11.5027C309.779 11.4775 309.781 11.4451 309.795 11.4408C309.847 11.4248 309.909 11.4211 309.97 11.418C310.037 11.4145 310.104 11.4114 310.153 11.3918C310.21 11.3697 310.294 11.3999 310.382 11.4299C310.443 11.4509 310.504 11.472 310.554 11.4761C310.603 11.4801 310.646 11.4464 310.686 11.414C310.735 11.375 310.782 11.3375 310.833 11.3697C310.844 11.3763 310.864 11.4237 310.888 11.483C310.905 11.525 310.925 11.5731 310.946 11.617C311.002 11.6076 311.062 11.5997 311.116 11.5947C311.117 11.5877 311.118 11.5806 311.119 11.5733C311.119 11.5731 311.119 11.5729 311.119 11.5728C311.138 11.4084 311.165 11.1833 311.274 11.2978C311.301 11.3269 311.325 11.3849 311.346 11.4372C311.367 11.4885 311.385 11.5345 311.403 11.5419C311.423 11.5504 311.44 11.5143 311.459 11.475C311.485 11.4198 311.514 11.3584 311.557 11.4049C311.56 11.4081 311.564 11.4116 311.567 11.4151C311.599 11.4481 311.646 11.497 311.701 11.6013C311.82 11.6137 311.946 11.6303 312.064 11.6517C312.258 11.6877 312.471 11.7306 312.663 11.7766C312.759 11.799 312.869 11.9368 312.968 12.168C313.068 12.3996 313.149 12.7038 313.194 13.0238C313.238 13.3438 313.244 13.6583 313.211 13.9083C313.179 14.1579 313.112 14.3204 313.026 14.3683C312.89 14.4452 312.743 14.5239 312.605 14.597C312.598 14.6048 312.591 14.6123 312.584 14.6194C312.534 14.6724 312.496 14.7698 312.456 14.8676C312.446 14.8901 312.437 14.9127 312.427 14.9347ZM307.733 27.0447C307.872 27.2161 307.78 27.5117 307.729 27.6743C307.729 27.6773 307.728 27.6803 307.727 27.6833C307.715 27.7219 307.709 27.759 307.703 27.8024C307.687 27.9059 307.666 28.0459 307.539 28.3299C307.534 28.4156 307.528 28.5012 307.52 28.5866C307.431 29.509 307.213 30.4189 306.97 31.3264C306.97 31.3381 306.97 31.35 306.969 31.3621C306.963 31.5949 306.955 31.8837 306.881 32.0585C306.788 32.2807 306.706 32.4299 306.637 32.5522C306.442 33.2728 306.261 33.9948 306.144 34.7229C306.108 34.9511 306.078 35.18 306.056 35.4096C306.035 35.6211 306.02 35.833 306.008 36.0453C306.03 36.1717 306.058 36.2926 306.085 36.4048C306.122 36.5623 306.155 36.7026 306.159 36.8162C306.169 37.09 306.082 37.3911 306.018 37.6146C306.007 37.6512 305.997 37.6857 305.988 37.7176C305.992 37.9005 305.997 38.0835 306.003 38.2665C305.989 38.2774 305.974 38.2882 305.959 38.2993C305.773 38.4371 305.757 38.627 305.731 38.9259C305.72 39.0561 305.707 39.207 305.678 39.3832C305.659 39.4968 305.585 39.5489 305.525 39.5916C305.508 39.6041 305.491 39.6159 305.478 39.6281C305.431 39.67 305.472 39.7228 305.52 39.7852C305.583 39.8661 305.658 39.9632 305.571 40.0735C305.293 40.425 305.441 40.6059 305.552 40.7428C305.585 40.7829 305.615 40.8193 305.63 40.8551C305.678 40.971 305.604 41.1224 305.513 41.2334C305.44 41.3213 305.485 41.5158 305.551 41.6664C305.576 41.7233 305.57 41.7964 305.562 41.8825C305.555 41.9716 305.545 42.0747 305.569 42.1881C305.628 42.4749 305.655 42.6269 305.677 42.7491C305.683 42.7839 305.689 42.8164 305.695 42.8488C305.714 42.9513 305.725 43.0773 305.737 43.2049C305.751 43.3576 305.765 43.5125 305.792 43.632C305.722 43.9282 305.643 44.2235 305.564 44.5187C305.523 44.6703 305.361 44.8039 305.108 44.8895C304.855 44.975 304.533 45.0056 304.205 44.9738C303.877 44.9421 303.567 44.8503 303.335 44.7178C303.103 44.5854 302.97 44.4232 302.959 44.2666C302.937 43.951 302.915 43.6354 302.903 43.3209C302.889 42.9377 302.891 42.556 302.928 42.1777C302.953 41.9131 302.987 41.6492 303.027 41.386C303.031 41.3589 303.035 41.3318 303.039 41.3047C302.98 41.0745 302.928 40.8456 302.917 40.6867C302.908 40.5555 302.96 40.4656 303.005 40.3886C303.035 40.3355 303.063 40.2886 303.064 40.2386C303.064 40.2118 303.063 40.1749 303.061 40.1304C303.054 39.9487 303.042 39.64 303.148 39.3697C303.195 39.2498 303.278 39.1132 303.357 38.9828C303.469 38.7964 303.575 38.6225 303.557 38.5278C303.525 38.3616 303.583 38.1801 303.634 38.0197C303.683 37.8667 303.726 37.7329 303.679 37.6499C303.623 37.5507 303.657 37.4741 303.708 37.3601C303.743 37.2811 303.786 37.1841 303.813 37.0492C303.843 36.8934 303.9 36.7866 303.948 36.6958C304.016 36.568 304.066 36.4718 304.005 36.3153C303.937 36.1413 303.9 35.9629 303.94 35.829C303.958 35.768 303.962 35.6966 303.966 35.6223C303.972 35.524 303.977 35.4205 304.017 35.3294C304.049 35.2543 304.119 35.1964 304.181 35.1451C304.2 35.1292 304.218 35.1138 304.235 35.0988C304.24 35.037 304.245 34.9751 304.249 34.9132C304.239 34.9022 304.229 34.8906 304.219 34.8785C304.165 34.8178 304.1 34.7431 304.072 34.6559C304.028 34.5178 304.075 34.4049 304.124 34.2858C304.163 34.1931 304.203 34.0966 304.203 33.9816C304.203 33.9031 304.186 33.8121 304.169 33.7219C304.143 33.5879 304.118 33.4555 304.15 33.3684C304.162 33.3358 304.205 33.3109 304.248 33.2862C304.248 33.2861 304.248 33.286 304.249 33.2859C304.251 33.2843 304.254 33.2826 304.257 33.2809C304.248 33.0602 304.235 32.8392 304.221 32.6181C304.212 32.5982 304.204 32.5782 304.196 32.5583C304.156 32.4612 304.118 32.367 304.056 32.302C303.989 32.2315 303.962 32.068 303.934 31.8958C303.915 31.7829 303.896 31.6663 303.865 31.5696C303.846 31.513 303.892 31.4655 303.94 31.4167C303.984 31.3711 304.03 31.3243 304.025 31.2678C304.023 31.2396 304.009 31.2079 303.994 31.1741C303.98 31.1444 303.966 31.1129 303.959 31.0807C303.952 31.0508 303.981 30.9884 304.017 30.9083C304.04 30.8588 304.065 30.8026 304.088 30.7432C304.078 30.5794 304.069 30.4157 304.061 30.2522C304.029 30.215 303.984 30.1813 303.927 30.1524C303.885 30.1316 303.835 30.1125 303.783 30.0929C303.714 30.0662 303.641 30.0386 303.585 30.0047C303.541 29.9783 303.525 29.9505 303.546 29.935C303.556 29.9277 303.573 29.9231 303.589 29.919C303.607 29.9142 303.623 29.9099 303.623 29.9028C303.623 29.8977 303.612 29.8912 303.597 29.8832C303.574 29.8705 303.545 29.854 303.546 29.8333C303.549 29.7562 303.567 29.6701 303.585 29.5857C303.605 29.4919 303.625 29.4002 303.623 29.3254C303.62 29.2416 303.678 29.1281 303.735 29.0144C303.775 28.9351 303.815 28.8556 303.835 28.786C303.854 28.7179 303.836 28.6432 303.818 28.5708C303.796 28.4839 303.775 28.4003 303.822 28.3356C303.832 28.3225 303.883 28.3101 303.947 28.2945C303.993 28.2834 304.045 28.2707 304.094 28.2551C304.102 28.1677 304.113 28.0805 304.125 27.9935C304.118 27.9897 304.112 27.9859 304.105 27.982C304.105 27.982 304.105 27.9819 304.105 27.9818C303.953 27.8947 303.746 27.7755 303.889 27.65C303.925 27.6181 303.988 27.6019 304.044 27.5873C304.1 27.573 304.15 27.5601 304.162 27.5356C304.176 27.5076 304.147 27.4702 304.115 27.4293C304.069 27.372 304.019 27.3079 304.077 27.2542C304.081 27.2505 304.085 27.2466 304.089 27.2425C304.131 27.2035 304.192 27.1457 304.309 27.0936C304.357 26.9102 304.409 26.7272 304.465 26.5445C304.558 26.2401 304.66 25.9364 304.762 25.6328C304.812 25.4852 304.977 25.3549 305.229 25.2715C305.481 25.188 305.798 25.1581 306.12 25.1892C306.441 25.2204 306.746 25.3105 306.978 25.4407C307.209 25.5709 307.346 25.7304 307.367 25.8849C307.4 26.1368 307.433 26.3888 307.462 26.6402C307.467 26.6538 307.473 26.6674 307.477 26.6809C307.513 26.7813 307.595 26.8792 307.677 26.9771C307.696 26.9996 307.715 27.0222 307.733 27.0447Z" fill="white"/>
<path d="M12.5377 72.8617C12.4541 72.5324 12.6719 71.9857 12.8017 71.7023C12.804 71.697 12.8063 71.6917 12.8086 71.6864C12.8391 71.6181 12.8632 71.5517 12.8919 71.4736C12.9622 71.2857 13.0512 71.0378 13.3512 70.5589C13.4102 70.4045 13.4682 70.263 13.5333 70.1155C14.2362 68.5242 15.2883 67.1344 16.5085 65.9581C16.5216 65.9417 16.535 65.925 16.5486 65.9081C16.8087 65.5824 17.162 65.18 17.4307 64.993C17.7765 64.7493 18.0315 64.6052 18.2372 64.496C19.2957 63.7045 20.4149 63.0261 21.5382 62.4039C21.8896 62.2094 22.2382 62.0215 22.6004 61.8297C22.924 61.6583 23.2482 61.4908 23.5838 61.3227C23.7713 61.1972 23.9299 61.0815 24.0898 60.9704C24.3116 60.8157 24.5157 60.68 24.6955 60.5904C25.1194 60.3775 25.6379 60.2455 26.0368 60.1526C26.1017 60.1374 26.1588 60.1248 26.2138 60.1121C26.5003 59.9922 26.7927 59.8741 27.0915 59.759C27.1156 59.7651 27.1401 59.7717 27.165 59.7786C27.4836 59.8622 27.7755 59.7733 28.2791 59.6371C28.495 59.579 28.7608 59.5103 29.051 59.4545C29.2421 59.4177 29.3557 59.4621 29.4478 59.4982C29.4749 59.5089 29.5004 59.5189 29.5254 59.5259C29.6114 59.5502 29.6825 59.4878 29.7679 59.4144C29.8785 59.3192 30.0137 59.2049 30.2313 59.239C30.8972 59.3544 31.146 59.1485 31.34 58.9895C31.3967 58.9431 31.4485 58.9013 31.5042 58.8738C31.6886 58.7838 31.9596 58.8019 32.1701 58.8533C32.3368 58.8937 32.6458 58.7874 32.882 58.6769C32.9711 58.635 33.0971 58.6188 33.2467 58.6008C33.406 58.5816 33.5704 58.5627 33.7545 58.5093C34.216 58.3751 34.4701 58.3124 34.6737 58.2618C34.7319 58.2475 34.7863 58.2344 34.8407 58.2211C35.0163 58.1786 35.2202 58.1402 35.4316 58.1026C35.6842 58.0576 35.944 58.0142 36.1427 57.9656C36.6714 57.9804 37.1809 58.0142 37.6942 58.055C37.9587 58.0762 38.2168 58.2214 38.4065 58.4639C38.5963 58.7066 38.7018 59.0247 38.7017 59.354C38.7017 59.6834 38.5969 60.001 38.4162 60.2457C38.2353 60.4901 37.9936 60.6406 37.7435 60.6716C37.2416 60.7333 36.7443 60.8025 36.2358 60.87C35.626 60.9518 35.025 61.0294 34.4117 61.0867C33.9875 61.1265 33.5732 61.1638 33.1393 61.2044C33.0953 61.2085 33.0514 61.2125 33.0076 61.2166C32.6604 61.3434 32.3316 61.4665 32.0868 61.5316C31.8825 61.5857 31.7263 61.568 31.5925 61.5534C31.5004 61.5433 31.4191 61.5347 31.3419 61.5522C31.3004 61.5616 31.2442 61.5768 31.1769 61.5953C30.9068 61.6696 30.4309 61.8055 29.9828 61.8253C29.7834 61.8339 29.5502 61.8173 29.324 61.8049C28.9913 61.7893 28.6849 61.7801 28.5502 61.8452C28.3127 61.9594 28.0272 61.9999 27.7576 62.0451C27.5052 62.0866 27.288 62.1259 27.1881 62.2167C27.0678 62.3256 26.9462 62.3383 26.7529 62.3639C26.6183 62.382 26.4535 62.405 26.2442 62.4686C26.0028 62.5422 25.8229 62.5638 25.67 62.5828C25.4504 62.6117 25.2801 62.6374 25.0903 62.8019C24.8769 62.9859 24.6616 63.1427 24.4455 63.2153C24.3494 63.2472 24.2475 63.2993 24.1429 63.3542C24.0043 63.4267 23.8611 63.5038 23.7162 63.5448C23.5981 63.5779 23.4754 63.5706 23.3676 63.5644C23.3339 63.5624 23.3017 63.5607 23.2712 63.5604C23.1835 63.6089 23.097 63.6581 23.0116 63.7083C23.0027 63.7251 22.9936 63.7433 22.9841 63.7622C22.9366 63.8569 22.8796 63.9729 22.7849 64.0703C22.637 64.2233 22.454 64.2929 22.2699 64.3638C22.1257 64.4197 21.9765 64.479 21.8342 64.587C21.7378 64.6601 21.6316 64.7639 21.5327 64.8645C21.3844 65.0147 21.2445 65.1634 21.119 65.2269C21.0718 65.2508 21.0126 65.245 20.9514 65.2412C20.9511 65.2411 20.9508 65.2411 20.9505 65.241C20.9463 65.2407 20.9422 65.2405 20.9381 65.2402C20.6763 65.477 20.4365 65.7135 20.1977 65.9645C20.1816 65.9918 20.1654 66.0193 20.1494 66.0464C20.071 66.1788 19.9985 66.3074 19.9771 66.418C19.9539 66.5377 19.8036 66.733 19.6487 66.9474C19.5481 67.0867 19.4485 67.2308 19.3814 67.3591C19.3431 67.4331 19.2569 67.464 19.1705 67.494C19.0897 67.5224 19.0066 67.5524 18.9572 67.6222C18.9324 67.6571 18.9146 67.7026 18.8961 67.7511C18.8798 67.7938 18.8629 67.8389 18.8399 67.8812C18.8185 67.9205 18.7385 67.9782 18.6338 68.0582C18.5696 68.1071 18.4972 68.1631 18.4257 68.2251C18.2909 68.4323 18.1616 68.6405 18.0343 68.8536C18.0334 68.9164 18.0458 68.9797 18.0748 69.043C18.0955 69.0885 18.1255 69.1357 18.1563 69.1839C18.1983 69.2494 18.2419 69.3168 18.2672 69.3843C18.287 69.437 18.281 69.4781 18.2509 69.4878C18.2368 69.4923 18.2178 69.4901 18.2006 69.4882C18.1809 69.4858 18.163 69.4844 18.1575 69.4932C18.1535 69.4997 18.1593 69.5132 18.1663 69.5297C18.1775 69.5559 18.1919 69.5899 18.1759 69.6156C18.1163 69.7115 18.0382 69.8124 17.9637 69.9115C17.8807 70.0217 17.8023 70.1296 17.754 70.2287C17.7005 70.3384 17.5744 70.4637 17.4518 70.5913C17.3671 70.6785 17.2796 70.7749 17.2204 70.861C17.1619 70.9461 17.1371 71.0523 17.115 71.1543C17.0892 71.2754 17.064 71.397 16.9856 71.4714C16.9697 71.4865 16.9137 71.4888 16.8436 71.4923C16.7938 71.4947 16.7369 71.4979 16.682 71.5063C16.6292 71.6259 16.5788 71.7395 16.5248 71.862C16.5294 71.8688 16.534 71.8758 16.5387 71.8829C16.5388 71.883 16.539 71.8832 16.5391 71.8833C16.6459 72.0438 16.7968 72.2535 16.6073 72.3936C16.5591 72.4294 16.4909 72.4389 16.4292 72.4488C16.3686 72.4582 16.3144 72.467 16.2923 72.4998C16.2672 72.5371 16.282 72.5963 16.2987 72.66C16.3221 72.7495 16.3499 72.8474 16.2745 72.9128C16.2693 72.9173 16.2637 72.9221 16.258 72.9271C16.2044 72.9736 16.1238 73.0492 15.9909 73.1085C15.8857 73.3669 15.7843 73.6278 15.6893 73.8908C15.5307 74.3302 15.389 74.7795 15.2792 75.2335C15.225 75.4568 15.0647 75.6577 14.8191 75.8215C14.5732 75.9812 14.2628 76.0796 13.9395 76.0838C13.6167 76.0875 13.302 75.9914 13.0622 75.7902C12.8229 75.5859 12.6826 75.3083 12.671 75.0187C12.6521 74.5511 12.6586 74.0852 12.6921 73.6194C12.6901 73.594 12.6883 73.5685 12.687 73.5432C12.6773 73.355 12.6219 73.1783 12.5714 72.9909C12.5598 72.9481 12.5483 72.905 12.5377 72.8617ZM65.97 57.5693C66.9605 57.4144 68.8703 57.4777 69.9209 57.5124C69.9401 57.513 69.9594 57.5135 69.9787 57.5141C70.228 57.5223 70.4639 57.5245 70.7402 57.5268C71.3991 57.5324 72.2893 57.5399 74.1474 57.6386C74.688 57.635 75.2287 57.633 75.7693 57.633C81.6075 57.633 87.4457 57.7618 93.2839 57.916C93.3576 57.9152 93.4326 57.9144 93.5084 57.9135C94.9727 57.8976 96.7885 57.8778 97.9293 57.9343C99.3798 58.0061 100.365 58.0728 101.174 58.1303C105.811 58.2544 110.448 58.3653 115.086 58.4111C116.539 58.4255 117.993 58.4333 119.446 58.4333C120.784 58.4333 122.123 58.4284 123.461 58.4192C124.241 58.3855 124.982 58.3454 125.669 58.3083C126.634 58.2562 127.494 58.2099 128.204 58.1948C129.915 58.1584 131.856 58.2158 133.297 58.2585C133.532 58.2655 133.755 58.2721 133.96 58.2778C135.105 58.2567 136.25 58.234 137.394 58.2109C137.471 58.2238 137.548 58.2372 137.626 58.2509C138.603 58.4226 139.804 58.4204 141.694 58.4172C142.517 58.4158 143.471 58.4143 144.594 58.4267C145.318 58.4347 145.69 58.5028 145.993 58.5583C146.083 58.5747 146.167 58.5899 146.251 58.6023C146.542 58.6445 146.849 58.5989 147.211 58.5449C147.68 58.4749 148.244 58.3908 148.988 58.4668C151.36 58.7088 152.406 58.5446 153.196 58.4204C153.428 58.3839 153.638 58.351 153.854 58.3327C154.551 58.2735 155.546 58.3322 156.297 58.4128C156.893 58.4767 158.085 58.4134 158.989 58.3327C159.331 58.3022 159.793 58.3015 160.338 58.3007C160.901 58.3 161.553 58.2993 162.251 58.2651C164.013 58.1787 164.95 58.1368 165.703 58.1032C165.917 58.0937 166.117 58.085 166.317 58.0759C166.948 58.0472 167.732 58.0236 168.525 57.9997C169.474 57.9712 170.437 57.9422 171.17 57.9035C173.07 57.9445 174.969 57.9951 176.869 58.0456C177.844 58.0718 178.781 58.2196 179.471 58.4631C180.16 58.7068 180.548 59.0246 180.548 59.354C180.548 59.6834 180.16 60.0011 179.471 60.2449C178.781 60.4884 177.844 60.6364 176.869 60.6626C174.903 60.7149 172.937 60.7672 170.972 60.8089C168.577 60.8596 166.183 60.8945 163.788 60.8945C162.113 60.8945 160.438 60.8867 158.763 60.8726C158.59 60.8711 158.418 60.8695 158.245 60.8679C156.838 60.949 155.434 61.0228 154.444 61.0491C153.627 61.0708 153.031 61.0275 152.521 60.9905C152.17 60.965 151.859 60.9425 151.545 60.9461C151.376 60.948 151.146 60.953 150.868 60.959C149.732 60.9835 147.804 61.0252 146.045 60.9461C145.265 60.9109 144.358 60.8417 143.492 60.7756C142.254 60.6812 141.1 60.5931 140.517 60.6201C139.494 60.6677 138.32 60.6274 137.283 60.5918C136.294 60.5578 135.429 60.5282 134.937 60.583C134.349 60.6486 133.848 60.6219 133.103 60.5823C132.586 60.5548 131.951 60.5213 131.089 60.5078C130.094 60.4922 129.389 60.4463 128.791 60.4072C127.948 60.3523 127.314 60.3109 126.37 60.387C125.32 60.4715 124.223 60.5252 123.359 60.4985C122.966 60.4864 122.516 60.4893 122.048 60.4924C121.428 60.4965 120.776 60.5008 120.18 60.4705C119.69 60.4455 119.284 60.3815 118.925 60.325C118.813 60.3073 118.706 60.2905 118.602 60.2756C118.211 60.2765 117.82 60.2777 117.429 60.2795C117.366 60.2898 117.3 60.3012 117.23 60.313C116.882 60.372 116.453 60.4444 115.923 60.4805C115.084 60.5376 114.347 60.5018 113.57 60.4639C112.965 60.4343 112.336 60.4035 111.614 60.4146C111.122 60.4221 110.562 60.4482 110.007 60.4741C109.182 60.5126 108.368 60.5504 107.802 60.5264C107.59 60.5174 107.407 60.4772 107.227 60.4373C107.226 60.437 107.225 60.4368 107.225 60.4365C107.212 60.4338 107.2 60.4312 107.188 60.4285C105.81 60.4591 104.431 60.4928 103.053 60.5283C102.934 60.5386 102.813 60.5488 102.693 60.5588C102.109 60.6078 101.541 60.6554 101.171 60.7229C100.77 60.7961 99.7607 60.8387 98.6975 60.8836C98.0013 60.913 97.2815 60.9433 96.6939 60.9839C96.3504 61.0076 96.0245 60.9663 95.6893 60.9236C95.3765 60.8838 95.0553 60.8429 94.7042 60.853C94.5283 60.8581 94.3384 60.8752 94.1357 60.8936C93.9572 60.9097 93.7685 60.9268 93.571 60.9373C93.3874 60.947 92.9787 60.9244 92.4545 60.8958C92.1306 60.8781 91.7626 60.858 91.3763 60.8416C90.3553 60.8674 89.3341 60.8921 88.3131 60.9151C88.1001 60.9513 87.9152 60.9984 87.7689 61.0589C87.664 61.1022 87.5746 61.1541 87.4828 61.2071C87.3579 61.2792 87.2286 61.3537 87.0504 61.4131C86.9112 61.4595 86.747 61.478 86.6367 61.4588C86.5854 61.4498 86.5459 61.4328 86.5101 61.4175C86.4691 61.4 86.4325 61.3843 86.3878 61.3848C86.3556 61.3851 86.322 61.3976 86.2808 61.4126C86.2149 61.4367 86.1293 61.4677 85.9989 61.4688C85.5139 61.4729 84.9625 61.463 84.4224 61.4532C83.8218 61.4423 83.2348 61.4317 82.7671 61.4409C82.2431 61.4513 81.4965 61.4052 80.7487 61.3592C80.227 61.3271 79.7045 61.2951 79.2562 61.282C78.817 61.2692 78.3596 61.2947 77.9167 61.3196C77.385 61.3495 76.8736 61.3784 76.4391 61.3379C76.3512 61.3297 76.242 61.2797 76.1051 61.2171C76.0081 61.1727 75.8964 61.122 75.7693 61.0752C75.2161 61.0752 74.6628 61.0732 74.1096 61.0694C74.0901 61.0761 74.0701 61.0831 74.0499 61.0901C74.0496 61.0903 74.0493 61.0904 74.049 61.0906C73.5946 61.2498 72.9729 61.4676 72.0993 61.3377C71.8773 61.3046 71.7375 61.2436 71.6116 61.1887C71.4879 61.1348 71.3773 61.0866 71.2155 61.0764C71.0317 61.0649 70.8148 61.0981 70.5782 61.1341C70.2461 61.1846 69.8751 61.2411 69.5029 61.1885C69.4774 61.1849 69.4501 61.181 69.4216 61.177C69.1518 61.1396 68.7524 61.0843 68.3549 60.9729C67.1756 60.9432 65.9961 60.9084 64.8168 60.8704C62.851 60.807 60.8848 60.7348 58.9192 60.6626C57.9629 60.6271 57.0458 60.4754 56.3695 60.2327C55.6933 59.9896 55.3133 59.6771 55.3133 59.354C55.3133 59.0309 55.6933 58.7186 56.3695 58.4756C57.0458 58.2328 57.9629 58.0812 58.9192 58.0456C60.4786 57.9883 62.0385 57.931 63.5981 57.8781C63.6798 57.8714 63.7619 57.8649 63.8437 57.8588C64.4516 57.8136 65.0157 57.7226 65.5802 57.6315C65.7099 57.6106 65.8398 57.5897 65.97 57.5693Z" fill="white"/>
<path d="M226.648 119.13C227.814 118.975 230.063 119.038 231.3 119.073C231.322 119.074 231.345 119.074 231.368 119.075C231.661 119.083 231.939 119.085 232.264 119.087C233.04 119.093 234.088 119.1 236.276 119.199C236.912 119.196 237.549 119.194 238.185 119.194C245.059 119.194 251.932 119.322 258.806 119.477C258.893 119.476 258.981 119.475 259.07 119.474C260.794 119.458 262.932 119.438 264.275 119.495C265.983 119.567 267.143 119.633 268.095 119.691C273.555 119.815 279.014 119.926 284.474 119.972C286.185 119.986 287.896 119.994 289.607 119.994C291.183 119.994 292.759 119.989 294.335 119.98C295.252 119.946 296.125 119.906 296.934 119.869C298.071 119.817 299.083 119.77 299.919 119.755C301.933 119.719 304.218 119.776 305.915 119.819C306.192 119.826 306.454 119.833 306.696 119.838C308.043 119.817 309.391 119.795 310.739 119.771C310.829 119.784 310.919 119.798 311.011 119.811C312.162 119.983 313.575 119.981 315.801 119.978C316.77 119.976 317.893 119.975 319.215 119.987C320.067 119.995 320.505 120.063 320.863 120.119C320.968 120.135 321.067 120.15 321.167 120.163C321.509 120.205 321.87 120.159 322.296 120.105C322.849 120.035 323.512 119.951 324.389 120.027C327.181 120.269 328.412 120.105 329.343 119.981C329.616 119.944 329.863 119.912 330.117 119.893C330.938 119.834 332.109 119.893 332.994 119.973C333.695 120.037 335.099 119.974 336.163 119.893C336.566 119.863 337.11 119.862 337.751 119.861C338.414 119.861 339.182 119.86 340.003 119.826C342.078 119.739 343.181 119.697 344.067 119.664C344.32 119.654 344.555 119.646 344.791 119.636C345.534 119.608 346.456 119.584 347.39 119.56C348.507 119.532 349.641 119.503 350.504 119.464C352.741 119.505 354.977 119.556 357.213 119.606C358.362 119.632 359.464 119.78 360.277 120.024C361.089 120.267 361.545 120.585 361.545 120.915C361.545 121.244 361.089 121.562 360.277 121.805C359.464 122.049 358.362 122.197 357.213 122.223C354.899 122.275 352.585 122.328 350.271 122.369C347.451 122.42 344.632 122.455 341.813 122.455C339.841 122.455 337.869 122.447 335.897 122.433C335.694 122.432 335.49 122.43 335.287 122.428C333.631 122.51 331.977 122.583 330.812 122.61C329.85 122.631 329.149 122.588 328.548 122.551C328.135 122.526 327.769 122.503 327.399 122.507C327.2 122.509 326.929 122.514 326.601 122.52C325.265 122.544 322.995 122.586 320.924 122.507C320.005 122.471 318.937 122.402 317.918 122.336C316.46 122.242 315.101 122.154 314.415 122.181C313.211 122.228 311.829 122.188 310.608 122.152C309.444 122.118 308.425 122.089 307.846 122.144C307.154 122.209 306.564 122.182 305.686 122.143C305.078 122.115 304.331 122.082 303.315 122.068C302.143 122.053 301.314 122.007 300.609 121.968C299.618 121.913 298.871 121.871 297.759 121.948C296.523 122.032 295.232 122.086 294.215 122.059C293.752 122.047 293.222 122.05 292.67 122.053C291.941 122.057 291.173 122.061 290.472 122.031C289.894 122.006 289.417 121.942 288.994 121.886C288.862 121.868 288.736 121.851 288.613 121.836C288.153 121.837 287.693 121.838 287.233 121.84C287.159 121.85 287.08 121.862 286.999 121.874C286.588 121.933 286.084 122.005 285.46 122.041C284.472 122.098 283.604 122.062 282.69 122.024C281.978 121.995 281.237 121.964 280.387 121.975C279.808 121.983 279.148 122.009 278.494 122.035C277.523 122.073 276.564 122.111 275.898 122.087C275.648 122.078 275.434 122.038 275.222 121.998C275.221 121.998 275.22 121.997 275.219 121.997C275.204 121.994 275.19 121.992 275.175 121.989C273.553 122.02 271.93 122.053 270.307 122.089C270.167 122.099 270.025 122.109 269.884 122.119C269.196 122.168 268.527 122.216 268.091 122.283C267.619 122.357 266.431 122.399 265.179 122.444C264.36 122.473 263.512 122.504 262.821 122.544C262.416 122.568 262.032 122.527 261.638 122.484C261.269 122.444 260.891 122.403 260.478 122.414C260.271 122.419 260.047 122.436 259.809 122.454C259.599 122.47 259.376 122.487 259.144 122.498C258.928 122.508 258.446 122.485 257.829 122.456C257.448 122.439 257.015 122.419 256.56 122.402C255.358 122.428 254.156 122.453 252.953 122.476C252.703 122.512 252.485 122.559 252.313 122.619C252.189 122.663 252.084 122.715 251.976 122.768C251.829 122.84 251.677 122.914 251.467 122.974C251.303 123.02 251.11 123.039 250.98 123.019C250.919 123.01 250.873 122.993 250.831 122.978C250.783 122.961 250.739 122.945 250.687 122.945C250.649 122.946 250.609 122.958 250.561 122.973C250.483 122.997 250.382 123.028 250.229 123.029C249.658 123.033 249.009 123.023 248.373 123.014C247.666 123.003 246.975 122.992 246.424 123.001C245.807 123.012 244.928 122.966 244.048 122.92C243.433 122.888 242.818 122.856 242.291 122.843C241.773 122.83 241.235 122.855 240.713 122.88C240.087 122.91 239.485 122.939 238.974 122.898C238.87 122.89 238.742 122.84 238.581 122.778C238.466 122.733 238.335 122.683 238.185 122.636C237.534 122.636 236.883 122.634 236.231 122.63C236.208 122.637 236.185 122.644 236.161 122.651C236.161 122.651 236.16 122.651 236.16 122.651C235.625 122.81 234.893 123.028 233.864 122.898C233.603 122.865 233.438 122.804 233.29 122.749C233.145 122.695 233.014 122.647 232.824 122.637C232.608 122.625 232.352 122.659 232.074 122.695C231.683 122.745 231.246 122.802 230.808 122.749C230.778 122.745 230.745 122.742 230.712 122.738C230.394 122.7 229.924 122.645 229.456 122.533C228.067 122.504 226.679 122.469 225.29 122.431C222.976 122.368 220.661 122.295 218.347 122.223C217.221 122.188 216.141 122.036 215.345 121.793C214.549 121.55 214.102 121.238 214.102 120.915C214.102 120.591 214.549 120.279 215.345 120.036C216.141 119.793 217.221 119.642 218.347 119.606C220.183 119.549 222.019 119.492 223.856 119.439C223.952 119.432 224.048 119.425 224.145 119.419C224.86 119.374 225.525 119.283 226.189 119.192C226.342 119.171 226.495 119.15 226.648 119.13Z" fill="white"/>
</svg>
