<svg width="40" height="44" viewBox="0 0 40 44" fill="none" xmlns="http://www.w3.org/2000/svg">
<path d="M20.124 0.636719C21.5844 0.687654 22.5867 1.13866 22.9814 2.53613C23.2445 3.46758 27.8303 21.5796 31.5678 34.6609C31.6453 34.9322 31.8545 35.1422 32.1246 35.2242L37.2607 36.7822C38.1891 37.1649 38.5826 37.7655 38.7204 38.4424C38.8001 38.8343 38.4986 39.1815 38.1056 39.2555L19.5834 42.7431C19.5832 42.7431 19.583 42.7433 19.583 42.7436V42.7436C19.583 42.7439 19.5827 42.7441 19.5824 42.744L1.54287 39.2581C1.15172 39.1825 0.854344 38.8362 0.93466 38.446C1.07986 37.7406 1.48979 37.0964 2.3916 36.7822L7.52779 35.2242C7.79784 35.1422 8.00702 34.9322 8.08455 34.6609C11.8223 21.5787 16.4094 3.46543 16.6719 2.53613C17.0929 1.04567 18.2043 0.630935 19.8262 0.630859L20.124 0.636719Z" fill="#FFC31F"/>
<path d="M15.6605 4.43846C15.6967 4.27446 15.7756 4.09857 15.8281 3.90245C16.0071 3.23873 16.0952 2.96331 16.2553 2.41845C16.2778 2.3449 16.3022 2.27112 16.3322 2.18925C16.4669 1.75871 16.964 0.884775 17.8068 0.559756C18.6161 0.220317 19.4179 0.255214 19.8262 0.302391C20.019 0.331847 20.1293 0.367157 20.1285 0.409956C20.1285 0.409962 20.1285 0.409967 20.1285 0.409973C20.1284 0.412181 20.1281 0.41441 20.1275 0.416658C20.1168 0.455813 19.8953 0.494131 19.828 0.537056C19.82 0.54104 19.8152 0.54506 19.8119 0.549091C19.7735 0.599112 19.7995 0.906219 19.4453 0.937436C19.1884 0.960707 18.7537 0.98469 18.3771 1.08487C17.9978 1.17778 17.6962 1.3653 17.6024 1.45022C17.4694 1.56289 17.3462 1.73865 17.2345 1.92866C17.0908 2.17327 17.0105 2.39813 16.9515 2.61514C16.8688 2.93779 16.793 3.27881 16.7259 3.72305C16.6188 3.97374 16.5003 4.26954 16.3906 4.531C16.3111 4.91433 16.1138 5.46338 16.0622 5.67526C16.0177 5.85724 16.0204 5.9757 15.9705 6.17463C15.9202 6.37697 15.7984 6.70903 15.7031 7.09841C15.5478 7.73232 15.5962 7.881 15.5091 8.25957C15.4143 8.66984 15.2134 9.26201 15.1068 9.7899C15.0996 9.85455 15.0923 9.91951 15.0849 9.98475C15.1168 9.94494 15.1488 9.90528 15.1807 9.86577C15.1247 10.1197 15.0547 10.2188 14.9923 10.4554C14.9182 10.7366 14.9211 10.8868 14.8731 11.0701C14.8336 11.221 14.7482 11.4193 14.698 11.62C14.6244 11.9135 14.6866 11.8614 14.6552 12.0166C14.6444 12.0721 14.3669 13.2366 14.3523 13.2935C14.2264 13.7818 14.1517 13.8125 14.0432 14.204C13.7455 15.2785 13.4995 16.4174 13.2549 17.4195C13.1433 17.8758 13.0181 18.334 12.8887 18.7814C12.9166 18.0331 12.3778 19.5627 12.7823 19.0451C12.6153 19.5308 12.5891 19.9002 12.4514 20.3712C12.3629 20.673 12.2724 20.8734 12.1568 21.3095C11.9519 22.0834 11.8236 22.9528 11.5862 23.1274C11.3742 24.0404 11.0971 24.8085 11.1655 25.1769C11.1118 25.413 10.856 25.9861 10.772 26.2445C10.6931 26.489 10.132 28.375 10.0432 28.6862C9.95506 28.9974 9.80342 29.5368 9.7443 29.8036C9.67008 30.1377 9.76846 30.4135 9.41696 30.9422C9.24148 31.6311 9.17015 31.8651 8.96983 32.4936C8.93354 32.6074 8.90177 32.6124 8.8829 32.6794C8.84407 32.8173 8.79887 33.0573 8.73244 33.302C8.62316 33.7044 8.49702 33.9231 8.60052 33.9025C8.53982 34.174 8.47942 34.4436 8.41935 34.7113C8.41273 34.7245 8.40611 34.7377 8.3995 34.7509C8.3532 34.857 8.29142 34.9545 8.218 35.0387C8.1262 35.2159 7.98189 35.3716 7.8035 35.4806C7.85386 35.4018 7.75255 35.4417 7.60578 35.4813C7.38081 35.5384 7.02612 35.7013 7.25659 35.6857C6.73552 35.8144 6.21444 35.9431 5.69337 36.0717C5.72011 35.9022 4.56201 36.3963 4.68723 36.4461C4.62851 36.4638 4.56978 36.4815 4.51105 36.4992C3.98533 36.6157 3.52323 36.791 2.88895 36.9546C2.69607 37.0044 2.56688 37.036 2.47455 37.0557L2.48561 37.0521C2.29688 37.1017 2.28063 37.0881 2.14438 37.0998C2.02042 37.168 1.90456 37.2476 1.80001 37.3383C1.6215 37.5966 1.54211 37.7052 1.4268 37.8308C1.31993 37.9572 1.18005 38.1067 1.10745 38.4816C1.08732 38.5907 1.1155 38.7273 1.22965 38.8357C1.25601 38.9354 1.37992 39.0682 1.57098 39.1127C2.07194 39.2278 2.73578 39.3171 3.22743 39.3862C3.3108 39.3979 3.31672 39.3749 3.42806 39.3889C3.7002 39.4236 4.38032 39.5861 4.3714 39.5063C4.60463 39.574 4.83786 39.6416 5.07109 39.7093C5.2678 39.7331 5.46452 39.7569 5.66124 39.7807C5.6648 39.757 5.66835 39.7334 5.67191 39.7097C6.04723 39.8653 6.66725 39.9531 6.96647 40.0308C7.02599 40.0464 7.03276 40.0813 7.21842 40.1263C7.4354 40.1791 7.84534 40.2484 8.10435 40.309C8.21274 40.2927 8.32113 40.2764 8.42952 40.2601C8.89996 40.3308 9.04569 40.4572 9.3183 40.5175C9.3674 40.5284 10.2689 40.6955 10.3178 40.7029C10.7179 40.7635 10.6211 40.6611 11.7661 40.9003C11.97 40.9429 12.13 41.0028 12.3146 41.0397C12.6407 41.1048 13.6369 41.2316 13.7256 41.188C14.1074 41.3378 15.1729 41.5126 15.4809 41.5941C15.5738 41.6188 15.5861 41.6695 15.8737 41.7354C16.1068 41.7889 16.7186 41.8683 17.0151 41.9321C17.3298 42 17.435 42.061 17.5761 42.0911C17.7093 42.1196 17.8388 42.1117 18.021 42.1471C18.5899 42.2582 19.0953 42.4087 19.5449 42.4966C19.5724 42.502 19.5999 42.5071 19.6272 42.5122C19.4881 42.4812 19.3428 42.6011 19.3468 42.7436C19.3468 42.7436 19.3468 42.7436 19.3468 42.7436C19.3451 42.6327 19.4308 42.5297 19.5397 42.511C20.1553 42.3887 20.6878 42.1977 21.2015 42.0597C21.3379 42.0404 21.4745 42.0355 21.6163 42.009C23.3704 41.6817 25.3517 41.3266 27.1143 41.0155C27.9325 40.871 29.9869 40.6159 29.405 40.5056C29.6817 40.415 31.761 40.1121 32.1536 40.0395C32.5462 39.9669 32.85 39.8703 33.1583 39.8117C34.0886 39.6348 34.7491 39.5388 35.8756 39.2924C36.1665 39.2286 36.4715 39.1245 36.6449 39.0924C36.8537 39.0538 37.0865 39.0552 37.3574 39.007C37.5456 38.9735 37.7808 38.9293 38.035 38.8808C38.2439 38.8453 38.3846 38.6481 38.3428 38.5192C38.2985 38.3011 38.2259 38.1197 38.1549 37.9874C38.1102 37.9064 38.1278 37.8568 38.0543 37.7401C37.7671 37.2709 37.1013 37.03 37.1695 37.1906C37.1489 37.179 37.1279 37.1677 37.1064 37.1567L37.1432 37.1698C36.4052 36.8832 35.6854 36.728 34.9809 36.5183C34.196 36.2845 33.0855 35.9419 32.006 35.6149C31.6073 35.4986 31.2811 35.163 31.1735 34.7735C30.9591 34.0347 30.7548 33.3427 30.5992 32.8607C30.3267 32.0135 30.2809 32.0586 29.9771 30.7888C29.9104 30.5089 29.8474 30.2283 29.766 29.8863C29.5763 29.0884 29.4755 28.3327 29.1909 27.7641C28.9809 26.8753 28.7686 26.1823 28.6939 25.5013C28.6484 25.4311 28.6029 25.3608 28.5575 25.2905C28.5276 25.1829 28.4978 25.0752 28.468 24.9675C28.4823 24.9275 28.4967 24.8875 28.5111 24.8475C28.3082 24.0731 27.9481 23.1206 27.7727 22.4638C27.4788 21.3674 26.7632 18.5279 26.5207 17.4795C26.391 16.9206 26.3332 16.9056 26.3539 16.5643C26.3141 16.4425 26.2737 16.3186 26.2338 16.1965C26.1906 16.1246 26.1475 16.053 26.1045 15.9815C25.9181 15.2776 25.7318 14.4248 25.5535 13.7458C25.2306 12.5167 24.6848 10.6791 24.4048 9.43106C24.3332 9.11296 24.2833 8.72815 24.2012 8.41354C24.0857 7.97071 23.9816 7.88881 23.8336 7.32259C23.5812 6.3574 23.2051 4.52559 22.9629 3.61853C22.9248 3.47542 22.8932 3.38561 22.8641 3.30572C22.8301 3.20727 22.8011 3.12845 22.7771 3.04317C22.7364 2.89792 22.693 2.73928 22.6599 2.62696C22.4982 2.085 22.2281 1.66036 21.7628 1.41697C21.175 1.02289 21.2006 1.00415 20.9908 0.839504C20.826 0.718299 20.2308 0.492342 20.142 0.429287C20.0811 0.380153 20.3168 0.330426 20.2318 0.275417C21.274 0.309564 21.8227 0.471828 22.4871 1.12366C22.8835 1.48586 23.1267 1.974 23.2624 2.45675C23.5306 3.45639 23.7887 4.46548 24.0485 5.45994C24.0547 5.59565 24.0618 5.7349 24.0698 5.87758C24.0697 5.8776 24.0697 5.87761 24.0696 5.87763C24.1823 6.44283 24.3149 6.6681 24.4078 6.96229C25.3056 9.81619 26.6639 15.5044 27.492 18.6838C27.6684 19.3655 28.2987 21.5814 28.3802 22.0585C28.4013 22.1828 28.3688 22.2277 28.4016 22.3572C28.7359 23.5038 29.0714 24.6483 29.4092 25.7933C29.9883 28.1787 30.7157 30.6098 31.3971 32.9853C31.5481 33.5114 31.705 34.0554 31.8568 34.5783C31.9052 34.7476 32.0426 34.8838 32.2128 34.9331C33.9314 35.4464 35.6456 35.9583 37.3554 36.47L37.3851 36.4806C38.1622 36.7639 38.9065 37.501 39.0479 38.3757C39.1796 38.9788 38.6785 39.5062 38.1681 39.5874C35.3471 40.1268 32.5351 40.6601 29.7296 41.1839C28.4796 41.4171 26.8999 41.7474 25.6727 41.9573C25.1606 42.045 24.935 42.017 24.2739 42.194C24.2634 42.177 24.2529 42.16 24.2424 42.143C23.6613 42.2753 23.2951 42.3874 22.6396 42.5152C22.0877 42.6228 20.6261 42.9008 20.1365 42.9857C19.8826 43.0299 19.9705 42.9779 19.7344 43.0226C19.7051 43.0281 19.6733 43.0344 19.6395 43.0413C19.7789 43.0173 19.8886 42.8855 19.8865 42.7436C19.8865 42.7436 19.8865 42.7436 19.8865 42.7436C19.8916 42.9272 19.7044 43.0819 19.5249 43.042C19.0907 42.9647 18.3043 42.8548 17.788 42.7551C17.2831 42.6575 16.4395 42.4537 16.0503 42.3844C14.6484 42.1345 13.1145 41.8986 11.6278 41.5951C11.2171 41.5112 10.6964 41.3645 10.5673 41.3409C10.315 41.2948 10.2317 41.3234 10.0615 41.2962C9.19723 41.1582 7.86823 40.8483 7.02671 40.6836C5.21552 40.3291 3.33115 39.9719 1.47373 39.6159C0.95175 39.533 0.440948 38.9882 0.576667 38.3723C0.697936 37.7227 1.10056 37.0706 1.68226 36.7203C1.85908 36.6089 2.05829 36.5142 2.2724 36.4401L2.28643 36.4355C3.84636 35.9649 6.00233 35.3083 7.42921 34.8992C7.50274 34.879 7.56729 34.8436 7.61976 34.7999C7.74992 34.6716 7.7625 34.698 7.81555 34.584C7.82335 34.5608 7.83172 34.5338 7.84086 34.5018C7.92944 34.1915 7.9465 34.0127 7.98562 33.8655C8.25717 32.8469 8.85268 30.597 9.14898 29.6472C9.20602 29.4649 9.27856 29.3438 9.3086 29.2345C9.32384 29.1793 9.33352 29.0477 9.37887 28.8733C9.77946 27.3317 10.0991 26.2165 10.5156 24.7128C11.3131 21.8321 12.1568 18.4784 12.9811 15.4465C13.1598 14.7898 13.3525 14.3487 13.3754 14.2585C13.4267 14.0568 13.4129 13.9121 13.51 13.4928C13.8308 12.1081 14.3656 10.2679 14.6805 8.95376C14.8342 8.31261 15.0076 7.38944 15.1544 6.76558C15.2788 6.23975 15.6085 5.06291 15.6419 4.82195C15.6603 4.68309 15.622 4.61483 15.6605 4.43846ZM11.9921 21.7632C11.9328 21.6502 11.7481 22.6172 11.8884 22.2734C11.9201 22.1958 12.0077 21.7922 11.9921 21.7632ZM23.9911 41.7161C23.9777 41.6935 23.9642 41.6709 23.9508 41.6482C23.8259 41.6822 23.7011 41.7162 23.5762 41.7502C23.6502 41.7514 23.7242 41.7526 23.7982 41.7538C23.8625 41.7412 23.9268 41.7287 23.9911 41.7161Z" fill="#C95700"/>
<path d="M20.1797 0.637695C21.6234 0.693798 22.6137 1.14784 23.0059 2.53516C23.2683 3.46423 27.856 21.5789 31.5938 34.6611C31.6713 34.9324 31.8804 35.1427 32.1504 35.2246L37.2861 36.7822C38.2141 37.1648 38.6082 37.7649 38.7461 38.4414C38.826 38.8332 38.5238 39.1809 38.1309 39.2549L28.9424 40.9854L28.4561 39.2637L25.1084 37.9668C23.9603 26.4844 21.6789 3.49608 21.4873 2.59277C21.224 1.35163 20.6796 0.915243 20.1797 0.637695Z" fill="#FF9627"/>
<path d="M27.917 21.2856C28.3347 22.8475 28.7609 24.4354 29.1914 26.0181C25.7367 27.1551 22.5976 27.7906 19.4619 27.8149C16.4453 27.8383 13.5376 27.297 10.4531 26.2319C10.8844 24.6481 11.3105 23.0574 11.7295 21.4917C14.5328 22.4933 16.977 22.9394 19.4238 22.9204C21.9911 22.9005 24.6821 22.3706 27.917 21.2856ZM27.2656 18.853C24.551 19.6176 22.0053 20.0403 19.4619 20.0601C17.0788 20.0785 14.7633 19.7451 12.375 19.0796C12.8097 17.4432 13.2296 15.853 13.625 14.3462C15.6658 14.9206 17.5442 15.1801 19.4238 15.1655C21.4716 15.1496 23.5982 14.8088 26.0166 14.1216C26.411 15.6254 26.8307 17.215 27.2656 18.853Z" fill="#FF6940"/>
<path d="M16.0576 38.0124C16.0689 38.0151 16.0842 38.0269 16.0974 38.0314C16.1528 38.0506 16.1731 38.0605 16.2234 38.0765C16.298 38.0999 16.5213 38.1581 16.5216 38.155C16.5216 38.155 16.5216 38.155 16.5216 38.155C16.5216 38.155 16.5216 38.155 16.5216 38.155C16.5216 38.155 16.5216 38.155 16.5216 38.155C16.5216 38.155 16.5216 38.155 16.5215 38.155C16.5207 38.1547 16.5015 38.1523 16.4986 38.1526C16.4958 38.1529 16.4977 38.1552 16.4701 38.1572C16.43 38.1604 16.3342 38.1603 16.3129 38.1603C16.2983 38.1608 16.2801 38.1641 16.2614 38.1656C16.2009 38.1706 16.1697 38.1678 16.114 38.185C16.0928 38.1796 16.0717 38.173 16.0507 38.1651C16.022 38.17 15.9801 38.1586 15.9629 38.1591C15.9487 38.1597 15.9397 38.1682 15.9249 38.169C15.9083 38.17 15.8839 38.1606 15.8537 38.1622C15.8043 38.1649 15.7928 38.1931 15.7627 38.1987C15.7314 38.2048 15.6853 38.1897 15.6447 38.2032C15.6393 38.2072 15.634 38.2113 15.6286 38.2154C15.6313 38.2239 15.6339 38.2322 15.6366 38.2404C15.6162 38.2464 15.6095 38.2292 15.5912 38.2302C15.5697 38.2313 15.5568 38.2504 15.5422 38.2517C15.5303 38.2529 15.5158 38.2391 15.5003 38.2411C15.4777 38.2442 15.4801 38.2667 15.4675 38.2722C15.4625 38.2742 15.3713 38.2973 15.3662 38.2983C15.3275 38.3038 15.3283 38.2681 15.2981 38.267C15.2145 38.2636 15.1231 38.3012 15.0424 38.3213C15.0064 38.33 14.97 38.3302 14.9359 38.3246C15.0062 38.2036 14.898 38.1076 14.9181 38.2997C14.8828 38.2734 14.8484 38.3272 14.8124 38.3197C14.7892 38.3145 14.7766 38.2864 14.7424 38.2873C14.682 38.2882 14.6033 38.3764 14.6086 38.2176C14.5342 38.2435 14.4827 38.1795 14.4355 38.3254C14.4158 38.3342 14.3822 38.2434 14.3639 38.2294C14.3461 38.2174 14.2059 38.1619 14.1827 38.156C14.1592 38.1509 14.118 38.143 14.0957 38.1542C14.0679 38.1678 14.0231 38.3305 14.0098 38.1312C13.9619 38.138 13.9423 38.1323 13.9085 38.1103C13.9036 38.1071 13.8984 38.1036 13.8927 38.0997C13.8847 38.0941 13.8886 38.0652 13.8835 38.0643C13.873 38.0625 13.8515 38.0807 13.8323 38.08C13.8007 38.0789 13.7938 38.0155 13.781 38.1082C13.758 38.1201 13.735 38.1319 13.7119 38.1438C13.708 38.1247 13.704 38.1057 13.7001 38.0866C13.6858 38.1041 13.6715 38.1215 13.6572 38.1389C13.6941 38.008 13.6031 38.0727 13.6141 38.1537C13.5793 38.1189 13.5448 38.084 13.5105 38.0491C13.5443 37.8989 13.4275 38.0154 13.4195 38.099C13.415 38.0981 13.4105 38.0971 13.406 38.0961C13.3743 38.0484 13.3318 38.0743 13.2892 38.0379C13.2469 38.0016 13.2539 37.9877 13.2532 37.9154C13.2411 37.9171 13.229 37.9188 13.2168 37.9205C13.119 38.0988 13.1963 37.7717 13.0654 37.8967C13.058 37.7706 12.9661 37.8167 12.9061 37.8416C12.8991 37.8445 12.8939 37.8676 12.8841 37.873C12.8603 37.8858 12.8155 37.8449 12.8009 37.9199C12.7878 37.8944 12.7749 37.8689 12.762 37.8434C12.7446 37.8537 12.7271 37.8641 12.7096 37.8744C12.7045 37.8977 12.6993 37.921 12.6942 37.9443C12.6828 37.8584 12.6305 37.8786 12.6124 37.8545C12.6088 37.8496 12.6152 37.8174 12.6034 37.8054C12.5896 37.7913 12.5574 37.7939 12.5406 37.7794C12.5248 37.8132 12.5091 37.8469 12.4931 37.8806C12.4535 37.8916 12.4634 37.7951 12.4447 37.783C12.4413 37.7809 12.3728 37.7715 12.3688 37.7726C12.3355 37.7813 12.3243 37.8631 12.2434 37.8251C12.2291 37.8182 12.2237 37.7877 12.2104 37.7832C12.1869 37.7753 12.0987 37.8193 12.0778 37.8752C12.0664 37.7956 11.9798 37.8046 11.9621 37.7776C11.9568 37.7694 11.9673 37.7232 11.9485 37.7078C11.9333 37.6953 11.879 37.72 11.8588 37.708C11.8374 37.6951 11.8396 37.6544 11.83 37.6489C11.8209 37.6437 11.8035 37.6722 11.7902 37.6684C11.7483 37.6558 11.7237 37.5952 11.6909 37.585C11.6434 37.5701 11.5751 37.6496 11.5232 37.6786C11.515 37.6698 11.511 37.6473 11.5007 37.6441C11.3742 37.6042 11.2302 37.542 11.1104 37.4821C11.0529 37.4542 10.9454 37.2823 10.9168 37.5C10.8833 37.5289 10.7627 37.3959 10.734 37.3842C10.7056 37.3729 10.6698 37.4012 10.647 37.3937C10.5782 37.3709 10.5404 37.3275 10.4476 37.3287C10.4239 37.3293 10.3839 37.3631 10.3714 37.3578C10.3563 37.3512 10.3556 37.3035 10.3369 37.2933C10.2921 37.2692 10.2001 37.2485 10.1591 37.2234C10.1516 37.2188 10.1634 37.1816 10.1566 37.1657C10.1296 37.1033 10.0768 37.0856 10.0379 37.204C10.0066 37.1144 9.92825 37.1508 9.8735 37.131C9.75527 37.0885 9.56701 36.9677 9.44265 36.9626C9.36599 36.9605 9.34093 37.0107 9.27393 36.9207C9.2596 36.901 9.24555 36.877 9.22709 36.8524C9.18328 36.7943 9.18416 36.6762 9.07968 36.759C9.03601 36.6962 8.97103 36.6834 8.98258 36.5653C8.96374 36.5836 8.94483 36.6018 8.92587 36.6199C8.91802 36.6157 8.91019 36.6115 8.90238 36.6072C8.91313 36.5853 8.92391 36.5633 8.93472 36.5414C8.88681 36.5031 8.76316 36.5404 8.71762 36.5075C8.6429 36.4561 8.47391 36.2763 8.43195 36.1934C8.40737 36.1487 8.37042 36.1852 8.42251 36.0881C8.40979 36.0865 8.39708 36.0849 8.38436 36.0832C8.3636 36.0958 8.34274 36.1084 8.3218 36.1208C8.27707 36.0799 8.25082 36.0018 8.21033 35.9581C8.13866 35.8831 7.98011 35.787 7.95398 35.6644C7.94694 35.6335 7.96992 35.5778 7.95599 35.5541C7.93571 35.5192 7.86065 35.5495 7.83434 35.4997C7.78658 35.4122 7.81628 35.2145 7.79424 35.1309C7.78686 35.1056 7.75537 35.0989 7.74903 35.0805C7.72268 35.0037 7.71978 34.9388 7.67355 34.86C7.75161 34.7761 7.85203 34.7919 7.95304 34.777C8.02954 34.7646 8.2085 34.7433 8.27467 34.7496C8.32113 34.753 8.37869 34.7732 8.43001 34.7758C8.46468 34.8281 8.41953 34.8381 8.34815 34.8826C8.35326 34.9612 8.37144 35.038 8.40228 35.115C8.37852 35.1314 8.35513 35.1486 8.3321 35.1664C8.33204 35.1664 8.33199 35.1664 8.33193 35.1664C8.31502 35.2113 8.38775 35.1971 8.41002 35.2063C8.60871 35.2881 8.7423 35.6196 8.91762 35.779C8.95186 35.8131 9.0993 35.8766 9.10063 35.9319C9.1009 35.9466 9.07818 35.9832 9.08484 35.9902C9.17008 36.0184 9.25096 36.0406 9.33615 36.0632C9.44805 36.211 9.63421 36.2502 9.79497 36.3192C10.2351 36.5079 10.6862 36.6469 11.1329 36.8077C11.2194 36.8389 11.3408 36.8443 11.4194 36.8904C11.4525 36.9098 11.4472 36.9804 11.5098 36.9457C11.5049 36.9636 11.4999 36.9816 11.495 36.9995C11.5431 36.9907 11.5824 36.9583 11.6298 36.9679C11.6692 36.9759 11.7729 37.0031 11.8058 37.0198C11.8228 37.0283 11.8066 37.0598 11.8235 37.0644C11.8524 37.072 11.9277 37.0431 11.9671 37.0539C12.0026 37.0637 12.0526 37.1186 12.0818 37.1203C12.1867 37.127 12.3121 37.098 12.4135 37.1395C12.4417 37.1511 12.469 37.2041 12.4786 37.2052C12.4974 37.207 12.5131 37.1658 12.5265 37.1633C12.5949 37.1507 12.68 37.2241 12.7396 37.2398C12.9357 37.2919 13.1497 37.3183 13.3473 37.366C13.4716 37.3962 13.6814 37.4281 13.7925 37.4813C13.8163 37.4928 13.8012 37.5387 13.8222 37.5425C13.8456 37.5466 13.8638 37.517 13.8752 37.5163C13.9084 37.5144 13.9584 37.5126 14.0101 37.5145C14.0808 37.517 14.1549 37.5286 14.1926 37.5554C14.2051 37.5643 14.209 37.6028 14.2171 37.6043C14.2212 37.6051 14.2345 37.5821 14.2478 37.5822C14.3649 37.5834 14.4457 37.6173 14.556 37.6518C14.7667 37.7158 15.0184 37.7472 15.2403 37.8291C15.2887 37.8468 15.3173 37.8994 15.3243 37.9003C15.3396 37.903 15.3526 37.8766 15.3839 37.8782C15.4879 37.8852 15.6225 37.9492 15.7211 37.964C15.7697 37.9716 15.8377 37.9692 15.8852 37.9802C15.9231 37.989 16.0117 38.0219 16.029 38.0205C16.0396 38.0198 16.0453 38.0096 16.0576 38.0124ZM14.7109 38.2529C14.7279 38.1817 14.6458 38.2392 14.668 38.279C14.673 38.2878 14.7066 38.2714 14.7109 38.2529ZM11.3718 37.4479C11.3653 37.4718 11.3588 37.4956 11.3523 37.5194C11.3646 37.5124 11.3769 37.5054 11.3892 37.4984C11.3882 37.4826 11.3873 37.4668 11.3863 37.451C11.3815 37.45 11.3766 37.449 11.3718 37.4479Z" fill="#C95700"/>
<path d="M23.5869 38.0129C23.5756 38.0156 23.5604 38.0274 23.5471 38.0319C23.4917 38.0511 23.4714 38.061 23.4211 38.077C23.3465 38.1004 23.1232 38.1586 23.123 38.1555C23.123 38.1555 23.123 38.1555 23.123 38.1555C23.123 38.1555 23.123 38.1555 23.123 38.1555C23.123 38.1555 23.123 38.1555 23.123 38.1555C23.123 38.1555 23.123 38.1555 23.123 38.1555C23.1238 38.1552 23.143 38.1528 23.1459 38.1531C23.1488 38.1534 23.1468 38.1557 23.1745 38.1577C23.2146 38.1609 23.3103 38.1608 23.3316 38.1607C23.3462 38.1613 23.3644 38.1646 23.3832 38.1661C23.4437 38.1711 23.4748 38.1683 23.5305 38.1855C23.5517 38.1801 23.5728 38.1735 23.5938 38.1655C23.6225 38.1705 23.6644 38.1591 23.6816 38.1596C23.6958 38.1602 23.7048 38.1687 23.7196 38.1695C23.7362 38.1705 23.7607 38.1611 23.7908 38.1627C23.8402 38.1654 23.8518 38.1936 23.8819 38.1991C23.9131 38.2052 23.9592 38.1902 23.9999 38.2037C24.0052 38.2077 24.0106 38.2118 24.0159 38.2159C24.0133 38.2243 24.0106 38.2327 24.0079 38.2409C24.0283 38.2469 24.035 38.2297 24.0533 38.2307C24.0748 38.2318 24.0878 38.2509 24.1023 38.2522C24.1142 38.2534 24.1287 38.2396 24.1442 38.2416C24.1668 38.2447 24.1644 38.2671 24.1771 38.2727C24.182 38.2747 24.2732 38.2978 24.2784 38.2988C24.317 38.3043 24.3162 38.2686 24.3464 38.2675C24.4301 38.2641 24.5214 38.3017 24.6021 38.3218C24.6381 38.3305 24.6745 38.3307 24.7086 38.3251C24.6384 38.2041 24.7466 38.1081 24.7265 38.3001C24.7617 38.2739 24.7961 38.3277 24.8321 38.3202C24.8553 38.315 24.868 38.2868 24.9021 38.2878C24.9625 38.2887 25.0412 38.3769 25.0359 38.2181C25.1103 38.244 25.1619 38.18 25.209 38.3259C25.2288 38.3347 25.2623 38.2439 25.2807 38.2299C25.2984 38.2179 25.4386 38.1624 25.4619 38.1565C25.4854 38.1514 25.5266 38.1435 25.5488 38.1547C25.5766 38.1683 25.6215 38.331 25.6347 38.1317C25.6826 38.1385 25.7022 38.1328 25.736 38.1108C25.7409 38.1076 25.7462 38.1041 25.7518 38.1001C25.7599 38.0946 25.7559 38.0657 25.761 38.0648C25.7715 38.063 25.793 38.0812 25.8122 38.0805C25.8438 38.0794 25.8507 38.016 25.8635 38.1087C25.8865 38.1206 25.9096 38.1324 25.9326 38.1443C25.9366 38.1252 25.9405 38.1062 25.9444 38.0871C25.9587 38.1046 25.973 38.122 25.9874 38.1394C25.9504 38.0085 26.0414 38.0732 26.0304 38.1542C26.0652 38.1194 26.0997 38.0845 26.134 38.0496C26.1002 37.8994 26.217 38.0159 26.2251 38.0995C26.2296 38.0985 26.234 38.0976 26.2385 38.0966C26.2703 38.0489 26.3127 38.0748 26.3553 38.0384C26.3976 38.0021 26.3906 37.9882 26.3913 37.9159C26.4035 37.9176 26.4156 37.9193 26.4277 37.921C26.5256 38.0993 26.4483 37.7722 26.5791 37.8972C26.5865 37.7711 26.6784 37.8172 26.7385 37.8421C26.7454 37.845 26.7506 37.8681 26.7604 37.8735C26.7843 37.8863 26.829 37.8454 26.8436 37.9204C26.8567 37.8949 26.8696 37.8694 26.8825 37.8439C26.9 37.8542 26.9174 37.8646 26.9349 37.8749C26.9401 37.8982 26.9452 37.9215 26.9503 37.9448C26.9617 37.8589 27.0141 37.8791 27.0322 37.855C27.0357 37.8501 27.0294 37.8178 27.0412 37.8059C27.0549 37.7918 27.0872 37.7944 27.104 37.7799C27.1197 37.8136 27.1354 37.8474 27.1514 37.8811C27.191 37.8921 27.1811 37.7956 27.1998 37.7835C27.2032 37.7813 27.2717 37.772 27.2758 37.7731C27.309 37.7818 27.3202 37.8636 27.4011 37.8256C27.4154 37.8187 27.4208 37.7882 27.4341 37.7837C27.4576 37.7757 27.5458 37.8198 27.5668 37.8757C27.5782 37.7961 27.6647 37.8051 27.6824 37.7781C27.6877 37.7699 27.6772 37.7237 27.696 37.7083C27.7112 37.6957 27.7655 37.7205 27.7857 37.7085C27.8071 37.6956 27.805 37.6549 27.8145 37.6494C27.8236 37.6442 27.8411 37.6727 27.8543 37.6689C27.8962 37.6563 27.9208 37.5957 27.9537 37.5855C28.0012 37.5706 28.0694 37.6501 28.1213 37.679C28.1295 37.6702 28.1335 37.6478 28.1439 37.6446C28.2703 37.6047 28.4143 37.5425 28.5342 37.4826C28.5916 37.4547 28.6991 37.2827 28.7277 37.5005C28.7612 37.5293 28.8818 37.3964 28.9105 37.3847C28.939 37.3734 28.9747 37.4017 28.9975 37.3942C29.0663 37.3714 29.1041 37.328 29.197 37.3292C29.2206 37.3298 29.2606 37.3636 29.2731 37.3583C29.2883 37.3517 29.2889 37.304 29.3076 37.2937C29.3525 37.2697 29.4444 37.2489 29.4855 37.2239C29.4929 37.2193 29.4811 37.1821 29.4879 37.1662C29.515 37.1038 29.5677 37.0861 29.6067 37.2045C29.6379 37.1149 29.7163 37.1513 29.771 37.1315C29.8893 37.089 30.0775 36.9682 30.2019 36.9631C30.2785 36.961 30.3036 37.0112 30.3706 36.9212C30.3849 36.9014 30.399 36.8775 30.4174 36.8529C30.4612 36.7947 30.4604 36.6767 30.5649 36.7595C30.6085 36.6967 30.6735 36.6839 30.662 36.5658C30.6808 36.584 30.6997 36.6022 30.7187 36.6204C30.7265 36.6162 30.7343 36.6119 30.7421 36.6077C30.7314 36.5857 30.7206 36.5638 30.7098 36.5419C30.7577 36.5036 30.8814 36.5409 30.9269 36.508C31.0016 36.4566 31.1706 36.2768 31.2126 36.1939C31.2372 36.1492 31.2741 36.1857 31.222 36.0885C31.2347 36.087 31.2475 36.0854 31.2602 36.0837C31.2809 36.0963 31.3018 36.1089 31.3227 36.1213C31.3675 36.0804 31.3937 36.0022 31.4342 35.9586C31.5059 35.8836 31.6644 35.7875 31.6906 35.6649C31.6976 35.634 31.6746 35.5783 31.6885 35.5546C31.7088 35.5197 31.7839 35.55 31.8102 35.5002C31.8579 35.4127 31.8282 35.215 31.8503 35.1314C31.8577 35.1061 31.8892 35.0994 31.8955 35.081C31.9219 35.0042 31.9248 34.9393 31.971 34.8605C31.8929 34.7765 31.7925 34.7924 31.6915 34.7775C31.615 34.7651 31.436 34.7437 31.3699 34.75C31.3234 34.7535 31.2658 34.7737 31.2145 34.7762C31.1799 34.8286 31.225 34.8386 31.2964 34.8831C31.2913 34.9617 31.2731 35.0384 31.2423 35.1155C31.266 35.1319 31.2894 35.1491 31.3124 35.1669C31.3125 35.1669 31.3125 35.1669 31.3126 35.1669C31.3295 35.2118 31.2568 35.1976 31.2345 35.2068C31.0358 35.2886 30.9022 35.6201 30.7269 35.7794C30.6927 35.8136 30.5452 35.8771 30.5439 35.9324C30.5436 35.9471 30.5664 35.9837 30.5597 35.9906C30.4744 36.0189 30.3936 36.0411 30.3084 36.0637C30.1965 36.2115 30.0103 36.2507 29.8496 36.3197C29.4095 36.5084 28.9583 36.6474 28.5116 36.8082C28.4251 36.8394 28.3037 36.8447 28.2251 36.8909C28.192 36.9102 28.1973 36.9809 28.1348 36.9462C28.1397 36.9641 28.1446 36.9821 28.1495 37C28.1015 36.9911 28.0621 36.9588 28.0148 36.9684C27.9753 36.9764 27.8716 37.0036 27.8388 37.0202C27.8217 37.0288 27.8379 37.0603 27.821 37.0649C27.7921 37.0725 27.7169 37.0436 27.6774 37.0544C27.6419 37.0641 27.592 37.119 27.5627 37.1208C27.4579 37.1275 27.3324 37.0985 27.2311 37.14C27.2028 37.1516 27.1755 37.2046 27.1659 37.2057C27.1472 37.2075 27.1315 37.1663 27.118 37.1638C27.0497 37.1511 26.9645 37.2246 26.905 37.2403C26.7088 37.2924 26.4948 37.3187 26.2972 37.3665C26.1729 37.3967 25.9631 37.4286 25.852 37.4818C25.8283 37.4933 25.8434 37.5392 25.8223 37.5429C25.799 37.5471 25.7807 37.5175 25.7693 37.5168C25.7361 37.5149 25.6862 37.5131 25.6345 37.515C25.5638 37.5175 25.4896 37.529 25.452 37.5559C25.4395 37.5648 25.4356 37.6033 25.4274 37.6048C25.4233 37.6056 25.41 37.5826 25.3968 37.5827C25.2796 37.5839 25.1988 37.6178 25.0885 37.6523C24.8778 37.7162 24.6261 37.7477 24.4043 37.8295C24.3559 37.8473 24.3272 37.8998 24.3203 37.9008C24.305 37.9035 24.2919 37.8771 24.2606 37.8786C24.1566 37.8856 24.0221 37.9497 23.9234 37.9645C23.8749 37.9721 23.8069 37.9697 23.7594 37.9807C23.7215 37.9895 23.6329 38.0224 23.6155 38.021C23.605 38.0203 23.5992 38.0101 23.5869 38.0129ZM24.9336 38.2534C24.9167 38.1821 24.9987 38.2396 24.9765 38.2795C24.9715 38.2883 24.938 38.2719 24.9336 38.2534ZM28.2727 37.4484C28.2792 37.4723 28.2858 37.4961 28.2923 37.5199C28.28 37.5129 28.2676 37.5059 28.2553 37.4989C28.2563 37.4831 28.2573 37.4673 28.2582 37.4515C28.263 37.4505 28.2679 37.4495 28.2727 37.4484Z" fill="#C95700"/>
<path d="M37.1855 37.4775C37.4649 37.4249 38.0936 37.3956 38.377 37.6963C38.4503 37.7741 38.5297 37.8805 38.6104 38.001C38.6702 38.1436 38.7152 38.2914 38.7461 38.4434C38.8256 38.835 38.5246 39.1818 38.1318 39.2559L20.2344 42.627C19.9596 42.5981 19.5581 42.3985 19.5684 41.7441C19.583 40.8144 19.9469 40.4946 20.6152 40.4365C21.1553 40.389 31.8863 38.4442 37.1855 37.4775Z" fill="#FF9727"/>
<path d="M15.6838 4.43796C15.72 4.27398 15.7989 4.09794 15.8514 3.90196C16.0305 3.23805 16.1185 2.96275 16.2787 2.41748C16.3012 2.34406 16.3255 2.27047 16.3555 2.18877C16.4901 1.75824 16.9873 0.884082 17.8302 0.559349C18.6397 0.220187 19.4413 0.255231 19.8496 0.302393C20.0414 0.331218 20.1519 0.366166 20.1512 0.408966C20.1512 0.408972 20.1512 0.408977 20.1512 0.408983C20.1511 0.411192 20.1508 0.413421 20.1502 0.415671C20.1397 0.454858 19.9183 0.493899 19.8511 0.53704C19.8435 0.541033 19.8386 0.545056 19.8354 0.549091C19.7969 0.599109 19.8229 0.906228 19.4687 0.937418C19.2118 0.960671 18.777 0.984575 18.4004 1.08464C18.0211 1.17744 17.7194 1.36486 17.6257 1.44977C17.4927 1.5624 17.3694 1.73812 17.2577 1.92813C17.1142 2.17256 17.0339 2.39729 16.975 2.61417C16.8922 2.93705 16.8164 3.278 16.7492 3.7226C16.6422 3.97317 16.5236 4.26899 16.4139 4.53049C16.3345 4.91376 16.1372 5.46283 16.0855 5.67474C16.041 5.85672 16.0437 5.97525 15.9939 6.17409C15.9435 6.37643 15.8217 6.70857 15.7264 7.09787C15.5711 7.73183 15.6195 7.88043 15.5325 8.25904C15.4376 8.66933 15.2367 9.26148 15.1301 9.78934C15.1229 9.854 15.1156 9.91895 15.1082 9.9842C15.1402 9.94439 15.1721 9.90473 15.204 9.86521C15.1481 10.1192 15.078 10.2182 15.0156 10.4549C14.9415 10.7361 14.9444 10.8862 14.8965 11.0696C14.857 11.2205 14.7716 11.4188 14.7213 11.6195C14.6477 11.913 14.71 11.8608 14.6786 12.0161C14.6677 12.0716 14.3902 13.236 14.3756 13.293C14.2497 13.7813 14.175 13.8119 14.0665 14.2034C13.7688 15.2779 13.5228 16.4168 13.2782 17.4189C13.1667 17.8752 13.0415 18.3334 12.9121 18.7808C12.94 18.0325 12.4011 19.5621 12.8056 19.0445C12.6386 19.5302 12.6124 19.8996 12.4747 20.3706C12.3863 20.6724 12.2958 20.8728 12.1801 21.3089C11.9753 22.0827 11.847 22.9522 11.6095 23.1268C11.3975 24.0398 11.1205 24.8078 11.1888 25.1762C11.1352 25.4123 10.8793 25.9855 10.7953 26.2438C10.7165 26.4884 10.1553 28.3744 10.0665 28.6856C9.97841 28.9967 9.82677 29.5361 9.76766 29.8029C9.69344 30.137 9.79182 30.4128 9.44031 30.9415C9.26484 31.6305 9.19351 31.8644 8.99319 32.4929C8.9569 32.6067 8.92513 32.6117 8.90625 32.6787C8.86742 32.8166 8.82223 33.0566 8.7558 33.3013C8.64651 33.7037 8.52038 33.9224 8.62387 33.9018C8.56318 34.1733 8.50278 34.4429 8.44271 34.7106C8.43613 34.7237 8.42956 34.7368 8.42299 34.7499C8.37663 34.8562 8.31476 34.9537 8.24123 35.038C8.14937 35.2153 8.00501 35.3709 7.82658 35.4798C7.87694 35.401 7.77581 35.4408 7.62922 35.4803C7.40427 35.5374 7.0492 35.7004 7.27976 35.6848C6.75869 35.8135 6.23762 35.9422 5.71655 36.0708C5.74329 35.9013 4.5852 36.3954 4.71042 36.4452C4.6517 36.4629 4.59297 36.4806 4.53424 36.4983C4.00852 36.6148 3.54643 36.7901 2.91215 36.9537C2.71944 37.0034 2.59031 37.035 2.49799 37.0547L2.50906 37.0511C2.32013 37.1008 2.30392 37.0872 2.16761 37.0989C2.04368 37.1671 1.92782 37.2467 1.82328 37.3374C1.64483 37.5957 1.56545 37.7044 1.45017 37.83C1.34332 37.9564 1.20349 38.1059 1.13089 38.4806C1.11074 38.5898 1.13894 38.7265 1.2532 38.8349C1.27958 38.9346 1.40345 39.0673 1.59442 39.1117C2.0954 39.2269 2.75936 39.3162 3.25108 39.3853C3.33445 39.397 3.34036 39.3739 3.45171 39.388C3.72385 39.4226 4.40396 39.5852 4.39504 39.5054C4.62827 39.5731 4.8615 39.6407 5.09472 39.7084C5.29144 39.7322 5.48816 39.756 5.68487 39.7798C5.68843 39.7561 5.69199 39.7325 5.69554 39.7088C6.07086 39.8644 6.69087 39.9523 6.99009 40.0299C7.04961 40.0455 7.05638 40.0804 7.24204 40.1254C7.45901 40.1783 7.86896 40.2475 8.12796 40.3081C8.23635 40.2918 8.34474 40.2755 8.45313 40.2592C8.92356 40.3299 9.06929 40.4564 9.3419 40.5167C9.391 40.5275 10.2925 40.6947 10.3414 40.702C10.7415 40.7627 10.6446 40.6602 11.7897 40.8995C11.9936 40.9421 12.1536 41.002 12.3382 41.0388C12.6643 41.104 13.6605 41.2307 13.7491 41.1872C14.131 41.337 15.1964 41.5118 15.5044 41.5933C15.5974 41.618 15.6096 41.6687 15.8972 41.7346C16.1304 41.7881 16.7421 41.8675 17.0386 41.9313C17.3533 41.9992 17.4586 42.0602 17.5996 42.0903C17.7329 42.1188 17.8623 42.111 18.0446 42.1464C18.6134 42.2574 19.1188 42.4079 19.5684 42.4958C19.5957 42.5011 19.6228 42.5063 19.6499 42.5112C19.7584 42.5304 19.8434 42.6334 19.8416 42.7436C19.8416 42.7436 19.8416 42.7436 19.8416 42.7436C19.8455 42.6013 19.7012 42.4818 19.5623 42.5119C20.1783 42.3896 20.711 42.1985 21.225 42.0604C21.3613 42.041 21.4979 42.0361 21.6397 42.0096C23.3938 41.6822 25.3751 41.3268 27.1376 41.0156C27.9558 40.871 30.0101 40.6158 29.4282 40.5055C29.705 40.4149 31.7842 40.1118 32.1768 40.0392C32.5694 39.9666 32.8732 39.8699 33.1815 39.8112C34.1118 39.6343 34.7722 39.5383 35.8987 39.2917C36.1896 39.2279 36.4946 39.1238 36.6679 39.0917C36.8768 39.0531 37.1096 39.0544 37.3804 39.0063C37.5688 38.9727 37.8041 38.9284 38.0584 38.8799C38.2674 38.8443 38.408 38.6472 38.3662 38.5184C38.3218 38.3004 38.2492 38.1192 38.1782 37.9869C38.1335 37.906 38.1511 37.8564 38.0776 37.7397C37.7902 37.2707 37.1243 37.0298 37.1925 37.1904C37.1721 37.1789 37.1512 37.1677 37.1298 37.1567L37.1666 37.1698C36.4285 36.8831 35.7086 36.7279 35.0039 36.5182C34.219 36.2844 33.1088 35.9418 32.0295 35.6149C31.6308 35.4986 31.3046 35.163 31.1969 34.7735C30.9825 34.0345 30.7781 33.3424 30.6225 32.8602C30.35 32.013 30.3042 32.0582 30.0004 30.7884C29.9337 30.5085 29.8707 30.2279 29.7893 29.8858C29.5995 29.088 29.4988 28.3323 29.2141 27.7637C29.0041 26.875 28.7918 26.1819 28.7171 25.501C28.6716 25.4307 28.6262 25.3604 28.5807 25.2902C28.5508 25.1825 28.521 25.0748 28.4912 24.9671C28.5056 24.9272 28.5199 24.8872 28.5343 24.8472C28.3314 24.0728 27.9713 23.1202 27.7959 22.4635C27.5019 21.3671 26.7863 18.5276 26.5438 17.4792C26.4141 16.9203 26.3563 16.9053 26.3769 16.564C26.3371 16.4423 26.2968 16.3184 26.2569 16.1962C26.2137 16.1244 26.1706 16.0527 26.1275 15.9812C25.9411 15.2773 25.7548 14.4245 25.5765 13.7455C25.2535 12.5165 24.7078 10.6789 24.4277 9.43091C24.3561 9.11272 24.3062 8.7281 24.2241 8.4134C24.1085 7.97044 24.0045 7.8888 23.8564 7.32243C23.604 6.35728 23.2278 4.52534 22.9856 3.61853C22.9475 3.47542 22.9158 3.38505 22.8868 3.30582C22.8528 3.20726 22.8238 3.12835 22.7998 3.04297C22.7591 2.89791 22.7156 2.73861 22.6823 2.62601C22.5207 2.0844 22.2508 1.65982 21.7859 1.41633C21.1983 1.022 21.2239 1.00331 21.0142 0.83861C20.8494 0.717359 20.2543 0.491357 20.1654 0.428311C20.1046 0.379175 20.3402 0.329453 20.2552 0.274441C21.2975 0.308612 21.8464 0.471192 22.5103 1.12341C22.9063 1.4856 23.1491 1.97335 23.2849 2.45574C23.5532 3.45558 23.8113 4.46498 24.0713 5.45975C24.0775 5.5955 24.0846 5.73478 24.0926 5.87749C24.0925 5.87751 24.0925 5.87752 24.0924 5.87754C24.2051 6.44246 24.3378 6.66821 24.4306 6.96209C25.3285 9.81616 26.687 15.5041 27.5151 18.6835C27.6916 19.3651 28.3219 21.581 28.4034 22.0582C28.4245 22.1824 28.3919 22.2273 28.4248 22.3569C28.7591 23.5034 29.0946 24.6479 29.4324 25.7929C30.0116 28.1783 30.739 30.6094 31.4204 32.9848C31.5714 33.5111 31.7284 34.0553 31.8803 34.5783C31.9287 34.7476 32.0661 34.8838 32.2363 34.9331C33.9548 35.4464 35.669 35.9583 37.3789 36.47L37.4085 36.4806C38.1853 36.7638 38.9296 37.5002 39.0712 38.3747C39.203 38.9778 38.7019 39.5053 38.1915 39.5864C35.3705 40.1261 32.5585 40.6598 29.7529 41.1837C28.503 41.4171 26.9233 41.7475 25.6961 41.9575C25.184 42.0452 24.9585 42.0173 24.2973 42.1943C24.2868 42.1774 24.2763 42.1604 24.2658 42.1434C23.6847 42.2758 23.3185 42.3879 22.6631 42.5157C22.1112 42.6233 20.6497 42.9015 20.16 42.9865C19.9061 43.0307 19.994 42.9787 19.7579 43.0233C19.7283 43.029 19.6963 43.0353 19.6622 43.0422C19.4833 43.0811 19.297 42.9271 19.302 42.7436C19.2997 42.8845 19.4085 43.0165 19.5475 43.0411C19.1131 42.9638 18.3274 42.854 17.8115 42.7543C17.3066 42.6567 16.4631 42.4529 16.0738 42.3836C14.672 42.1337 13.138 41.8978 11.6513 41.5943C11.2407 41.5103 10.7199 41.3637 10.5908 41.34C10.3386 41.294 10.2553 41.3225 10.0851 41.2954C9.22082 41.1574 7.89184 40.8475 7.05032 40.6827C5.23908 40.3282 3.35464 39.971 1.49716 39.6149C0.975184 39.532 0.464388 38.9872 0.600111 38.3714C0.721374 37.7218 1.12387 37.0698 1.70546 36.7195C1.88233 36.608 2.08163 36.5133 2.29584 36.4391L2.30986 36.4345C3.86986 35.9639 6.02585 35.3073 7.45265 34.8982C7.52612 34.878 7.59063 34.8427 7.64307 34.799C7.77333 34.6707 7.7859 34.6972 7.839 34.5831C7.84678 34.5599 7.85511 34.533 7.86422 34.5011C7.95279 34.1908 7.96986 34.012 8.00897 33.8648C8.28053 32.8462 8.87603 30.5963 9.17233 29.6465C9.22938 29.4643 9.30191 29.3431 9.33195 29.2339C9.34719 29.1787 9.35687 29.0471 9.40222 28.8727C9.80281 27.331 10.1225 26.2159 10.539 24.7121C11.3365 21.8314 12.1801 18.4778 13.0045 15.4459C13.1831 14.7892 13.3758 14.3482 13.3987 14.258C13.4501 14.0562 13.4362 13.9116 13.5333 13.4922C13.8542 12.1076 14.3889 10.2673 14.7039 8.95321C14.8575 8.31211 15.0309 7.38888 15.1777 6.76507C15.3021 6.23917 15.6318 5.06248 15.6652 4.82142C15.6836 4.68252 15.6453 4.61439 15.6838 4.43796ZM12.0155 21.7626C11.9561 21.6496 11.7714 22.6166 11.9117 22.2728C11.9434 22.1952 12.031 21.7915 12.0155 21.7626ZM24.0145 41.7165C24.001 41.6939 23.9876 41.6712 23.9742 41.6486C23.8493 41.6826 23.7245 41.7166 23.5996 41.7506C23.6736 41.7518 23.7476 41.753 23.8216 41.7542C23.8859 41.7416 23.9502 41.7291 24.0145 41.7165Z" fill="#C95700"/>
<path d="M16.3256 9.862C16.3241 10.0288 16.2335 10.3288 16.1836 10.4938C16.1827 10.4968 16.1818 10.4998 16.1809 10.5029C16.1691 10.542 16.1593 10.5794 16.1478 10.6232C16.1205 10.7277 16.0835 10.8688 15.9863 11.1584C15.9659 11.2446 15.945 11.3307 15.9237 11.4167C15.6935 12.3452 15.432 13.266 15.1643 14.1853C15.1616 14.1971 15.1588 14.2091 15.1561 14.2212C15.1022 14.455 15.0354 14.745 14.9767 14.923C14.902 15.1494 14.847 15.3021 14.8011 15.4273C14.5881 16.1574 14.3784 16.8882 14.1844 17.623C14.1236 17.8533 14.0643 18.084 14.007 18.3151C13.9542 18.528 13.9026 18.7412 13.8521 18.9546C13.8295 19.0806 13.81 19.2009 13.7919 19.3124C13.7665 19.4691 13.7438 19.6086 13.7195 19.7225C13.6609 19.9967 13.5704 20.3019 13.5032 20.5286C13.4922 20.5656 13.4818 20.6006 13.4723 20.633C13.4323 20.8163 13.3927 20.9997 13.3531 21.1831C13.347 21.1945 13.3407 21.206 13.3343 21.2176C13.2541 21.3626 13.2073 21.5537 13.1335 21.8546C13.1014 21.9856 13.0641 22.1374 13.0168 22.3153C12.9863 22.4299 12.9552 22.4849 12.9297 22.5299C12.9222 22.5431 12.9152 22.5555 12.9089 22.5683C12.8872 22.612 12.8862 22.6635 12.885 22.7243C12.8834 22.8032 12.8816 22.8979 12.8338 23.0117C12.6815 23.3744 12.6802 23.5506 12.6791 23.6838C12.6788 23.7229 12.6785 23.7583 12.6745 23.7936C12.6613 23.9082 12.6079 24.0628 12.5587 24.1774C12.5197 24.2683 12.488 24.4618 12.4719 24.6104C12.4659 24.6666 12.4478 24.7402 12.4265 24.8268C12.4045 24.9165 12.3789 25.0202 12.3597 25.1332C12.3112 25.4187 12.2844 25.5702 12.2629 25.692C12.2567 25.7267 12.2509 25.759 12.2453 25.7913C12.2273 25.8934 12.2022 26.0195 12.1767 26.147C12.1462 26.2997 12.1152 26.4546 12.0957 26.5735C12.0109 26.8732 11.9236 27.1723 11.8365 27.4714C11.7916 27.625 11.7189 27.765 11.6326 27.86C11.5462 27.9551 11.4538 27.9976 11.3739 27.9778C11.294 27.9579 11.2322 27.8772 11.2002 27.7528C11.1683 27.6284 11.1693 27.4707 11.2015 27.3139C11.2663 26.9981 11.3311 26.6823 11.3985 26.3672C11.4807 25.9833 11.5666 25.6003 11.6611 25.2195C11.7271 24.9531 11.7951 24.6871 11.8646 24.4216C11.8717 24.3942 11.8789 24.3669 11.8861 24.3396C11.9219 24.1109 11.9594 23.883 11.9921 23.7241C12.019 23.5928 12.053 23.5007 12.0821 23.4218C12.1021 23.3675 12.1199 23.3194 12.1314 23.2692C12.1376 23.2423 12.1455 23.2053 12.155 23.1607C12.1938 22.9786 12.2597 22.6695 12.3483 22.3944C12.3876 22.2724 12.4402 22.1324 12.4903 21.9987C12.5621 21.8075 12.629 21.6292 12.6454 21.5349C12.6742 21.3693 12.7302 21.185 12.7798 21.0223C12.827 20.867 12.8684 20.7312 12.8744 20.6496C12.8817 20.5522 12.908 20.4741 12.947 20.3579C12.974 20.2774 13.0072 20.1785 13.0445 20.0421C13.0875 19.8848 13.1264 19.7755 13.1595 19.6826C13.2061 19.552 13.2411 19.4536 13.2599 19.2988C13.2808 19.1268 13.311 18.9491 13.3515 18.8133C13.37 18.7515 13.387 18.6797 13.4048 18.605C13.4282 18.5062 13.4529 18.4022 13.4837 18.3094C13.5092 18.2328 13.5407 18.1722 13.5685 18.1185C13.5772 18.1018 13.5856 18.0857 13.5933 18.07C13.6085 18.0078 13.6236 17.9456 13.6386 17.8833C13.6386 17.8727 13.6384 17.8614 13.6383 17.8496C13.6377 17.7907 13.637 17.7182 13.6492 17.6317C13.6685 17.4947 13.7062 17.3798 13.746 17.2585C13.777 17.164 13.8093 17.0658 13.8351 16.9504C13.8527 16.8717 13.8684 16.781 13.8841 16.6911C13.9073 16.5576 13.9302 16.4258 13.9584 16.3372C13.9689 16.3041 13.9858 16.2775 14.0026 16.2512C14.0027 16.2511 14.0028 16.251 14.0029 16.2509C14.0041 16.2491 14.0052 16.2473 14.0063 16.2455C14.0532 16.0244 14.0994 15.8032 14.1452 15.5819C14.1474 15.5622 14.1496 15.5424 14.1519 15.5228C14.1631 15.4269 14.174 15.3337 14.1722 15.2708C14.1702 15.2026 14.1997 15.0396 14.2307 14.8678C14.251 14.7553 14.2721 14.639 14.2854 14.5431C14.2932 14.487 14.3161 14.4377 14.3396 14.3869C14.3616 14.3395 14.3842 14.2909 14.3956 14.2345C14.4013 14.2062 14.4047 14.175 14.4082 14.1416C14.4113 14.1123 14.4146 14.0812 14.4199 14.0492C14.4248 14.0194 14.4463 13.9557 14.474 13.8741C14.491 13.8237 14.5104 13.7663 14.5296 13.7059C14.5637 13.5419 14.5979 13.378 14.6326 13.2143C14.6322 13.1782 14.6281 13.146 14.6192 13.1191C14.6128 13.0998 14.6037 13.0824 14.5945 13.0646C14.5819 13.0404 14.569 13.0154 14.5616 12.9835C14.5558 12.9585 14.5578 12.9313 14.5668 12.9149C14.571 12.9073 14.5767 12.902 14.5818 12.8973C14.5877 12.8918 14.5929 12.8869 14.5946 12.8798C14.5957 12.8746 14.5941 12.8686 14.592 12.8611C14.5888 12.8492 14.5846 12.8337 14.5895 12.8129C14.6077 12.7355 14.6318 12.6484 14.6555 12.5631C14.6818 12.4682 14.7075 12.3755 14.7237 12.3006C14.7419 12.2166 14.7825 12.1006 14.8232 11.9845C14.8515 11.9034 14.8799 11.8222 14.9008 11.7517C14.9212 11.6826 14.933 11.6084 14.9445 11.5364C14.9582 11.4501 14.9713 11.367 14.9983 11.3003C15.0038 11.2868 15.0202 11.2725 15.0408 11.2545C15.0554 11.2417 15.0721 11.227 15.0885 11.2096C15.1103 11.1216 15.1326 11.0337 15.1553 10.946C15.1544 10.9425 15.1536 10.9389 15.1526 10.9352C15.1526 10.9352 15.1526 10.9351 15.1526 10.935C15.1318 10.8532 15.1035 10.7412 15.1695 10.6101C15.1863 10.5768 15.2066 10.5582 15.2249 10.5415C15.2428 10.5251 15.2589 10.5104 15.2677 10.4853C15.2778 10.4567 15.2783 10.4202 15.2789 10.3804C15.2797 10.3246 15.2807 10.2622 15.3081 10.2061C15.31 10.2023 15.312 10.1982 15.3141 10.1939C15.3338 10.1532 15.363 10.093 15.4057 10.0365C15.4594 9.85073 15.5144 9.66524 15.5701 9.47996C15.663 9.17112 15.7581 8.86275 15.8531 8.55447C15.8994 8.40451 15.9724 8.26777 16.058 8.17482C16.1436 8.08189 16.2344 8.04025 16.3128 8.0597C16.3912 8.07915 16.452 8.15837 16.4843 8.28055C16.5166 8.40271 16.5172 8.55769 16.4881 8.71193C16.4405 8.96339 16.3929 9.21494 16.3442 9.46617C16.3426 9.47957 16.341 9.49302 16.3392 9.50638C16.3262 9.6058 16.3261 9.70099 16.3259 9.79625C16.3259 9.81813 16.3258 9.84005 16.3256 9.862ZM11.478 29.3997C11.5106 29.4303 11.4854 29.4684 11.4715 29.4894C11.4713 29.4898 11.4711 29.4902 11.4708 29.4906C11.4675 29.4956 11.4658 29.5006 11.4638 29.5065C11.4591 29.5206 11.4526 29.5397 11.4191 29.5747C11.4172 29.5867 11.4149 29.5986 11.4121 29.6105C11.382 29.7382 11.3206 29.8585 11.2531 29.9774C11.2529 29.9791 11.2527 29.9808 11.2525 29.9825C11.2489 30.0154 11.2443 30.0563 11.2247 30.078C11.1997 30.1056 11.1785 30.1233 11.1603 30.1377C11.1062 30.2321 11.0554 30.3272 11.0204 30.426C11.0094 30.457 11 30.4883 10.9925 30.5201C10.9856 30.5494 10.9799 30.5789 10.9753 30.6088C10.9795 30.6277 10.9854 30.6462 10.9909 30.6634C10.9986 30.6875 11.0054 30.709 11.0055 30.7254C11.0055 30.7649 10.9816 30.804 10.9637 30.8331C10.9608 30.8379 10.9581 30.8424 10.9556 30.8465C10.9549 30.8728 10.9545 30.8991 10.9542 30.9255C10.9507 30.9264 10.9471 30.9273 10.9433 30.9283C10.8965 30.9398 10.8909 30.9662 10.8819 31.0077C10.878 31.0258 10.8735 31.0468 10.8647 31.0706C10.859 31.086 10.8405 31.0902 10.8254 31.0937C10.821 31.0947 10.8169 31.0957 10.8134 31.0968C10.8016 31.1008 10.8112 31.1101 10.8224 31.1211C10.8371 31.1354 10.8546 31.1525 10.8323 31.1645C10.7612 31.2025 10.7958 31.2348 10.8219 31.2592C10.8296 31.2663 10.8365 31.2728 10.8399 31.2786C10.8507 31.2972 10.8313 31.3156 10.8078 31.3274C10.7892 31.3368 10.7985 31.3665 10.8134 31.3909C10.8191 31.4001 10.8169 31.4103 10.8143 31.4222C10.8116 31.4346 10.8084 31.4489 10.8131 31.4661C10.8251 31.5096 10.8305 31.5325 10.8347 31.5509C10.836 31.5562 10.837 31.561 10.8382 31.5659C10.842 31.5814 10.8437 31.5999 10.8454 31.6186C10.8475 31.641 10.8496 31.6637 10.8552 31.682C10.8355 31.7212 10.8134 31.7598 10.7913 31.7985C10.7799 31.8183 10.7391 31.8303 10.6763 31.8315C10.6134 31.8326 10.5341 31.8229 10.4539 31.804C10.3738 31.7852 10.2985 31.7585 10.2427 31.7295C10.187 31.7004 10.1558 31.6715 10.1544 31.6486C10.1518 31.6026 10.1492 31.5566 10.1492 31.5113C10.1492 31.456 10.153 31.4016 10.1653 31.3492C10.1739 31.3126 10.1845 31.2764 10.1965 31.2405C10.1978 31.2368 10.199 31.2332 10.2003 31.2295C10.1878 31.194 10.1771 31.1591 10.1758 31.1359C10.1747 31.1168 10.1883 31.1063 10.2 31.0972C10.208 31.091 10.215 31.0855 10.2158 31.0784C10.2162 31.0746 10.2162 31.0693 10.2161 31.0629C10.216 31.0366 10.2158 30.9921 10.2441 30.9581C10.2567 30.943 10.2782 30.9272 10.2987 30.912C10.3281 30.8903 10.3555 30.8701 10.3519 30.8558C10.3456 30.8307 10.3614 30.8074 10.3754 30.7867C10.3888 30.767 10.4004 30.7498 10.3896 30.7359C10.3767 30.7193 10.3858 30.7099 10.3992 30.6958C10.4086 30.6861 10.42 30.6741 10.4277 30.656C10.4366 30.6351 10.4515 30.6224 10.464 30.6115C10.4818 30.5962 10.4951 30.5847 10.4814 30.5597C10.4663 30.5319 10.4588 30.5048 10.4698 30.4875C10.4748 30.4796 10.4764 30.4695 10.478 30.4591C10.4802 30.4453 10.4825 30.4308 10.493 30.4195C10.5016 30.4102 10.5192 30.405 10.5348 30.4004C10.5397 30.399 10.5444 30.3976 10.5485 30.3961C10.5503 30.3876 10.552 30.3789 10.5536 30.3703C10.5514 30.3683 10.549 30.3662 10.5465 30.364C10.5339 30.353 10.5185 30.3395 10.5125 30.3258C10.5029 30.3042 10.5154 30.2901 10.5286 30.2753C10.5389 30.2638 10.5496 30.2518 10.5507 30.2353C10.5514 30.2241 10.5479 30.2104 10.5444 30.1968C10.5393 30.1765 10.5343 30.1565 10.5431 30.1455C10.5464 30.1414 10.5571 30.1397 10.5677 30.1381C10.5678 30.1381 10.5679 30.1381 10.5679 30.138C10.5686 30.1379 10.5694 30.1378 10.5701 30.1377C10.5697 30.1058 10.5686 30.0737 10.5671 30.0415C10.5652 30.0383 10.5633 30.0351 10.5615 30.0319C10.5526 30.0163 10.5439 30.0012 10.5294 29.9892C10.5136 29.9762 10.5085 29.9517 10.503 29.9259C10.4995 29.909 10.4958 29.8915 10.4889 29.8763C10.4849 29.8675 10.4967 29.8627 10.5088 29.8578C10.5201 29.8533 10.5317 29.8486 10.531 29.8403C10.5307 29.8362 10.5275 29.831 10.5241 29.8255C10.5211 29.8207 10.5179 29.8156 10.5163 29.8107C10.5149 29.8061 10.5225 29.7985 10.5322 29.7886C10.5382 29.7826 10.5449 29.7757 10.5509 29.7682C10.5499 29.7443 10.5491 29.7206 10.5488 29.6969C10.5411 29.6902 10.5306 29.6835 10.5166 29.6768C10.5066 29.672 10.4945 29.6671 10.482 29.6621C10.4651 29.6552 10.4477 29.6481 10.4341 29.6408C10.4235 29.6351 10.4199 29.6304 10.4251 29.6291C10.4276 29.6285 10.4319 29.6286 10.4358 29.6287C10.4403 29.6288 10.4443 29.6289 10.4444 29.6279C10.4445 29.6272 10.4416 29.6258 10.4382 29.624C10.4327 29.6212 10.4256 29.6175 10.426 29.6146C10.4275 29.6038 10.4327 29.5923 10.4379 29.581C10.4436 29.5685 10.4492 29.5563 10.4494 29.5455C10.4496 29.5335 10.4646 29.5198 10.4797 29.506C10.4902 29.4965 10.5006 29.4869 10.5061 29.4778C10.5115 29.4689 10.5077 29.4575 10.5039 29.4463C10.4993 29.433 10.4949 29.4202 10.507 29.413C10.5095 29.4115 10.5222 29.412 10.5382 29.4126C10.5495 29.413 10.5624 29.4135 10.5744 29.4134C10.5773 29.4013 10.5806 29.3893 10.5844 29.3774C10.5828 29.3766 10.5812 29.3757 10.5796 29.3749C10.5796 29.3749 10.5796 29.3749 10.5795 29.3749C10.5431 29.3558 10.4933 29.3297 10.5294 29.3181C10.5386 29.3151 10.5542 29.3155 10.5682 29.3159C10.5819 29.3163 10.5942 29.3166 10.5975 29.3137C10.6013 29.3103 10.5943 29.3037 10.5868 29.2964C10.5762 29.2863 10.5644 29.2749 10.5791 29.2698C10.5801 29.2694 10.5812 29.2691 10.5823 29.2687C10.5928 29.2649 10.6083 29.2593 10.6375 29.257C10.6508 29.2329 10.6653 29.2091 10.6806 29.1855C10.7062 29.1461 10.7339 29.1072 10.7615 29.0684C10.7751 29.0495 10.8167 29.0381 10.8793 29.0372C10.9419 29.0363 11.0199 29.0459 11.0986 29.0644C11.1772 29.0829 11.2512 29.1091 11.3069 29.1378C11.3625 29.1665 11.3947 29.1953 11.3984 29.2182C11.4043 29.2556 11.4102 29.293 11.4151 29.3302C11.4163 29.3323 11.4174 29.3345 11.4185 29.3366C11.4264 29.3525 11.4456 29.3701 11.4649 29.3877C11.4693 29.3917 11.4737 29.3957 11.478 29.3997Z" fill="white"/>
<path d="M3.688 37.1477C3.74569 37.119 3.84041 37.1527 3.89252 37.1712C3.89348 37.1715 3.89443 37.1718 3.89539 37.1721C3.90776 37.1765 3.91972 37.1793 3.93373 37.1825C3.96715 37.1901 4.01231 37.2004 4.10276 37.2423C4.13056 37.2465 4.15828 37.2512 4.18591 37.2563C4.48429 37.3117 4.77678 37.3987 5.06812 37.492C5.07193 37.4925 5.0758 37.493 5.07971 37.4936C5.15528 37.5035 5.24898 37.5159 5.30471 37.5406C5.37556 37.572 5.42286 37.5978 5.46159 37.6196C5.69292 37.6941 5.92486 37.7653 6.15976 37.8206C6.23338 37.8379 6.30731 37.8536 6.38159 37.8674C6.44999 37.8801 6.51863 37.8916 6.58745 37.902C6.62882 37.9012 6.66852 37.8983 6.70533 37.8957C6.75706 37.8921 6.80311 37.8889 6.84009 37.8919C6.92918 37.8992 7.02574 37.9317 7.09745 37.9559C7.10917 37.9598 7.12023 37.9636 7.13048 37.9669C7.18994 37.9726 7.24948 37.9779 7.30904 37.9831C7.31235 37.9869 7.31568 37.991 7.31905 37.9951C7.36114 38.0466 7.42261 38.0574 7.51936 38.0746C7.56149 38.082 7.61032 38.0907 7.66715 38.1044C7.70378 38.1132 7.71967 38.1335 7.73266 38.15C7.73648 38.1549 7.74007 38.1595 7.74384 38.1633C7.75677 38.1764 7.77452 38.1681 7.79549 38.1583C7.82269 38.1455 7.85532 38.1302 7.8899 38.156C8.00009 38.2379 8.061 38.2075 8.10707 38.1845C8.12059 38.1777 8.13283 38.1716 8.14467 38.1692C8.18304 38.1612 8.23117 38.1851 8.2659 38.212C8.29343 38.2334 8.35725 38.2291 8.40714 38.2179C8.426 38.2136 8.44966 38.2178 8.47752 38.2228C8.50635 38.228 8.5397 38.234 8.57691 38.2322C8.67093 38.2277 8.72071 38.2263 8.76072 38.2252C8.77213 38.2249 8.78275 38.2246 8.79337 38.2243C8.82694 38.2232 8.86805 38.2249 8.90967 38.2265C8.95947 38.2285 9.01003 38.2305 9.04925 38.228C9.14447 38.2561 9.23925 38.2865 9.33402 38.317C9.38269 38.3327 9.42379 38.3779 9.44794 38.4443C9.47207 38.5107 9.47736 38.5925 9.46234 38.6735C9.44731 38.7544 9.413 38.8289 9.36663 38.8822C9.32025 38.9355 9.26566 38.963 9.2146 38.9602C9.11176 38.9544 9.0089 38.9486 8.90654 38.9402C8.78184 38.93 8.65786 38.9158 8.53549 38.8931C8.44988 38.8772 8.36463 38.8594 8.27966 38.84C8.27092 38.838 8.26217 38.836 8.25343 38.834C8.17781 38.8406 8.10266 38.8454 8.05089 38.8425C8.00814 38.84 7.97967 38.8237 7.95529 38.8098C7.93851 38.8002 7.92366 38.7917 7.90744 38.7896C7.89872 38.7885 7.88671 38.7875 7.87223 38.7864C7.81308 38.7816 7.71263 38.7736 7.62634 38.7374C7.58805 38.7214 7.54487 38.6958 7.50364 38.6713C7.44469 38.6364 7.38972 38.6038 7.3587 38.6049C7.30423 38.6068 7.24609 38.5858 7.19472 38.5672C7.14572 38.5495 7.10287 38.534 7.07522 38.5428C7.04218 38.5533 7.01778 38.542 6.9815 38.5252C6.95633 38.5136 6.92543 38.4993 6.88198 38.4878C6.83182 38.4745 6.79792 38.4566 6.76911 38.4413C6.72856 38.4198 6.69805 38.4036 6.64629 38.4133C6.5888 38.4241 6.53029 38.4269 6.48736 38.4122C6.46781 38.4055 6.44467 38.4019 6.42059 38.3982C6.38872 38.3934 6.3552 38.3882 6.32616 38.3751C6.30222 38.3643 6.28441 38.3448 6.26866 38.3274C6.26374 38.322 6.25902 38.3169 6.25438 38.3123C6.23437 38.3088 6.21434 38.3053 6.19428 38.3021C6.19058 38.304 6.18666 38.3062 6.18257 38.3084C6.16207 38.3196 6.13688 38.3334 6.10813 38.3372C6.06263 38.3433 6.02662 38.3275 5.98864 38.3108C5.95907 38.2978 5.92831 38.2842 5.89093 38.2801C5.86544 38.2773 5.83562 38.2784 5.80606 38.2795C5.76215 38.2811 5.7188 38.2827 5.69097 38.2714C5.68054 38.2672 5.67306 38.2556 5.66566 38.2441C5.66563 38.244 5.66561 38.2439 5.66558 38.2439C5.66507 38.2431 5.66457 38.2423 5.66406 38.2415C5.59223 38.236 5.52025 38.2312 5.44819 38.2268C5.44161 38.2282 5.43498 38.2296 5.42841 38.2309C5.39631 38.2374 5.36512 38.2437 5.34311 38.2568C5.31927 38.271 5.26576 38.2719 5.20938 38.2728C5.17246 38.2734 5.13429 38.2741 5.1024 38.2785C5.08376 38.2811 5.069 38.2678 5.05381 38.2541C5.03964 38.2414 5.02509 38.2283 5.00668 38.2274C4.99746 38.227 4.98698 38.2294 4.97578 38.232C4.96592 38.2343 4.9555 38.2367 4.94493 38.2374C4.9351 38.238 4.91524 38.2286 4.88976 38.2166C4.87401 38.2092 4.85612 38.2008 4.83713 38.193C4.78377 38.1897 4.73045 38.1861 4.67722 38.182C4.66468 38.1889 4.65309 38.1988 4.64285 38.2122C4.63551 38.2219 4.62857 38.2338 4.62146 38.2459C4.61179 38.2625 4.60178 38.2796 4.58996 38.2925C4.58073 38.3026 4.57149 38.3056 4.56674 38.2998C4.56452 38.2971 4.56328 38.2925 4.56215 38.2884C4.56085 38.2837 4.55969 38.2795 4.55739 38.2792C4.55573 38.279 4.55345 38.2818 4.55065 38.2851C4.54619 38.2903 4.54039 38.2972 4.53368 38.2962C4.50871 38.2926 4.48098 38.2849 4.45383 38.2774C4.42363 38.269 4.39411 38.2608 4.36978 38.2587C4.34253 38.2563 4.30648 38.2378 4.27036 38.2194C4.24516 38.2066 4.21991 38.1938 4.1976 38.1863C4.17574 38.179 4.1512 38.1809 4.12743 38.1828C4.09889 38.1851 4.07144 38.1874 4.05107 38.1733C4.04696 38.1705 4.04366 38.1571 4.03952 38.1404C4.03659 38.1286 4.03319 38.1151 4.02883 38.1024C4.00056 38.0971 3.97238 38.0914 3.94428 38.0852C3.94297 38.0867 3.94163 38.0882 3.94028 38.0897C3.94026 38.0898 3.94023 38.0898 3.94021 38.0898C3.90972 38.1247 3.86801 38.1723 3.82929 38.1321C3.81945 38.1219 3.81509 38.1055 3.81116 38.0908C3.8073 38.0764 3.80385 38.0635 3.79605 38.0595C3.78718 38.0549 3.77458 38.061 3.76085 38.0676C3.74156 38.0769 3.72003 38.0872 3.7034 38.0708C3.70227 38.0697 3.70105 38.0684 3.69977 38.0672C3.68769 38.0554 3.6698 38.038 3.65457 38.0069C3.59565 37.9884 3.53696 37.9687 3.47843 37.9481C3.38085 37.9139 3.28366 37.8775 3.18649 37.8411C3.13924 37.8233 3.09929 37.7773 3.07581 37.7112C3.05234 37.6451 3.04718 37.5647 3.06192 37.4852C3.07667 37.4058 3.11034 37.3327 3.15599 37.2793C3.20163 37.2261 3.25542 37.1975 3.30592 37.1978C3.38823 37.1986 3.47057 37.1993 3.55269 37.2011C3.55717 37.2002 3.56166 37.1994 3.56612 37.1987C3.59925 37.1933 3.63223 37.1763 3.66524 37.1593C3.67282 37.1554 3.68042 37.1514 3.688 37.1477ZM11.1412 38.5465C11.1687 38.5124 11.2048 38.5353 11.2247 38.5479C11.2251 38.5481 11.2255 38.5483 11.2259 38.5486C11.2306 38.5515 11.2353 38.553 11.2409 38.5546C11.2541 38.5586 11.272 38.5639 11.3055 38.5953C11.3167 38.5965 11.3279 38.5981 11.3389 38.6002C11.4585 38.6229 11.5722 38.6772 11.6846 38.7377C11.6861 38.7378 11.6877 38.7379 11.6893 38.738C11.72 38.7398 11.7582 38.7419 11.7789 38.7603C11.8053 38.7835 11.8223 38.8037 11.8362 38.821C11.9255 38.8695 12.0153 38.9147 12.1082 38.944C12.1373 38.9531 12.1667 38.9607 12.1965 38.9664C12.2239 38.9715 12.2515 38.9755 12.2794 38.9785C12.2969 38.9732 12.314 38.9662 12.3298 38.9598C12.352 38.9507 12.3717 38.9427 12.387 38.9418C12.4237 38.9395 12.4608 38.9611 12.4883 38.9772C12.4928 38.9798 12.4971 38.9823 12.501 38.9845C12.5255 38.9837 12.55 38.9826 12.5745 38.9814C12.5755 38.9848 12.5764 38.9884 12.5774 38.9921C12.5894 39.0381 12.6141 39.0422 12.653 39.0488C12.6699 39.0516 12.6895 39.0549 12.712 39.0623C12.7264 39.0671 12.7309 39.0853 12.7345 39.1001C12.7356 39.1045 12.7366 39.1085 12.7377 39.1119C12.7417 39.1234 12.7501 39.1134 12.7601 39.1015C12.7729 39.0862 12.7884 39.0677 12.8001 39.0892C12.8374 39.1579 12.8665 39.1216 12.8885 39.0942C12.8949 39.0861 12.9008 39.0789 12.906 39.0752C12.9231 39.0633 12.9407 39.0816 12.9524 39.1044C12.9616 39.1224 12.989 39.1114 13.0112 39.0951C13.0197 39.089 13.0292 39.0906 13.0403 39.0925C13.0519 39.0945 13.0653 39.0969 13.0812 39.0912C13.1213 39.0768 13.1425 39.0701 13.1594 39.0648C13.1643 39.0633 13.1688 39.0619 13.1733 39.0605C13.1876 39.0559 13.2047 39.0531 13.2221 39.0503C13.2428 39.047 13.2639 39.0436 13.2807 39.037C13.3178 39.0544 13.3543 39.0742 13.3909 39.094C13.4096 39.1042 13.4219 39.1442 13.4247 39.2067C13.4275 39.2692 13.4207 39.3488 13.4053 39.4297C13.39 39.5106 13.3673 39.5871 13.3418 39.6443C13.3164 39.7015 13.2903 39.7342 13.2691 39.7368C13.2264 39.742 13.1837 39.7473 13.1415 39.7499C13.09 39.753 13.0394 39.7523 12.9903 39.743C12.956 39.7365 12.922 39.7281 12.8884 39.7181C12.8849 39.7171 12.8815 39.716 12.878 39.715C12.8454 39.7294 12.8132 39.7421 12.7917 39.7447C12.7739 39.7469 12.7638 39.7339 12.755 39.7229C12.749 39.7152 12.7437 39.7085 12.7371 39.7082C12.7336 39.708 12.7286 39.7083 12.7226 39.7087C12.6982 39.7103 12.6568 39.7131 12.6244 39.6868C12.6101 39.6751 12.5947 39.6546 12.5801 39.635C12.5591 39.607 12.5396 39.5809 12.5264 39.5853C12.5032 39.593 12.481 39.5786 12.4614 39.5658C12.4427 39.5536 12.4264 39.5429 12.4138 39.5545C12.3987 39.5683 12.3897 39.5598 12.3762 39.5472C12.3669 39.5385 12.3555 39.5278 12.3384 39.5211C12.3188 39.5134 12.3065 39.4994 12.296 39.4875C12.2813 39.4707 12.2703 39.4581 12.2474 39.4731C12.2219 39.4898 12.197 39.4987 12.1805 39.4888C12.173 39.4843 12.1637 39.4833 12.1539 39.4822C12.141 39.4808 12.1275 39.4793 12.1167 39.4696C12.1078 39.4615 12.1025 39.4443 12.0978 39.429C12.0963 39.4242 12.0949 39.4196 12.0934 39.4156C12.0854 39.4143 12.0773 39.4131 12.0692 39.412C12.0675 39.4143 12.0656 39.4168 12.0636 39.4195C12.0537 39.4326 12.0416 39.4487 12.029 39.4555C12.0092 39.4663 11.9957 39.4546 11.9816 39.4423C11.9706 39.4327 11.9591 39.4227 11.9438 39.4226C11.9334 39.4225 11.9207 39.4268 11.9081 39.431C11.8894 39.4372 11.871 39.4434 11.8605 39.4353C11.8566 39.4322 11.8547 39.4217 11.8529 39.4112C11.8529 39.4111 11.8529 39.411 11.8529 39.411C11.8527 39.4102 11.8526 39.4096 11.8525 39.4088C11.8228 39.411 11.793 39.4139 11.7631 39.4173C11.7602 39.4194 11.7573 39.4214 11.7543 39.4234C11.7401 39.4332 11.7262 39.4427 11.7155 39.4578C11.7039 39.4742 11.6812 39.4808 11.6574 39.4877C11.6417 39.4922 11.6256 39.4968 11.6117 39.5045C11.6035 39.509 11.5988 39.4976 11.5939 39.4858C11.5893 39.4748 11.5846 39.4636 11.577 39.4647C11.5731 39.4652 11.5685 39.4687 11.5635 39.4724C11.559 39.4757 11.5544 39.4792 11.5499 39.481C11.5456 39.4826 11.5383 39.4755 11.5289 39.4664C11.5231 39.4608 11.5165 39.4545 11.5093 39.4489C11.4872 39.4513 11.4652 39.4534 11.4432 39.4551C11.4371 39.4632 11.4311 39.474 11.4253 39.4883C11.4212 39.4985 11.4169 39.5109 11.4126 39.5236C11.4067 39.5408 11.4005 39.5586 11.3941 39.5725C11.3891 39.5834 11.3849 39.5873 11.3835 39.5821C11.3829 39.5797 11.3829 39.5754 11.3829 39.5715C11.3828 39.567 11.3828 39.5631 11.3819 39.563C11.3812 39.563 11.3799 39.5659 11.3784 39.5694C11.3759 39.5751 11.3727 39.5824 11.37 39.5821C11.3599 39.5812 11.349 39.5767 11.3384 39.5722C11.3266 39.5672 11.3151 39.5623 11.3051 39.5627C11.2939 39.5633 11.2807 39.549 11.2675 39.5348C11.2583 39.5249 11.2491 39.515 11.2406 39.5101C11.2322 39.5052 11.2216 39.5097 11.2114 39.5141C11.1991 39.5194 11.1873 39.5245 11.1802 39.5129C11.1788 39.5105 11.1789 39.4978 11.179 39.4819C11.1791 39.4706 11.1792 39.4577 11.1787 39.4457C11.1674 39.4436 11.1562 39.4409 11.145 39.4379C11.1443 39.4395 11.1436 39.4411 11.1428 39.4427C11.1428 39.4428 11.1428 39.4428 11.1428 39.4428C11.1261 39.4802 11.1032 39.5313 11.0913 39.496C11.0883 39.487 11.0883 39.4715 11.0883 39.4575C11.0883 39.4438 11.0882 39.4315 11.0854 39.4284C11.0822 39.4248 11.0762 39.4321 11.0697 39.44C11.0605 39.4512 11.0503 39.4636 11.0451 39.4492C11.0447 39.4483 11.0444 39.4472 11.044 39.4461C11.0402 39.4359 11.0346 39.4207 11.0316 39.3918C11.0088 39.38 10.9863 39.3668 10.9639 39.3529C10.9266 39.3297 10.8897 39.3044 10.8528 39.279C10.8348 39.2666 10.8231 39.2257 10.8205 39.1635C10.818 39.1012 10.8247 39.0229 10.8398 38.9436C10.8548 38.8642 10.8771 38.789 10.9023 38.7319C10.9275 38.6749 10.9533 38.6412 10.9746 38.6362C11.0092 38.6282 11.0438 38.6201 11.0782 38.6132C11.0802 38.6119 11.0822 38.6106 11.0841 38.6094C11.0987 38.6007 11.1145 38.5805 11.1303 38.5603C11.1339 38.5557 11.1375 38.551 11.1412 38.5465Z" fill="white"/>
</svg>
