<svg width="34" height="34" viewBox="0 0 34 34" fill="none" xmlns="http://www.w3.org/2000/svg">
<ellipse cx="18.2972" cy="17.0875" rx="12.7707" ry="13.4941" transform="rotate(13.4435 18.2972 17.0875)" fill="#FF9627"/>
<path d="M27.8465 26.5331C27.4323 27.0704 26.4564 27.9473 25.8682 28.3594C25.8576 28.3672 25.8469 28.3749 25.8363 28.3827C25.6987 28.4827 25.5675 28.5765 25.4117 28.6832C25.0377 28.9301 24.5377 29.291 23.3792 29.8093C23.0443 29.9646 22.703 30.1056 22.3559 30.2316C20.0355 31.0807 17.4569 31.2278 15.0604 30.6285C13.5881 30.2658 12.1872 29.6337 10.9454 28.7734C10.9038 28.7455 10.8617 28.7169 10.8192 28.6875C9.99239 28.1303 9.07846 27.2889 8.57947 26.696C7.93868 25.9474 7.57813 25.3824 7.29553 24.9145C5.63884 22.2491 4.9549 19.0313 5.29675 15.9385C5.36554 15.3037 5.47455 14.6791 5.62378 14.0581C5.70365 13.7262 5.79303 13.4029 5.89496 13.0776C6.16345 12.2208 6.51033 11.388 6.93181 10.5944C7.17061 10.1294 7.42226 9.69885 7.67432 9.31017C8.02757 8.765 8.38108 8.30336 8.69237 7.94025C9.43853 7.05762 10.4444 6.20429 11.2529 5.66576C11.3844 5.57668 11.5098 5.49517 11.6271 5.42111C12.2721 4.9984 12.9544 4.62992 13.6641 4.32403C13.7129 4.30692 13.7621 4.29009 13.8123 4.27331C14.4393 4.06977 15.1996 3.78156 16.4527 3.55336C16.9985 3.45769 17.6378 3.37991 18.3944 3.36963C18.882 3.36492 19.131 3.39754 19.334 3.42231C19.3938 3.42994 19.4498 3.4375 19.5065 3.44475C19.6997 3.46962 19.9046 3.47728 20.1486 3.49431C20.462 3.51663 20.8433 3.55317 21.3277 3.68102C21.3834 3.69576 21.4379 3.71051 21.4913 3.72525C22.9116 4.13414 23.522 4.41354 24.0012 4.59827C24.1462 4.65805 24.2765 4.71472 24.407 4.77819C24.8319 4.9818 25.3996 5.34503 25.7985 5.65645C26.119 5.89765 26.7579 6.38291 27.2102 6.79242C27.3825 6.94561 27.6045 7.16492 27.8523 7.43577C28.1089 7.71599 28.3927 8.05198 28.6811 8.42335C29.4044 9.36799 29.7003 9.93344 29.943 10.3799C30.0107 10.5081 30.0719 10.6286 30.1314 10.75C30.3199 11.133 30.5302 11.6199 30.7101 12.1264C30.9272 12.7309 31.0979 13.3621 31.2069 13.8465C31.4582 15.1092 31.5329 16.4062 31.4363 17.6845C31.3875 18.3435 31.2597 18.9636 31.1134 19.4086C30.9678 19.8499 30.8252 20.0825 30.7461 20.0633C30.6652 20.044 30.6525 19.7761 30.6756 19.3264C30.6997 18.8723 30.7496 18.2715 30.7834 17.6418C30.8534 16.377 30.7477 15.1024 30.4692 13.869C30.1306 12.367 29.5361 10.9257 28.714 9.62851C28.1392 8.72119 27.4514 7.88583 26.667 7.15341C26.5863 7.07802 26.5046 7.00369 26.4218 6.93047C25.7327 6.34783 24.9734 5.86298 24.4209 5.55978C23.9649 5.30794 23.6255 5.13707 23.3312 4.99753C23.1274 4.90163 22.9467 4.82289 22.7579 4.75287C22.6565 4.71534 22.5174 4.66602 22.3489 4.61135C22.08 4.52397 21.737 4.42376 21.3462 4.33215C20.7347 4.18716 20.0163 4.07325 19.3317 4.0202C18.8349 3.97966 18.2534 3.96284 17.6986 3.98992C16.9046 4.02473 16.1687 4.15417 15.8065 4.25002C15.1684 4.41395 14.4473 4.64313 13.8299 4.90035C13.24 5.14329 12.7451 5.40532 12.4773 5.57649C12.1582 5.78142 11.8805 5.94634 11.4813 6.21502C11.2055 6.40256 10.871 6.6406 10.4471 7.00303C9.9597 7.42258 9.63372 7.74274 9.36314 8.02034C8.98504 8.41381 8.71194 8.72514 8.36546 9.22982C7.98145 9.79124 7.62446 10.4068 7.35938 10.8976C7.2372 11.1223 7.10939 11.3818 6.98481 11.6596C6.82074 12.0244 6.66535 12.4172 6.53063 12.7791C6.41971 13.0767 6.32706 13.3227 6.24875 13.5435C6.22454 13.6118 6.20178 13.6777 6.18052 13.7418C6.14258 13.882 6.10668 14.0232 6.07287 14.1655C6.04762 14.2717 6.02368 14.378 6.00105 14.4842C5.99492 14.5249 5.9888 14.5677 5.98262 14.6124C5.95194 14.8353 5.91795 15.1146 5.87815 15.4539C5.8154 15.9948 5.76663 16.468 5.73964 16.9703C5.71938 17.3616 5.71326 17.7704 5.74303 18.2365C5.76338 18.5552 5.8033 18.9158 5.85821 19.271C5.93852 19.7989 6.05481 20.3132 6.13651 20.6688C6.16703 20.8028 6.18722 20.9194 6.20846 21.0346C6.20853 21.0351 6.20861 21.0356 6.20869 21.0362C6.21013 21.044 6.21161 21.0518 6.21307 21.0596C6.45817 21.9177 6.78953 22.7503 7.20157 23.5396C7.23878 23.607 7.27718 23.6752 7.31566 23.7422C7.50322 24.0698 7.70229 24.3778 7.84424 24.5696C7.99682 24.7784 8.36372 25.314 8.80819 25.8311C9.09739 26.1709 9.41744 26.5036 9.69282 26.7592C9.85362 26.9088 9.99876 27.0581 10.1524 27.2083C10.2959 27.3483 10.4466 27.4889 10.6243 27.627C10.7133 27.6962 10.8122 27.7673 10.9188 27.8411C11.0127 27.9062 11.1129 27.9736 11.2179 28.044C11.3157 28.1094 11.5266 28.2626 11.8091 28.4445C11.9829 28.5564 12.1847 28.6795 12.4006 28.7999C12.9804 29.1035 13.5833 29.3579 14.2041 29.5614C14.3358 29.5964 14.4522 29.6207 14.5462 29.6336C14.6137 29.6429 14.6719 29.6466 14.7314 29.6499C14.8124 29.6545 14.8961 29.6587 15.009 29.6731C15.0972 29.6844 15.1994 29.7051 15.2665 29.7261C15.2695 29.7271 15.2725 29.728 15.2754 29.729C15.3023 29.7378 15.3232 29.7467 15.3424 29.7547C15.3668 29.7649 15.3887 29.7739 15.4164 29.78C15.4364 29.7844 15.4578 29.786 15.4842 29.788C15.5263 29.7911 15.5809 29.795 15.6616 29.8112C15.9603 29.8714 16.3061 29.9309 16.6444 29.9725C17.0214 30.0195 17.3925 30.0447 17.6875 30.0498C18.019 30.0566 18.4915 30.0623 18.9642 30.0333C19.2948 30.0139 19.6241 29.979 19.9056 29.9355C20.181 29.8932 20.4652 29.8292 20.7367 29.7576C21.0633 29.6716 21.3724 29.5745 21.6378 29.499C21.6915 29.4838 21.7612 29.474 21.8487 29.4605C21.9107 29.451 21.982 29.4394 22.0623 29.4227C22.3942 29.3022 22.721 29.1679 23.0421 29.0202C23.0527 29.0135 23.0636 29.0065 23.0745 28.9995C23.0747 28.9993 23.0749 28.9992 23.075 28.9991C23.3211 28.8395 23.6497 28.6188 24.1437 28.3644C24.2691 28.2994 24.3527 28.2655 24.4281 28.2345C24.502 28.204 24.5683 28.1762 24.6562 28.1217C24.756 28.0599 24.8665 27.9757 24.985 27.8816C25.152 27.7492 25.333 27.5983 25.5283 27.462C25.5416 27.4527 25.556 27.4427 25.5709 27.4322C25.712 27.333 25.9177 27.1825 26.1277 27.0349C26.7004 26.542 27.232 26 27.7153 25.4168C28.5214 24.4445 29.1924 23.3564 29.7028 22.1965C29.9526 21.6314 30.1758 21.084 30.3568 20.6763C30.5365 20.2731 30.6667 20.0442 30.7461 20.0633C30.8239 20.0815 30.8454 20.3484 30.7786 20.7988C30.7106 21.2531 30.5503 21.8523 30.3053 22.4516C29.9077 23.4275 29.4027 24.3611 28.7976 25.2291C28.7666 25.2752 28.7352 25.3213 28.7037 25.3669C28.4691 25.7056 28.2461 26.0191 28.0113 26.3239C27.9571 26.394 27.9023 26.4638 27.8465 26.5331Z" fill="#C95700"/>
<ellipse cx="16.2757" cy="16.6046" rx="12.7707" ry="13.4941" transform="rotate(13.4435 16.2757 16.6046)" fill="#FFC31F"/>
<path d="M25.825 26.0502C25.4108 26.5875 24.4349 27.4644 23.8467 27.8765C23.8361 27.8843 23.8255 27.892 23.8148 27.8998C23.6772 27.9997 23.546 28.0936 23.3902 28.2003C23.0162 28.4472 22.5162 28.8081 21.3577 29.3264C21.0229 29.4817 20.6815 29.6227 20.3344 29.7487C18.014 30.5978 15.4354 30.7449 13.039 30.1455C11.5666 29.7829 10.1658 29.1508 8.92388 28.2905C8.88228 28.2625 8.84026 28.234 8.79773 28.2046C7.97091 27.6474 7.05697 26.806 6.55798 26.2131C5.91719 25.4645 5.55665 24.8995 5.27404 24.4316C3.61736 21.7662 2.93342 18.5483 3.27527 15.4555C3.34405 14.8208 3.45306 14.1962 3.6023 13.5752C3.68217 13.2433 3.77154 12.92 3.87347 12.5947C4.14196 11.7379 4.48884 10.905 4.91033 10.1115C5.14913 9.64651 5.40078 9.21594 5.65283 8.82726C6.00609 8.28209 6.35959 7.82045 6.67088 7.45734C7.41705 6.57471 8.4229 5.72138 9.23138 5.18285C9.36292 5.09377 9.48828 5.01226 9.60563 4.9382C10.2506 4.51549 10.9329 4.14701 11.6426 3.84112C11.6914 3.82401 11.7407 3.80718 11.7908 3.7904C12.4178 3.58686 13.1781 3.29865 14.4312 3.07045C14.977 2.97478 15.6163 2.897 16.3729 2.88672C16.8605 2.88201 17.1095 2.91463 17.3126 2.9394C17.3723 2.94703 17.4283 2.95459 17.485 2.96184C17.6782 2.98671 17.8831 2.99437 18.1271 3.0114C18.4405 3.03372 18.8218 3.07026 19.3062 3.19811C19.3619 3.21285 19.4164 3.2276 19.4698 3.24234C20.8901 3.65123 21.5005 3.93063 21.9797 4.11536C22.1247 4.17514 22.255 4.23181 22.3855 4.29528C22.8104 4.49889 23.3781 4.86212 23.7771 5.17354C24.0976 5.41474 24.7364 5.9 25.1887 6.30951C25.361 6.4627 25.583 6.68201 25.8308 6.95286C26.0874 7.23308 26.3712 7.56907 26.6596 7.94044C27.3829 8.88508 27.6788 9.45053 27.9215 9.89698C27.9892 10.0252 28.0504 10.1457 28.11 10.2671C28.2985 10.6501 28.5087 11.137 28.6887 11.6435C28.9057 12.2479 29.0764 12.8792 29.1854 13.3636C29.4367 14.6263 29.5114 15.9232 29.4148 17.2016C29.366 17.8606 29.2382 18.4807 29.092 18.9257C28.9463 19.367 28.8037 19.5996 28.7246 19.5804C28.6437 19.5611 28.631 19.2931 28.6542 18.8435C28.6782 18.3894 28.7281 17.7886 28.7619 17.1589C28.8319 15.8941 28.7263 14.6195 28.4477 13.3861C28.1091 11.8841 27.5147 10.4428 26.6925 9.1456C26.1177 8.23828 25.4299 7.40292 24.6456 6.6705C24.5648 6.59511 24.4831 6.52078 24.4003 6.44756C23.7112 5.86492 22.952 5.38007 22.3994 5.07687C21.9434 4.82503 21.604 4.65416 21.3097 4.51462C21.1059 4.41872 20.9252 4.33998 20.7364 4.26996C20.635 4.23243 20.4959 4.18311 20.3275 4.12844C20.0585 4.04106 19.7156 3.94085 19.3247 3.84924C18.7133 3.70425 17.9948 3.59034 17.3102 3.53729C16.8135 3.49675 16.2319 3.47993 15.6771 3.50701C14.8831 3.54182 14.1473 3.67126 13.785 3.76711C13.1469 3.93104 12.4258 4.16022 11.8084 4.41744C11.2185 4.66038 10.7236 4.92241 10.4559 5.09358C10.1367 5.29851 9.85899 5.46343 9.45981 5.73211C9.18401 5.91965 8.84955 6.15769 8.42562 6.52012C7.93821 6.93967 7.61223 7.25983 7.34166 7.53743C6.96355 7.9309 6.69046 8.24223 6.34398 8.74691C5.95996 9.30833 5.60298 9.92388 5.3379 10.4147C5.21572 10.6394 5.0879 10.8989 4.96332 11.1766C4.79926 11.5415 4.64386 11.9343 4.50915 12.2962C4.39822 12.5938 4.30558 12.8398 4.22727 13.0606C4.20305 13.1288 4.1803 13.1947 4.15903 13.2589C4.1211 13.399 4.0852 13.5403 4.05138 13.6826C4.02614 13.7888 4.0022 13.895 3.97957 14.0012C3.97343 14.042 3.96732 14.0848 3.96113 14.1295C3.93046 14.3524 3.89646 14.6317 3.85666 14.971C3.79392 15.5119 3.74515 15.9851 3.71816 16.4874C3.6979 16.8787 3.69177 17.2875 3.72155 17.7536C3.7419 18.0723 3.78182 18.4329 3.83672 18.7881C3.91704 19.316 4.03332 19.8303 4.11503 20.1859C4.14555 20.3199 4.16574 20.4365 4.18697 20.5517C4.18705 20.5522 4.18713 20.5527 4.18721 20.5532C4.18865 20.5611 4.19013 20.5689 4.19159 20.5767C4.43668 21.4348 4.76805 22.2674 5.18008 23.0567C5.2173 23.124 5.2557 23.1923 5.29418 23.2593C5.48174 23.5869 5.6808 23.8949 5.82275 24.0866C5.97534 24.2955 6.34224 24.8311 6.78671 25.3482C7.07591 25.688 7.39595 26.0207 7.67134 26.2763C7.83213 26.4259 7.97727 26.5752 8.13095 26.7254C8.27441 26.8654 8.42509 27.006 8.6028 27.1441C8.69182 27.2132 8.79073 27.2844 8.89731 27.3582C8.9912 27.4233 9.09139 27.4907 9.19644 27.5611C9.29423 27.6265 9.50508 27.7797 9.78765 27.9616C9.96139 28.0735 10.1632 28.1966 10.3791 28.317C10.959 28.6206 11.5618 28.875 12.1826 29.0785C12.3144 29.1134 12.4307 29.1378 12.5247 29.1507C12.5922 29.16 12.6504 29.1637 12.7099 29.167C12.7909 29.1716 12.8746 29.1758 12.9875 29.1902C13.0757 29.2015 13.1779 29.2222 13.245 29.2432C13.248 29.2442 13.251 29.2451 13.254 29.2461C13.2808 29.2549 13.3018 29.2637 13.321 29.2718C13.3454 29.2819 13.3672 29.291 13.3949 29.2971C13.4149 29.3015 13.4364 29.3031 13.4627 29.3051C13.5048 29.3082 13.5594 29.3121 13.6401 29.3283C13.9388 29.3885 14.2846 29.448 14.623 29.4896C14.9999 29.5366 15.371 29.5618 15.666 29.5669C15.9975 29.5737 16.47 29.5794 16.9427 29.5504C17.2733 29.531 17.6027 29.4961 17.8841 29.4526C18.1595 29.4103 18.4437 29.3463 18.7152 29.2746C19.0418 29.1887 19.3509 29.0916 19.6164 29.0161C19.67 29.0009 19.7397 28.9911 19.8272 28.9776C19.8892 28.968 19.9605 28.9565 20.0408 28.9398C20.3727 28.8193 20.6995 28.685 21.0207 28.5373C21.0312 28.5306 21.0421 28.5236 21.053 28.5166C21.0532 28.5164 21.0534 28.5163 21.0535 28.5162C21.2996 28.3566 21.6283 28.1359 22.1222 27.8815C22.2476 27.8165 22.3312 27.7826 22.4066 27.7516C22.4806 27.7211 22.5468 27.6933 22.6347 27.6388C22.7345 27.577 22.845 27.4927 22.9636 27.3987C23.1305 27.2663 23.3116 27.1154 23.5068 26.9791C23.5202 26.9698 23.5345 26.9598 23.5494 26.9493C23.6905 26.85 23.8962 26.6996 24.1062 26.552C24.6789 26.0591 25.2105 25.5171 25.6938 24.9339C26.4999 23.9616 27.1709 22.8735 27.6813 21.7136C27.9311 21.1484 28.1543 20.6011 28.3353 20.1934C28.515 19.7902 28.6453 19.5613 28.7246 19.5804C28.8024 19.5986 28.8239 19.8654 28.7571 20.3159C28.6891 20.7702 28.5288 21.3693 28.2838 21.9687C27.8862 22.9446 27.3812 23.8782 26.7761 24.7462C26.7452 24.7923 26.7138 24.8384 26.6822 24.884C26.4476 25.2227 26.2246 25.5362 25.9898 25.841C25.9356 25.9111 25.8808 25.9809 25.825 26.0502Z" fill="#C95700"/>
<path d="M5.30611 12.57C5.31163 12.4365 5.41344 12.2098 5.47231 12.087C5.47337 12.0848 5.47442 12.0825 5.47548 12.0802C5.48934 12.051 5.50122 12.023 5.51523 11.9902C5.54879 11.9123 5.59369 11.8057 5.71406 11.5965C5.74176 11.5325 5.77032 11.4689 5.7998 11.4059C6.11909 10.7234 6.52804 10.0836 6.99253 9.49419C6.99785 9.48633 7.00326 9.47835 7.00874 9.47029C7.11417 9.31448 7.2505 9.12506 7.35228 9.01837C7.48121 8.88284 7.57433 8.7964 7.65188 8.72602C8.05644 8.29115 8.48764 7.88549 8.93528 7.50096C9.07551 7.3805 9.21766 7.26183 9.36073 7.14537C9.49294 7.03775 9.62639 6.93217 9.7614 6.8286C9.83594 6.7625 9.90649 6.69895 9.97256 6.64067C10.0654 6.55881 10.1495 6.48725 10.2229 6.43352C10.3995 6.30387 10.6178 6.1842 10.7817 6.09974C10.8084 6.0859 10.8337 6.07293 10.8571 6.06094C10.9804 5.98281 11.1056 5.90632 11.2318 5.83224C11.242 5.83047 11.2522 5.8288 11.2627 5.82715C11.3929 5.80676 11.5279 5.73535 11.7447 5.63096C11.8391 5.58567 11.9494 5.53423 12.0816 5.47977C12.1669 5.44473 12.2172 5.44214 12.2581 5.44001C12.2701 5.43939 12.2814 5.43882 12.2925 5.43754C12.3306 5.43315 12.3622 5.40784 12.3998 5.37812C12.4485 5.33962 12.5077 5.29348 12.6031 5.2775C12.9063 5.22771 13.0179 5.14943 13.1042 5.08794C13.1294 5.07009 13.1524 5.05401 13.1772 5.0413C13.2575 4.99998 13.3836 4.97689 13.4812 4.96979C13.5585 4.96388 13.7003 4.90814 13.8072 4.86017C13.8475 4.84195 13.9048 4.82734 13.9724 4.81093C14.0424 4.79393 14.1235 4.77503 14.2088 4.74779C14.4245 4.67924 14.5416 4.64811 14.635 4.6229C14.6618 4.61578 14.6867 4.60929 14.7116 4.60279C14.7903 4.58223 14.8889 4.56066 14.9892 4.54039C15.1092 4.51604 15.2312 4.49372 15.3242 4.4737C15.5693 4.45676 15.8137 4.45048 16.0587 4.45225C16.1841 4.45321 16.3057 4.4872 16.3944 4.5469C16.4833 4.60664 16.5321 4.68629 16.5322 4.76858C16.5322 4.85096 16.4841 4.93023 16.4006 4.9923C16.317 5.05431 16.205 5.09406 16.0877 5.10586C15.8503 5.12947 15.6153 5.16116 15.3807 5.19826C15.0955 5.24338 14.812 5.29646 14.5293 5.35258C14.3316 5.39184 14.1346 5.43488 13.9384 5.48206C13.9182 5.48691 13.898 5.49179 13.8778 5.49673C13.7191 5.55968 13.5626 5.6252 13.4513 5.66691C13.3594 5.7013 13.2882 5.71338 13.2271 5.7241C13.1851 5.7315 13.1479 5.73829 13.1125 5.75156C13.0935 5.75869 13.0677 5.76904 13.0367 5.78169C12.9099 5.8331 12.6973 5.92437 12.4945 5.98816C12.4045 6.01627 12.2974 6.04383 12.1952 6.07191C12.0491 6.11191 11.9134 6.15305 11.8529 6.19039C11.7468 6.25574 11.6158 6.31175 11.5007 6.36345C11.391 6.41267 11.2955 6.45787 11.2504 6.4994C11.1965 6.54902 11.1407 6.57357 11.0579 6.61138C11.0005 6.63765 10.9301 6.67033 10.8393 6.72316C10.7346 6.78412 10.6567 6.82133 10.5903 6.8534C10.4972 6.89862 10.4268 6.9338 10.3432 7.01522C10.2504 7.10577 10.1505 7.19502 10.0622 7.25274C10.0221 7.27897 9.97888 7.31257 9.93419 7.34793C9.87501 7.39474 9.81329 7.44459 9.75192 7.48407C9.70134 7.5166 9.65291 7.53548 9.61013 7.55237C9.59677 7.55764 9.58397 7.56276 9.57182 7.56802C9.53518 7.59865 9.49878 7.6296 9.46266 7.66092C9.45843 7.66789 9.45409 7.67534 9.44954 7.68308C9.42672 7.72197 9.39892 7.76976 9.35627 7.81919C9.28884 7.8974 9.21664 7.95046 9.14054 8.0077C9.08138 8.05223 9.01997 8.09925 8.95835 8.16227C8.91645 8.20514 8.87214 8.25747 8.82873 8.30974C8.76421 8.38734 8.70172 8.46489 8.64961 8.51047C8.63014 8.52747 8.60759 8.53656 8.58522 8.5456C8.58511 8.54563 8.585 8.54566 8.58488 8.54569C8.58337 8.5463 8.58185 8.54693 8.58034 8.54755C8.47044 8.67445 8.36317 8.80498 8.26 8.93699C8.25242 8.94964 8.24473 8.96238 8.23712 8.97502C8.19992 9.03674 8.16446 9.09711 8.14858 9.1424C8.13132 9.19146 8.06145 9.29228 7.99056 9.39966C7.94402 9.47 7.89673 9.54336 7.86184 9.60597C7.84145 9.64254 7.80949 9.66778 7.77684 9.69373C7.74635 9.71799 7.71508 9.74314 7.69212 9.77889C7.68062 9.7968 7.6706 9.81789 7.66 9.84043C7.65067 9.86027 7.64087 9.88127 7.62917 9.90222C7.61829 9.92169 7.58511 9.95864 7.54302 10.0067C7.51695 10.0364 7.48773 10.07 7.45812 10.1063C7.39424 10.2119 7.33168 10.3185 7.27036 10.426C7.26418 10.4527 7.26237 10.4777 7.26584 10.5006C7.26834 10.5171 7.27365 10.533 7.27909 10.5494C7.2865 10.5716 7.29419 10.5945 7.29569 10.6204C7.29686 10.6407 7.29059 10.6597 7.27962 10.6685C7.27451 10.6725 7.26845 10.6743 7.26295 10.676C7.25666 10.6779 7.25105 10.6796 7.24837 10.6842C7.24645 10.6876 7.24703 10.6926 7.2477 10.6988C7.24876 10.7086 7.25011 10.7214 7.24233 10.7349C7.21337 10.785 7.17769 10.8404 7.14316 10.8951C7.10473 10.956 7.06811 11.0153 7.04293 11.0653C7.01475 11.1211 6.96179 11.1937 6.90959 11.2676C6.87311 11.3192 6.83724 11.3708 6.80991 11.4171C6.78311 11.4624 6.76417 11.5142 6.74623 11.5645C6.72468 11.625 6.70452 11.6832 6.67296 11.726C6.66657 11.7346 6.64965 11.7411 6.62846 11.7493C6.61344 11.7552 6.59629 11.7618 6.57923 11.7707C6.55109 11.8308 6.52294 11.8911 6.49485 11.9515C6.49544 11.9543 6.49603 11.9572 6.49665 11.9601C6.49668 11.9602 6.4967 11.9602 6.49672 11.9603C6.5107 12.0266 6.53058 12.1161 6.45976 12.1999C6.44174 12.2213 6.42129 12.2307 6.40279 12.2393C6.38465 12.2478 6.36841 12.2554 6.35864 12.2724C6.34755 12.2917 6.3453 12.319 6.34295 12.3487C6.33965 12.3904 6.33624 12.4369 6.30763 12.4738C6.30568 12.4763 6.30356 12.479 6.30139 12.4818C6.28082 12.5086 6.25052 12.5484 6.2074 12.5835C6.14977 12.7142 6.09362 12.8444 6.0385 12.9768C5.94669 13.1974 5.85947 13.4191 5.77829 13.6448C5.73883 13.754 5.67419 13.8523 5.59517 13.9182C5.51609 13.9841 5.42927 14.0122 5.35065 13.9934C5.27211 13.9747 5.20712 13.9099 5.16901 13.8117C5.13094 13.7136 5.12373 13.5903 5.14772 13.4704C5.18701 13.2746 5.23137 13.0779 5.28071 12.8845C5.28235 12.8741 5.2841 12.8635 5.28596 12.853C5.29976 12.775 5.30162 12.6989 5.30412 12.6226C5.3047 12.6051 5.30531 12.5876 5.30611 12.57ZM5.19364 20.8657C5.14375 20.8384 5.13403 20.757 5.12907 20.7123C5.12896 20.7115 5.12885 20.7107 5.12875 20.7099C5.12755 20.6993 5.12509 20.6897 5.12218 20.6784C5.11528 20.6517 5.10582 20.6154 5.10699 20.5337C5.0996 20.5122 5.09267 20.4907 5.08627 20.4689C5.01713 20.2343 4.98599 19.989 4.96868 19.7436C4.9678 19.7406 4.96689 19.7376 4.96598 19.7346C4.94834 19.6761 4.92711 19.6032 4.93095 19.5538C4.93582 19.491 4.94388 19.4476 4.95125 19.4118C4.94319 19.2172 4.93659 19.024 4.91841 18.8334C4.91271 18.7736 4.90584 18.7141 4.89746 18.6548C4.88973 18.6002 4.88116 18.5457 4.87187 18.4913C4.85944 18.4605 4.84575 18.4313 4.83316 18.4043C4.81545 18.3663 4.79989 18.3322 4.79287 18.3034C4.77592 18.234 4.78203 18.1525 4.78706 18.0922C4.78788 18.0824 4.78866 18.073 4.7893 18.0645C4.77968 18.0179 4.76994 17.9711 4.76035 17.9244C4.7633 17.921 4.76638 17.9176 4.76955 17.9141C4.80912 17.8704 4.80469 17.8212 4.79867 17.7435C4.79607 17.7097 4.79319 17.6705 4.79364 17.6241C4.79394 17.5942 4.81013 17.578 4.82333 17.5648C4.82722 17.5609 4.83085 17.5573 4.83375 17.5536C4.84369 17.5412 4.83165 17.5292 4.81745 17.515C4.79904 17.4966 4.77694 17.4742 4.7946 17.4428C4.85097 17.3429 4.80884 17.3017 4.77681 17.27C4.76743 17.2608 4.75896 17.2523 4.75415 17.2436C4.73856 17.2152 4.75229 17.1737 4.77188 17.1423C4.78738 17.1175 4.77078 17.0688 4.75028 17.0316C4.74252 17.0176 4.74216 16.9985 4.74186 16.9759C4.74154 16.9527 4.74129 16.9258 4.73277 16.897C4.71125 16.8241 4.70126 16.7851 4.69323 16.7538C4.69095 16.7449 4.68888 16.7365 4.68673 16.7282C4.67993 16.702 4.67457 16.6693 4.66932 16.6362C4.66303 16.5967 4.65686 16.5565 4.64811 16.5257C4.66072 16.4468 4.67648 16.3686 4.69293 16.2904C4.70144 16.2502 4.74043 16.2134 4.80284 16.1885C4.8653 16.1636 4.94558 16.1527 5.02777 16.1577C5.10996 16.1627 5.18829 16.1831 5.24756 16.2139C5.30677 16.2448 5.34172 16.2835 5.3464 16.3222C5.35569 16.4002 5.36575 16.4777 5.37389 16.5553C5.3838 16.6496 5.39088 16.7435 5.39033 16.8373C5.38994 16.903 5.38813 16.9685 5.3853 17.0342C5.38501 17.041 5.38468 17.0478 5.38437 17.0545C5.40531 17.1094 5.42487 17.1639 5.43241 17.2024C5.43862 17.2341 5.42849 17.2576 5.41986 17.2778C5.41392 17.2918 5.40869 17.3041 5.41001 17.3164C5.41071 17.323 5.41228 17.3319 5.41418 17.3428C5.4219 17.387 5.43545 17.4617 5.41934 17.5314C5.41217 17.5623 5.39688 17.5987 5.38247 17.6337C5.36183 17.6837 5.34298 17.7306 5.35136 17.753C5.36605 17.7924 5.35952 17.8392 5.35398 17.8806C5.34867 17.9201 5.34427 17.9549 5.35966 17.973C5.37806 17.9946 5.3732 18.0148 5.36613 18.045C5.36123 18.0659 5.35532 18.0917 5.35542 18.1259C5.35555 18.1654 5.34712 18.1942 5.33999 18.2188C5.32998 18.2535 5.32255 18.2797 5.34581 18.3147C5.37165 18.3534 5.39031 18.3947 5.38804 18.4294C5.387 18.4452 5.39002 18.4627 5.39322 18.4809C5.39745 18.5051 5.40197 18.5304 5.3977 18.5548C5.39418 18.5748 5.3806 18.593 5.36862 18.609C5.36488 18.6141 5.36131 18.6189 5.35824 18.6235C5.36065 18.6388 5.36319 18.6541 5.36593 18.6694C5.36884 18.6715 5.37205 18.6736 5.37536 18.6759C5.39199 18.6874 5.41241 18.7015 5.4245 18.7208C5.44363 18.7515 5.43932 18.7815 5.43484 18.8133C5.43136 18.838 5.4278 18.8639 5.43525 18.8916C5.44034 18.9105 5.4505 18.9313 5.46063 18.9518C5.47567 18.9822 5.49064 19.0122 5.4887 19.0352C5.48797 19.0439 5.47939 19.0527 5.47085 19.0615C5.4708 19.0616 5.47074 19.0616 5.47069 19.0617C5.47011 19.0623 5.46954 19.0629 5.46897 19.0635C5.48631 19.1157 5.50479 19.1676 5.52404 19.2192C5.52749 19.2234 5.53091 19.2275 5.53429 19.2317C5.55078 19.2519 5.56687 19.2714 5.58633 19.2823C5.60741 19.2941 5.6258 19.3308 5.64544 19.3691C5.6583 19.3943 5.67168 19.4202 5.68653 19.4404C5.6952 19.4523 5.68786 19.4669 5.68031 19.4821C5.67326 19.4962 5.66606 19.5107 5.67156 19.5236C5.67432 19.53 5.68015 19.5363 5.68638 19.543C5.69187 19.5489 5.69769 19.5552 5.70198 19.5621C5.70596 19.5686 5.70407 19.5854 5.70178 19.607C5.70036 19.6204 5.69881 19.6356 5.69832 19.6512C5.71387 19.6887 5.72935 19.7261 5.74459 19.7634C5.75541 19.7693 5.76858 19.7735 5.78463 19.7753C5.79614 19.7767 5.80956 19.7769 5.82328 19.7771C5.84195 19.7774 5.86124 19.7777 5.87733 19.7807C5.88991 19.7831 5.89596 19.7881 5.89234 19.7934C5.89066 19.7959 5.88693 19.7984 5.88356 19.8007C5.8797 19.8033 5.87627 19.8057 5.87681 19.8073C5.87721 19.8085 5.88054 19.809 5.88458 19.8096C5.89103 19.8106 5.89937 19.8119 5.90089 19.8167C5.90657 19.8346 5.90953 19.8559 5.91248 19.8767C5.91576 19.8998 5.91907 19.9225 5.92601 19.9393C5.93377 19.9582 5.93021 19.9891 5.92686 20.0201C5.92451 20.0418 5.92228 20.0634 5.92385 20.0811C5.92538 20.0984 5.93637 20.1137 5.9471 20.1285C5.95998 20.1463 5.97242 20.1633 5.96744 20.1823C5.96642 20.1861 5.9556 20.1937 5.94208 20.2032C5.9325 20.21 5.92156 20.2177 5.91175 20.2258C5.91784 20.2465 5.9235 20.2672 5.9288 20.2882C5.93065 20.2884 5.93253 20.2887 5.93444 20.2889C5.93448 20.2889 5.93453 20.2889 5.93457 20.2889C5.97781 20.2945 6.03683 20.3016 6.01574 20.3435C6.01038 20.3541 5.99742 20.3638 5.98576 20.3725C5.97431 20.3811 5.96407 20.3888 5.96352 20.3956C5.96291 20.4033 5.97333 20.4089 5.98467 20.415C6.00061 20.4236 6.0184 20.433 6.01026 20.4508C6.0097 20.452 6.00909 20.4533 6.00848 20.4547C6.00275 20.4675 5.9943 20.4865 5.97256 20.5099C5.9796 20.556 5.98574 20.6025 5.99141 20.6494C6.00085 20.7273 6.00905 20.8062 6.01808 20.8851C6.02238 20.9235 5.99907 20.9703 5.95136 21.0164C5.90357 21.0625 5.83569 21.1041 5.75996 21.1322C5.68424 21.1603 5.60568 21.1731 5.53903 21.1679C5.47246 21.1627 5.42378 21.1398 5.40203 21.1053C5.36674 21.0492 5.33181 20.9925 5.29838 20.9352C5.2957 20.9326 5.29306 20.9298 5.29053 20.9271C5.27167 20.9067 5.24263 20.8916 5.21356 20.8764C5.20689 20.8729 5.2002 20.8693 5.19364 20.8657Z" fill="white"/>
<path d="M19.5496 13.8181C18.5961 17.8069 16.0746 22.6844 14.8886 22.401C13.7026 22.1175 13.6594 16.6269 14.6129 12.6381C15.5663 8.6493 16.9782 7.63038 18.3414 7.95624C19.7046 8.2821 20.503 9.82935 19.5496 13.8181Z" fill="#C95700"/>
<circle cx="14.2938" cy="24.9018" r="1.1807" transform="rotate(13.4435 14.2938 24.9018)" fill="#C95700"/>
</svg>
