<svg width="56" height="18" viewBox="0 0 56 18" fill="none" xmlns="http://www.w3.org/2000/svg">
<path d="M55.0723 17H25.9658L1 9.62402V1.02734L55.0723 17Z" fill="#FFC31F"/>
<path d="M44.8509 17.4806C43.9009 17.5198 42.0691 17.5038 41.0615 17.495C41.043 17.4948 41.0245 17.4947 41.006 17.4946C40.7669 17.4925 40.5407 17.4919 40.2757 17.4913C39.6437 17.4899 38.7898 17.488 37.0077 17.4631C36.4892 17.464 35.9706 17.4645 35.452 17.4645C32.29 17.4645 29.1279 17.4541 25.9658 17.438L25.8417 17.4201C23.5075 16.7176 21.1743 16.0118 18.8414 15.3049C18.7735 15.285 18.7044 15.2648 18.6347 15.2444C17.2866 14.8504 15.615 14.3617 14.5696 14.038C13.2406 13.6264 12.3392 13.3425 11.599 13.1086C8.04147 12.0302 4.48322 10.9541 0.922168 9.88746L0.72705 9.8316L0.725302 9.62402C0.728034 8.89363 0.730381 8.16324 0.732284 7.43285C0.735916 6.03887 0.737902 4.64472 0.737902 3.25074C0.737902 2.50968 0.737488 1.7685 0.736688 1.02734L0.733806 0.677194L1.07459 0.774819C1.59518 0.927987 2.11582 1.08095 2.63646 1.23372C3.35583 1.43733 4.04031 1.62896 4.67506 1.80668C5.56701 2.05641 6.36107 2.27877 7.01531 2.46804C8.59159 2.92407 10.3726 3.46532 11.6952 3.86726C11.9113 3.93294 12.1154 3.99497 12.3042 4.05224C13.3585 4.35811 14.4132 4.66369 15.4677 4.96908C15.5371 4.99297 15.6069 5.01714 15.678 5.04175C16.5642 5.3488 17.6689 5.67456 19.4079 6.18739C20.1651 6.41072 21.0428 6.66958 22.0751 6.97777C22.7402 7.17636 23.0773 7.29388 23.3528 7.3899C23.4338 7.41814 23.5098 7.44461 23.5869 7.47065C23.8513 7.55991 24.1365 7.6321 24.4734 7.71739C24.9105 7.82804 25.4349 7.96077 26.1142 8.18146C28.2787 8.88468 29.2519 9.12886 29.9881 9.31357C30.204 9.36775 30.3998 9.41688 30.599 9.47092C31.2452 9.64618 32.1556 9.93058 32.8411 10.1543C33.3846 10.3317 34.4856 10.6403 35.323 10.8664C35.6397 10.9519 36.065 11.0773 36.5659 11.2251C37.0842 11.378 37.684 11.555 38.328 11.7362C39.9554 12.1941 40.8199 12.4384 41.515 12.6349C41.7131 12.6909 41.8977 12.7431 42.082 12.7952C42.6647 12.9598 43.3869 13.1669 44.1182 13.3766C44.9932 13.6275 45.8813 13.8822 46.5582 14.072C48.3027 14.5981 50.0466 15.1266 51.7902 15.655C52.6857 15.9264 53.5363 16.2166 54.1534 16.4631C54.7705 16.7097 55.1041 16.892 55.0806 16.9719C55.057 17.0518 54.6777 17.0236 54.0258 16.8953C53.3737 16.7669 52.502 16.5484 51.6027 16.2897C49.7909 15.7683 47.9789 15.2468 46.1677 14.7228C43.9615 14.0844 41.7563 13.4422 39.5537 12.7916C38.0129 12.3365 36.4726 11.8794 34.9328 11.4208C34.7743 11.3736 34.6157 11.3264 34.4572 11.2791C33.157 10.9164 31.8597 10.5527 30.9476 10.2902C30.1945 10.0734 29.6496 9.90107 29.183 9.75348C28.8619 9.65191 28.5778 9.56203 28.2884 9.4775C28.133 9.43211 27.9206 9.37067 27.6644 9.29657C26.6183 8.99403 24.8416 8.48019 23.2292 7.98301C22.5137 7.76241 21.6845 7.49923 20.893 7.24799C19.7611 6.88873 18.7057 6.55373 18.1677 6.40195C17.223 6.13543 16.1464 5.8068 15.1952 5.51641C14.2878 5.23941 13.4942 4.99716 13.0377 4.87678C12.4923 4.73296 12.033 4.59026 11.3503 4.37814C10.8767 4.23102 10.2956 4.0505 9.50339 3.81294C8.58883 3.53867 7.94428 3.33616 7.39644 3.16403C6.62542 2.92178 6.04529 2.73951 5.1708 2.50125C4.19939 2.23658 3.18658 1.95158 2.39389 1.71038C2.03283 1.60052 1.6186 1.47894 1.18762 1.35245C1.10119 1.32708 1.01409 1.30152 0.926605 1.27581L1.25908 1.02734C1.2598 1.53818 1.25958 2.06191 1.25308 2.54647C1.24676 3.01706 1.23059 3.40602 1.21628 3.75019C1.21182 3.85756 1.20755 3.96062 1.20381 4.0604C1.20401 4.43522 1.20432 4.81004 1.2048 5.18486C1.2074 5.24555 1.21028 5.30934 1.21325 5.37593C1.22818 5.7101 1.24649 6.12096 1.25561 6.6296C1.27005 7.43465 1.26101 8.1411 1.25141 8.8863C1.24832 9.12664 1.24517 9.37101 1.24274 9.62402L1.06878 9.39124C1.41091 9.4959 1.77003 9.60408 2.15926 9.71737C2.61237 9.84925 3.12956 9.99516 3.64223 10.1398C4.40365 10.3546 5.15557 10.5668 5.67441 10.7264C5.86881 10.7862 6.03361 10.8455 6.19666 10.9042C6.19738 10.9045 6.19809 10.9048 6.19881 10.905C6.20987 10.909 6.221 10.913 6.23207 10.917C7.50199 11.2841 8.77226 11.6505 10.0425 12.0164C10.1531 12.0464 10.2649 12.0767 10.3756 12.1068C10.9167 12.2537 11.4424 12.3965 11.7879 12.4808C12.1622 12.572 13.0932 12.8359 14.0743 13.1139C14.7168 13.296 15.3811 13.4842 15.9245 13.6341C16.2422 13.7217 16.539 13.8203 16.8443 13.9217C17.1292 14.0164 17.4217 14.1136 17.7454 14.2066C17.9075 14.2531 18.0834 14.3006 18.2712 14.3512C18.4365 14.3958 18.6113 14.4429 18.7938 14.4941C18.9633 14.5416 19.3377 14.6582 19.8178 14.8076C20.1144 14.8999 20.4515 15.0048 20.8057 15.1137C21.7467 15.3849 22.6878 15.6565 23.6286 15.9284C23.8271 15.9774 24.0005 16.0163 24.1394 16.0414C24.2391 16.0594 24.325 16.0711 24.4133 16.0832C24.5333 16.0996 24.6576 16.1167 24.8257 16.1507C24.9571 16.1773 25.1095 16.2174 25.2095 16.2521C25.2561 16.2682 25.2912 16.283 25.323 16.2965C25.3595 16.3119 25.392 16.3256 25.4332 16.3376C25.4629 16.3463 25.4946 16.3524 25.5336 16.36C25.5959 16.372 25.6769 16.3878 25.7969 16.423C25.8982 16.4526 26.0025 16.4834 26.1091 16.515L25.9658 16.4943C26.3449 16.4946 26.7519 16.4965 27.1524 16.4984C27.7285 16.5012 28.2916 16.5038 28.7401 16.5015C29.2427 16.4989 29.9588 16.5105 30.6761 16.5222C31.1765 16.5303 31.6776 16.5384 32.1075 16.5417C32.5289 16.5449 32.9676 16.5385 33.3924 16.5322C33.9023 16.5246 34.3928 16.5173 34.8096 16.5276C34.8939 16.5296 34.9986 16.5423 35.1299 16.5581C35.223 16.5693 35.3301 16.5822 35.452 16.594C35.9826 16.594 36.5133 16.5945 37.0439 16.5955C37.0626 16.5938 37.0818 16.592 37.1012 16.5902C37.1015 16.5902 37.1018 16.5901 37.1021 16.5901C37.5379 16.5498 38.1342 16.4948 38.972 16.5276C39.185 16.536 39.3191 16.5514 39.4399 16.5653C39.5585 16.5789 39.6645 16.5911 39.8197 16.5937C39.996 16.5966 40.2041 16.5882 40.431 16.5791C40.7495 16.5663 41.1054 16.552 41.4624 16.5653C41.4868 16.5662 41.513 16.5672 41.5403 16.5682C41.7991 16.5777 42.1823 16.5917 42.5635 16.6199C43.6946 16.6274 44.8259 16.6362 45.957 16.6458C47.8425 16.6618 49.7284 16.6801 51.6137 16.6983C52.5309 16.7073 53.4106 16.7457 54.0592 16.8071C54.7078 16.8685 55.0723 16.9475 55.0723 17.0293C55.0722 17.111 54.7077 17.1899 54.0592 17.2514C53.4106 17.3128 52.5309 17.3512 51.6137 17.3601C50.118 17.3746 48.6218 17.3891 47.1259 17.4025C47.0475 17.4042 46.9688 17.4058 46.8904 17.4074C46.3073 17.4188 45.7662 17.4418 45.2248 17.4649C45.1004 17.4701 44.9758 17.4755 44.8509 17.4806Z" fill="#C95700"/>
<path d="M32.46 10.3213L34.6348 17H28.0957L25.2236 8.18359L32.46 10.3213ZM44.1279 13.7676L45.1807 17H38.6416L36.8926 11.6309L44.1279 13.7676ZM55.0684 17H49.1885L48.5615 15.0771L55.0684 17ZM20.7871 6.87305L23.8857 16.3867L16.6504 14.248L13.5508 4.73535L20.7871 6.87305ZM9.11719 3.42578L12.2168 12.9385L4.98047 10.8008L1.88281 1.28906L9.11719 3.42578Z" fill="#FF6940"/>
<path d="M44.8509 17.6807C43.9009 17.7361 42.0691 17.7135 41.0615 17.701C41.043 17.7008 41.0245 17.7006 41.006 17.7004C40.7669 17.6975 40.5407 17.6967 40.2757 17.6959C39.6437 17.6939 38.7898 17.6912 37.0077 17.6558C36.4892 17.6571 35.9706 17.6578 35.452 17.6578C32.29 17.6578 29.1279 17.6431 25.9658 17.6204L25.79 17.595C23.4573 16.8875 21.1259 16.1754 18.795 15.4617C18.7271 15.4419 18.658 15.4218 18.5883 15.4015C17.2397 15.0091 15.5675 14.5224 14.5238 14.193C13.1969 13.7741 12.2975 13.4835 11.5591 13.2438C8.00462 12.155 4.44918 11.0693 0.889769 9.99713L0.614477 9.91935L0.610954 9.62402C0.614824 8.89363 0.618147 8.16324 0.620842 7.43285C0.625986 6.03887 0.628799 4.64472 0.6288 3.25074C0.6288 2.50968 0.628213 1.7685 0.627079 1.02734L0.621315 0.532748L1.10565 0.669701C1.6263 0.822635 2.14704 0.975287 2.66779 1.12766C3.38816 1.32786 4.07384 1.51545 4.7097 1.68943C5.6032 1.9339 6.39864 2.15158 7.05333 2.33933C8.6307 2.79168 10.41 3.33873 11.7313 3.74498C11.9472 3.81136 12.1511 3.87406 12.3397 3.93191C13.3947 4.23564 14.4501 4.53894 15.5052 4.84199C15.5742 4.86718 15.6437 4.89271 15.7143 4.9187C16.5954 5.24309 17.7002 5.56862 19.4393 6.08113C20.1966 6.30432 21.0743 6.56303 22.1062 6.87247C22.7711 7.07187 23.1061 7.19627 23.3799 7.29788C23.4605 7.32777 23.536 7.35579 23.6128 7.38307C23.8759 7.4766 24.1625 7.54418 24.501 7.62402C24.9401 7.7276 25.467 7.85184 26.1441 8.0802C28.3014 8.80786 29.2795 9.03547 30.0194 9.20763C30.2364 9.25813 30.4331 9.30394 30.633 9.35614C31.2809 9.5254 32.1895 9.81573 32.8726 10.0476C33.4142 10.2315 34.5172 10.5336 35.3569 10.7516C35.6745 10.834 36.0998 10.9593 36.6007 11.107C37.1191 11.2599 37.7189 11.4368 38.3639 11.6146C39.9939 12.0638 40.8597 12.3039 41.5557 12.497C41.7542 12.552 41.939 12.6033 42.1236 12.6545C42.7071 12.8162 43.4301 13.0209 44.162 13.2282C45.0379 13.4763 45.9269 13.728 46.6049 13.9139C48.3482 14.4441 50.0905 14.9777 51.8326 15.5112C52.7274 15.7853 53.5736 16.0904 54.1835 16.3615C54.7932 16.6327 55.1174 16.8471 55.084 16.9602C55.0506 17.0734 54.6619 17.0772 54.0027 16.9735C53.3434 16.8697 52.4672 16.6662 51.5671 16.4101C49.7538 15.894 47.9402 15.3778 46.1278 14.858C43.9201 14.2248 41.7138 13.5861 39.5112 12.9355C37.9704 12.4803 36.4303 12.0225 34.891 11.5625C34.7325 11.5151 34.574 11.4677 34.4155 11.4203C33.1128 11.0658 31.8134 10.7095 30.9005 10.4496C30.1467 10.2351 29.6032 10.0583 29.1377 9.90701C28.8173 9.80287 28.5339 9.71072 28.2444 9.62655C28.089 9.58135 27.8763 9.52041 27.62 9.44693C26.5731 9.14686 24.7952 8.63723 23.1851 8.13206C22.4707 7.90791 21.6436 7.63775 20.854 7.37983C19.725 7.01103 18.6722 6.66714 18.1334 6.51809C17.1873 6.25637 16.1119 5.92368 15.1617 5.62969C14.2553 5.34926 13.4626 5.10402 13.0045 4.98918C12.4571 4.85198 11.9987 4.70658 11.3171 4.49046C10.8444 4.34057 10.2642 4.15666 9.47243 3.91774C8.55833 3.64191 7.91516 3.43476 7.36848 3.25868C6.5991 3.01088 6.0202 2.82444 5.14345 2.59385C4.16951 2.33771 3.1551 2.05814 2.36321 1.81425C2.00251 1.70316 1.5882 1.58188 1.15712 1.4557C1.07068 1.4304 0.983555 1.40489 0.896053 1.37924L1.36692 1.02734C1.36794 1.53818 1.36764 2.06191 1.35843 2.54647C1.34948 3.01706 1.32658 3.40602 1.30631 3.75019C1.29999 3.85756 1.29395 3.96062 1.28865 4.0604C1.28894 4.43522 1.28937 4.81004 1.29005 5.18486C1.29373 5.24555 1.29781 5.30934 1.30203 5.37593C1.32316 5.7101 1.34909 6.12096 1.36201 6.6296C1.38246 7.43465 1.36965 8.1411 1.35607 8.8863C1.35168 9.12664 1.34722 9.37101 1.34378 9.62402L1.0974 9.29433C1.43914 9.40037 1.79802 9.50935 2.18744 9.62198C2.64077 9.7531 3.15875 9.89637 3.67219 10.0384C4.43476 10.2493 5.18781 10.4577 5.70592 10.6197C5.90006 10.6805 6.06366 10.7438 6.22552 10.8065C6.22623 10.8068 6.22694 10.8071 6.22765 10.8074C6.23863 10.8117 6.24968 10.8159 6.26066 10.8202C7.5315 11.1842 8.80278 11.5472 10.0741 11.9096C10.185 11.9385 10.2971 11.9678 10.4081 11.9968C10.9506 12.1388 11.4778 12.2768 11.8252 12.3542C12.2017 12.4381 13.134 12.6977 14.1165 12.9712C14.7599 13.1503 15.4251 13.3355 15.9697 13.4812C16.2881 13.5664 16.5836 13.6692 16.8877 13.775C17.1714 13.8736 17.4627 13.975 17.7866 14.0669C17.9489 14.113 18.1254 14.1587 18.3137 14.2075C18.4795 14.2504 18.6548 14.2958 18.8375 14.3459C19.0074 14.3925 19.3811 14.5113 19.8603 14.6636C20.1564 14.7577 20.4929 14.8646 20.8466 14.9752C21.7884 15.2438 22.7302 15.5129 23.6717 15.7824C23.8713 15.8279 24.0461 15.8619 24.1868 15.8809C24.2878 15.8946 24.3753 15.901 24.4651 15.9078C24.5873 15.917 24.7138 15.9265 24.8837 15.9545C25.0165 15.9764 25.1694 16.0147 25.2689 16.0513C25.3152 16.0683 25.3498 16.0848 25.3811 16.0998C25.4171 16.117 25.4492 16.1323 25.4903 16.1443C25.52 16.1529 25.5521 16.1578 25.5916 16.1638C25.6546 16.1735 25.7365 16.1861 25.8565 16.2211C25.9578 16.2507 26.0622 16.2815 26.1688 16.3131L25.9658 16.2837C26.3449 16.2842 26.7519 16.2869 27.1524 16.2896C27.7285 16.2935 28.2916 16.2973 28.7401 16.294C29.2427 16.2903 29.9588 16.3068 30.6761 16.3233C31.1765 16.3348 31.6776 16.3462 32.1075 16.3509C32.5289 16.3555 32.9676 16.3464 33.3924 16.3374C33.9023 16.3267 34.3928 16.3164 34.8096 16.3309C34.8939 16.3338 34.9986 16.3518 35.1299 16.3742C35.223 16.3901 35.3301 16.4082 35.452 16.425C35.9826 16.425 36.5133 16.4257 37.0439 16.4271C37.0626 16.4246 37.0818 16.4222 37.1012 16.4196C37.1015 16.4196 37.1018 16.4195 37.1021 16.4195C37.5379 16.3624 38.1342 16.2844 38.972 16.331C39.185 16.3428 39.3191 16.3647 39.4399 16.3843C39.5585 16.4036 39.6645 16.4209 39.8197 16.4245C39.996 16.4287 40.2041 16.4168 40.431 16.4039C40.7495 16.3858 41.1054 16.3656 41.4624 16.3844C41.4868 16.3857 41.513 16.3871 41.5403 16.3885C41.7991 16.4019 42.1823 16.4217 42.5635 16.4616C43.6946 16.4723 44.8259 16.4847 45.957 16.4983C47.8425 16.521 49.7284 16.5469 51.6137 16.5728C52.5309 16.5855 53.4106 16.6398 54.0592 16.7267C54.7078 16.8138 55.0723 16.9257 55.0723 17.0415C55.0722 17.1572 54.7077 17.269 54.0592 17.3561C53.4106 17.443 52.5309 17.4973 51.6137 17.5101C50.118 17.5306 48.6218 17.5511 47.1259 17.57C47.0475 17.5725 46.9688 17.5748 46.8904 17.577C46.3073 17.5932 45.7662 17.6257 45.2248 17.6584C45.1004 17.6659 44.9758 17.6734 44.8509 17.6807Z" fill="#C95700"/>
</svg>
